<svg width="1048" height="451" viewBox="0 0 1048 451" fill="none" xmlns="http://www.w3.org/2000/svg">
<g clip-path="url(#clip0_61_41)">
<path d="M29.3198 395.474C29.3233 390.924 31.1333 386.561 34.3521 383.345C37.5708 380.129 41.9349 378.322 46.4852 378.322C51.0355 378.322 55.3995 380.129 58.6183 383.345C61.837 386.561 63.6471 390.924 63.6505 395.474" fill="#F2F2F2"/>
<path d="M46.4852 395.474C46.3621 395.474 46.2441 395.425 46.1572 395.338C46.0702 395.251 46.0213 395.133 46.0212 395.01V385.964C46.0212 385.841 46.0701 385.723 46.1571 385.636C46.2441 385.549 46.3621 385.5 46.4852 385.5C46.6082 385.5 46.7262 385.549 46.8132 385.636C46.9002 385.723 46.9491 385.841 46.9491 385.964V395.01C46.9491 395.133 46.9002 395.251 46.8132 395.338C46.7262 395.425 46.6082 395.474 46.4852 395.474Z" fill="#CCCCCC"/>
<path d="M46.485 392.366C46.3742 392.366 46.267 392.326 46.183 392.254L40.616 387.476C40.5691 387.436 40.5305 387.388 40.5025 387.333C40.4745 387.279 40.4575 387.219 40.4526 387.158C40.4476 387.097 40.4548 387.036 40.4738 386.977C40.4927 386.919 40.523 386.865 40.563 386.819C40.6029 386.772 40.6516 386.734 40.7063 386.707C40.761 386.679 40.8207 386.663 40.8818 386.658C40.9429 386.654 41.0043 386.662 41.0624 386.681C41.1205 386.7 41.1741 386.731 41.2203 386.772L46.7874 391.55C46.8594 391.611 46.9106 391.694 46.9344 391.786C46.9582 391.877 46.9532 391.974 46.9203 392.063C46.8874 392.152 46.828 392.229 46.7502 392.283C46.6723 392.337 46.5798 392.366 46.485 392.366Z" fill="#CCCCCC"/>
<path d="M82.2078 395.474C82.2112 390.924 84.0213 386.561 87.24 383.345C90.4588 380.129 94.8228 378.322 99.3731 378.322C103.923 378.322 108.287 380.129 111.506 383.345C114.725 386.561 116.535 390.924 116.538 395.474" fill="#F2F2F2"/>
<path d="M99.3731 395.474C99.2501 395.474 99.1321 395.425 99.0451 395.338C98.9581 395.251 98.9092 395.133 98.9092 395.01V385.964C98.9092 385.841 98.9581 385.723 99.0451 385.636C99.1321 385.549 99.2501 385.5 99.3731 385.5C99.4961 385.5 99.6142 385.549 99.7012 385.636C99.7882 385.723 99.837 385.841 99.837 385.964V395.01C99.837 395.133 99.7881 395.251 99.7011 395.338C99.6141 395.425 99.4961 395.474 99.3731 395.474Z" fill="#CCCCCC"/>
<path d="M99.3728 392.366C99.262 392.366 99.1548 392.326 99.0708 392.254L93.5037 387.476C93.4568 387.436 93.4182 387.388 93.3901 387.333C93.362 387.279 93.345 387.219 93.34 387.158C93.3351 387.097 93.3423 387.036 93.3612 386.977C93.3802 386.919 93.4105 386.865 93.4504 386.818C93.4904 386.772 93.5391 386.734 93.5939 386.706C93.6486 386.679 93.7083 386.662 93.7695 386.658C93.8306 386.654 93.892 386.661 93.9502 386.681C94.0083 386.7 94.0619 386.731 94.1081 386.772L99.6752 391.55C99.7471 391.611 99.7985 391.694 99.8222 391.786C99.846 391.877 99.841 391.974 99.8081 392.063C99.7752 392.152 99.7158 392.229 99.6379 392.283C99.5601 392.337 99.4676 392.366 99.3728 392.366Z" fill="#CCCCCC"/>
<path d="M108.795 432.309C125.364 432.309 138.795 429.175 138.795 425.309C138.795 421.443 125.364 418.309 108.795 418.309C92.2267 418.309 78.7953 421.443 78.7953 425.309C78.7953 429.175 92.2267 432.309 108.795 432.309Z" fill="#F2F2F2"/>
<path d="M521.783 367.679C522.049 367.679 522.303 367.574 522.491 367.386C522.678 367.199 522.783 366.944 522.783 366.679C522.783 366.414 522.678 366.159 522.491 365.972C522.303 365.784 522.049 365.679 521.783 365.679H512.283V361.679H521.783C522.049 361.679 522.303 361.574 522.491 361.386C522.678 361.199 522.783 360.944 522.783 360.679C522.783 360.414 522.678 360.159 522.491 359.972C522.303 359.784 522.049 359.679 521.783 359.679H440.783C440.518 359.679 440.264 359.784 440.076 359.972C439.889 360.159 439.783 360.414 439.783 360.679C439.783 360.944 439.889 361.199 440.076 361.386C440.264 361.574 440.518 361.679 440.783 361.679H450.283V365.679H440.783C440.518 365.679 440.264 365.784 440.076 365.972C439.889 366.159 439.783 366.414 439.783 366.679C439.783 366.944 439.889 367.199 440.076 367.386C440.264 367.574 440.518 367.679 440.783 367.679H450.283V371.679H440.783C440.518 371.679 440.264 371.784 440.076 371.972C439.889 372.159 439.783 372.414 439.783 372.679C439.783 372.944 439.889 373.199 440.076 373.386C440.264 373.574 440.518 373.679 440.783 373.679H450.283V377.679H441.783C441.253 377.679 440.744 377.89 440.369 378.265C439.994 378.64 439.783 379.149 439.783 379.679C439.783 380.209 439.994 380.718 440.369 381.093C440.744 381.468 441.253 381.679 441.783 381.679H449.875C449.816 381.839 449.785 382.008 449.783 382.179V396.179C449.783 396.577 449.942 396.958 450.223 397.24C450.504 397.521 450.886 397.679 451.283 397.679C451.681 397.679 452.063 397.521 452.344 397.24C452.625 396.958 452.783 396.577 452.783 396.179V382.179C452.782 382.008 452.751 381.839 452.692 381.679H509.875C509.816 381.839 509.785 382.008 509.783 382.179V396.179C509.783 396.577 509.942 396.958 510.223 397.24C510.504 397.521 510.886 397.679 511.283 397.679C511.681 397.679 512.063 397.521 512.344 397.24C512.625 396.958 512.783 396.577 512.783 396.179V382.179C512.782 382.008 512.751 381.839 512.692 381.679H520.783C521.314 381.679 521.823 381.468 522.198 381.093C522.573 380.718 522.783 380.209 522.783 379.679C522.783 379.149 522.573 378.64 522.198 378.265C521.823 377.89 521.314 377.679 520.783 377.679H512.283V373.679H521.783C522.049 373.679 522.303 373.574 522.491 373.386C522.678 373.199 522.783 372.944 522.783 372.679C522.783 372.414 522.678 372.159 522.491 371.972C522.303 371.784 522.049 371.679 521.783 371.679H512.283V367.679H521.783ZM452.283 361.679H510.283V365.679H452.283V361.679ZM510.283 377.679H452.283V373.679H510.283V377.679ZM510.283 371.679H452.283V367.679H510.283V371.679Z" fill="#3F3D56"/>
<path d="M216.795 325.707C216.795 308.046 202.468 266.137 184.795 266.137C167.122 266.137 152.795 308.046 152.795 325.707C152.795 334.194 156.167 342.334 162.168 348.335C168.169 354.336 176.308 357.707 184.795 357.707C193.282 357.707 201.422 354.336 207.423 348.335C213.424 342.334 216.795 334.194 216.795 325.707Z" fill="#E6E6E6"/>
<path d="M208.795 325.707C208.795 308.046 194.468 266.137 176.795 266.137C159.122 266.137 144.795 308.046 144.795 325.707C144.795 334.194 148.167 342.334 154.168 348.335C160.169 354.336 168.308 357.707 176.795 357.707C185.282 357.707 193.422 354.336 199.423 348.335C205.424 342.334 208.795 334.194 208.795 325.707Z" fill="#F2F2F2"/>
<path d="M177.795 397.258C177.53 397.258 177.276 397.152 177.088 396.965C176.901 396.777 176.795 396.523 176.795 396.258V307.117C176.795 306.852 176.901 306.598 177.088 306.41C177.276 306.223 177.53 306.117 177.795 306.117C178.061 306.117 178.315 306.223 178.502 306.41C178.69 306.598 178.795 306.852 178.795 307.117V396.258C178.795 396.523 178.69 396.777 178.502 396.965C178.315 397.152 178.061 397.258 177.795 397.258Z" fill="#CCCCCC"/>
<path d="M177.795 321.73C177.598 321.73 177.404 321.672 177.24 321.562C177.075 321.452 176.947 321.296 176.872 321.113C176.796 320.93 176.776 320.729 176.815 320.535C176.853 320.342 176.949 320.163 177.088 320.023L190.166 306.945C190.353 306.758 190.608 306.652 190.873 306.652C191.138 306.652 191.393 306.758 191.58 306.945C191.768 307.133 191.873 307.387 191.873 307.652C191.873 307.918 191.768 308.172 191.58 308.359L178.502 321.438C178.41 321.531 178.299 321.604 178.178 321.655C178.057 321.705 177.927 321.731 177.795 321.73Z" fill="#CCCCCC"/>
<path d="M545.795 397.258C545.53 397.258 545.276 397.152 545.088 396.965C544.901 396.777 544.795 396.523 544.795 396.258V307.117C544.795 306.852 544.901 306.598 545.088 306.41C545.276 306.223 545.53 306.117 545.795 306.117C546.061 306.117 546.315 306.223 546.503 306.41C546.69 306.598 546.795 306.852 546.795 307.117V396.258C546.795 396.523 546.69 396.777 546.503 396.965C546.315 397.152 546.061 397.258 545.795 397.258Z" fill="#3F3D56"/>
<path d="M652.795 325.707C652.795 308.046 638.469 266.137 620.795 266.137C603.122 266.137 588.795 308.046 588.795 325.707C588.795 334.194 592.167 342.334 598.168 348.335C604.169 354.336 612.309 357.707 620.795 357.707C629.282 357.707 637.422 354.336 643.423 348.335C649.424 342.334 652.795 334.194 652.795 325.707Z" fill="#E6E6E6"/>
<path d="M644.795 325.707C644.795 308.046 630.469 266.137 612.795 266.137C595.122 266.137 580.795 308.046 580.795 325.707C580.795 334.194 584.167 342.334 590.168 348.335C596.169 354.336 604.309 357.707 612.795 357.707C621.282 357.707 629.422 354.336 635.423 348.335C641.424 342.334 644.795 334.194 644.795 325.707Z" fill="#F2F2F2"/>
<path d="M613.795 397.258C613.53 397.258 613.276 397.152 613.088 396.965C612.901 396.777 612.795 396.523 612.795 396.258V307.117C612.795 306.852 612.901 306.598 613.088 306.41C613.276 306.223 613.53 306.117 613.795 306.117C614.061 306.117 614.315 306.223 614.503 306.41C614.69 306.598 614.795 306.852 614.795 307.117V396.258C614.795 396.523 614.69 396.777 614.503 396.965C614.315 397.152 614.061 397.258 613.795 397.258Z" fill="#CCCCCC"/>
<path d="M613.795 321.73C613.597 321.73 613.404 321.672 613.24 321.562C613.075 321.452 612.947 321.296 612.872 321.113C612.796 320.93 612.776 320.729 612.815 320.535C612.853 320.342 612.948 320.163 613.088 320.023L626.166 306.945C626.353 306.758 626.608 306.652 626.873 306.652C627.138 306.652 627.392 306.758 627.58 306.945C627.767 307.133 627.873 307.387 627.873 307.652C627.873 307.918 627.767 308.172 627.58 308.359L614.502 321.438C614.41 321.531 614.299 321.604 614.178 321.655C614.057 321.705 613.927 321.731 613.795 321.73Z" fill="#CCCCCC"/>
<path d="M283.795 51.809H267.795C266.602 51.8076 265.459 51.3331 264.615 50.4895C263.771 49.6458 263.297 48.502 263.295 47.309V10.309C263.297 9.11589 263.771 7.97208 264.615 7.12845C265.459 6.28482 266.602 5.81028 267.795 5.80896H283.795C284.988 5.81028 286.132 6.28482 286.976 7.12845C287.82 7.97208 288.294 9.11589 288.295 10.309V47.309C288.294 48.502 287.82 49.6458 286.976 50.4895C286.132 51.3331 284.988 51.8076 283.795 51.809Z" fill="#E6E6E6"/>
<path d="M346.795 396.809H264.795C262.542 396.806 260.381 395.91 258.788 394.317C257.194 392.723 256.298 390.563 256.295 388.309V57.309C256.298 55.0554 257.194 52.8949 258.788 51.3014C260.381 49.7079 262.542 48.8115 264.795 48.809H346.795C349.049 48.8115 351.21 49.7078 352.803 51.3013C354.397 52.8948 355.293 55.0554 355.295 57.309V388.309C355.293 390.563 354.397 392.723 352.803 394.317C351.21 395.91 349.049 396.806 346.795 396.809Z" fill="#E6E6E6"/>
<path d="M297.795 396.809H215.795C213.542 396.806 211.381 395.91 209.788 394.317C208.194 392.723 207.298 390.563 207.295 388.309V57.309C207.298 55.0554 208.194 52.8949 209.788 51.3014C211.381 49.7079 213.542 48.8115 215.795 48.809H297.795C300.049 48.8115 302.209 49.7079 303.803 51.3014C305.396 52.8949 306.293 55.0554 306.295 57.309V388.309C306.293 390.563 305.396 392.723 303.803 394.317C302.209 395.91 300.049 396.806 297.795 396.809Z" fill="#F2F2F2"/>
<path d="M268.795 51.809H252.795C251.602 51.8076 250.459 51.3331 249.615 50.4895C248.771 49.6458 248.297 48.502 248.295 47.309V10.309C248.297 9.11589 248.771 7.97208 249.615 7.12845C250.459 6.28482 251.602 5.81028 252.795 5.80896H268.795C269.988 5.81028 271.132 6.28482 271.976 7.12845C272.82 7.97208 273.294 9.11589 273.295 10.309V47.309C273.294 48.502 272.82 49.6458 271.976 50.4895C271.132 51.3331 269.988 51.8076 268.795 51.809Z" fill="#F2F2F2"/>
<path d="M247.795 123.809H228.795C228.133 123.808 227.497 123.545 227.028 123.076C226.56 122.607 226.296 121.972 226.295 121.309V92.309C226.296 91.6462 226.56 91.0107 227.028 90.542C227.497 90.0733 228.133 89.8097 228.795 89.809H247.795C248.458 89.8097 249.094 90.0733 249.562 90.542C250.031 91.0107 250.295 91.6462 250.295 92.309V121.309C250.295 121.972 250.031 122.607 249.562 123.076C249.094 123.545 248.458 123.808 247.795 123.809Z" fill="white"/>
<path d="M284.795 123.809H265.795C265.133 123.808 264.497 123.545 264.028 123.076C263.56 122.607 263.296 121.972 263.295 121.309V92.309C263.296 91.6462 263.56 91.0107 264.028 90.542C264.497 90.0733 265.133 89.8097 265.795 89.809H284.795C285.458 89.8097 286.094 90.0733 286.562 90.542C287.031 91.0107 287.295 91.6462 287.295 92.309V121.309C287.295 121.972 287.031 122.607 286.562 123.076C286.094 123.545 285.458 123.808 284.795 123.809Z" fill="white"/>
<path d="M247.795 176.809H228.795C228.133 176.808 227.497 176.545 227.028 176.076C226.56 175.607 226.296 174.972 226.295 174.309V145.309C226.296 144.646 226.56 144.011 227.028 143.542C227.497 143.073 228.133 142.81 228.795 142.809H247.795C248.458 142.81 249.094 143.073 249.562 143.542C250.031 144.011 250.295 144.646 250.295 145.309V174.309C250.295 174.972 250.031 175.607 249.562 176.076C249.094 176.545 248.458 176.808 247.795 176.809Z" fill="white"/>
<path d="M284.795 176.809H265.795C265.133 176.808 264.497 176.545 264.028 176.076C263.56 175.607 263.296 174.972 263.295 174.309V145.309C263.296 144.646 263.56 144.011 264.028 143.542C264.497 143.073 265.133 142.81 265.795 142.809H284.795C285.458 142.81 286.094 143.073 286.562 143.542C287.031 144.011 287.295 144.646 287.295 145.309V174.309C287.295 174.972 287.031 175.607 286.562 176.076C286.094 176.545 285.458 176.808 284.795 176.809Z" fill="white"/>
<path d="M247.795 229.809H228.795C228.133 229.808 227.497 229.545 227.028 229.076C226.56 228.607 226.296 227.972 226.295 227.309V198.309C226.296 197.646 226.56 197.011 227.028 196.542C227.497 196.073 228.133 195.81 228.795 195.809H247.795C248.458 195.81 249.094 196.073 249.562 196.542C250.031 197.011 250.295 197.646 250.295 198.309V227.309C250.295 227.972 250.031 228.607 249.562 229.076C249.094 229.545 248.458 229.808 247.795 229.809Z" fill="white"/>
<path d="M284.795 229.809H265.795C265.133 229.808 264.497 229.545 264.028 229.076C263.56 228.607 263.296 227.972 263.295 227.309V198.309C263.296 197.646 263.56 197.011 264.028 196.542C264.497 196.073 265.133 195.81 265.795 195.809H284.795C285.458 195.81 286.094 196.073 286.562 196.542C287.031 197.011 287.295 197.646 287.295 198.309V227.309C287.295 227.972 287.031 228.607 286.562 229.076C286.094 229.545 285.458 229.808 284.795 229.809Z" fill="white"/>
<path d="M247.795 282.809H228.795C228.133 282.808 227.497 282.545 227.028 282.076C226.56 281.607 226.296 280.972 226.295 280.309V251.309C226.296 250.646 226.56 250.011 227.028 249.542C227.497 249.073 228.133 248.81 228.795 248.809H247.795C248.458 248.81 249.094 249.073 249.562 249.542C250.031 250.011 250.295 250.646 250.295 251.309V280.309C250.295 280.972 250.031 281.607 249.562 282.076C249.094 282.545 248.458 282.808 247.795 282.809Z" fill="white"/>
<path d="M284.795 282.809H265.795C265.133 282.808 264.497 282.545 264.028 282.076C263.56 281.607 263.296 280.972 263.295 280.309V251.309C263.296 250.646 263.56 250.011 264.028 249.542C264.497 249.073 265.133 248.81 265.795 248.809H284.795C285.458 248.81 286.094 249.073 286.562 249.542C287.031 250.011 287.295 250.646 287.295 251.309V280.309C287.295 280.972 287.031 281.607 286.562 282.076C286.094 282.545 285.458 282.808 284.795 282.809Z" fill="white"/>
<path d="M247.795 335.809H228.795C228.133 335.808 227.497 335.544 227.028 335.076C226.56 334.607 226.296 333.972 226.295 333.309V304.309C226.296 303.646 226.56 303.011 227.028 302.542C227.497 302.073 228.133 301.81 228.795 301.809H247.795C248.458 301.81 249.094 302.073 249.562 302.542C250.031 303.011 250.295 303.646 250.295 304.309V333.309C250.295 333.972 250.031 334.607 249.562 335.076C249.094 335.544 248.458 335.808 247.795 335.809Z" fill="white"/>
<path d="M284.795 335.809H265.795C265.133 335.808 264.497 335.544 264.028 335.076C263.56 334.607 263.296 333.972 263.295 333.309V304.309C263.296 303.646 263.56 303.011 264.028 302.542C264.497 302.073 265.133 301.81 265.795 301.809H284.795C285.458 301.81 286.094 302.073 286.562 302.542C287.031 303.011 287.295 303.646 287.295 304.309V333.309C287.295 333.972 287.031 334.607 286.562 335.076C286.094 335.544 285.458 335.808 284.795 335.809Z" fill="white"/>
<path d="M696.795 226.809H680.795C679.602 226.808 678.459 226.333 677.615 225.489C676.771 224.646 676.297 223.502 676.295 222.309V201.309C676.297 200.116 676.771 198.972 677.615 198.128C678.459 197.285 679.602 196.81 680.795 196.809H696.795C697.988 196.81 699.132 197.285 699.976 198.128C700.82 198.972 701.294 200.116 701.295 201.309V222.309C701.294 223.502 700.82 224.646 699.976 225.489C699.132 226.333 697.988 226.808 696.795 226.809Z" fill="#E6E6E6"/>
<path d="M831.795 397.809H749.795C747.542 397.806 745.381 396.91 743.788 395.317C742.194 393.723 741.298 391.563 741.295 389.309V230.309C741.298 228.055 742.194 225.895 743.788 224.301C745.381 222.708 747.542 221.811 749.795 221.809H831.795C834.049 221.811 836.21 222.708 837.803 224.301C839.397 225.895 840.293 228.055 840.295 230.309V389.309C840.293 391.563 839.397 393.723 837.803 395.317C836.21 396.91 834.049 397.806 831.795 397.809Z" fill="#E6E6E6"/>
<path d="M782.795 397.809H640.795C638.542 397.806 636.381 396.91 634.788 395.317C633.194 393.723 632.298 391.563 632.295 389.309V230.309C632.298 228.055 633.194 225.895 634.788 224.301C636.381 222.708 638.542 221.811 640.795 221.809H782.795C785.049 221.811 787.21 222.708 788.803 224.301C790.397 225.895 791.293 228.055 791.295 230.309V389.309C791.293 391.563 790.397 393.723 788.803 395.317C787.21 396.91 785.049 397.806 782.795 397.809Z" fill="#F2F2F2"/>
<path d="M681.795 226.809H665.795C664.602 226.808 663.459 226.333 662.615 225.489C661.771 224.646 661.297 223.502 661.295 222.309V201.309C661.297 200.116 661.771 198.972 662.615 198.128C663.459 197.285 664.602 196.81 665.795 196.809H681.795C682.988 196.81 684.132 197.285 684.976 198.128C685.82 198.972 686.294 200.116 686.295 201.309V222.309C686.294 223.502 685.82 224.646 684.976 225.489C684.132 226.333 682.988 226.808 681.795 226.809Z" fill="#F2F2F2"/>
<path d="M702.795 300.309H683.795C683.133 300.308 682.497 300.044 682.029 299.576C681.56 299.107 681.296 298.472 681.295 297.809V268.809C681.296 268.146 681.56 267.511 682.029 267.042C682.497 266.573 683.133 266.31 683.795 266.309H702.795C703.458 266.31 704.094 266.573 704.562 267.042C705.031 267.511 705.295 268.146 705.295 268.809V297.809C705.295 298.472 705.031 299.107 704.562 299.576C704.094 300.044 703.458 300.308 702.795 300.309Z" fill="white"/>
<path d="M739.795 300.309H720.795C720.133 300.308 719.497 300.044 719.029 299.576C718.56 299.107 718.296 298.472 718.295 297.809V268.809C718.296 268.146 718.56 267.511 719.029 267.042C719.497 266.573 720.133 266.31 720.795 266.309H739.795C740.458 266.31 741.094 266.573 741.562 267.042C742.031 267.511 742.295 268.146 742.295 268.809V297.809C742.295 298.472 742.031 299.107 741.562 299.576C741.094 300.044 740.458 300.308 739.795 300.309Z" fill="white"/>
<path d="M702.795 353.309H683.795C683.133 353.308 682.497 353.044 682.029 352.576C681.56 352.107 681.296 351.472 681.295 350.809V321.809C681.296 321.146 681.56 320.511 682.029 320.042C682.497 319.573 683.133 319.31 683.795 319.309H702.795C703.458 319.31 704.094 319.573 704.562 320.042C705.031 320.511 705.295 321.146 705.295 321.809V350.809C705.295 351.472 705.031 352.107 704.562 352.576C704.094 353.044 703.458 353.308 702.795 353.309Z" fill="white"/>
<path d="M739.795 353.309H720.795C720.133 353.308 719.497 353.044 719.029 352.576C718.56 352.107 718.296 351.472 718.295 350.809V321.809C718.296 321.146 718.56 320.511 719.029 320.042C719.497 319.573 720.133 319.31 720.795 319.309H739.795C740.458 319.31 741.094 319.573 741.562 320.042C742.031 320.511 742.295 321.146 742.295 321.809V350.809C742.295 351.472 742.031 352.107 741.562 352.576C741.094 353.044 740.458 353.308 739.795 353.309Z" fill="white"/>
<path d="M1046.8 398.309H1C0.734784 398.309 0.480429 398.203 0.292892 398.016C0.105356 397.828 0 397.574 0 397.309C0 397.044 0.105356 396.789 0.292892 396.602C0.480429 396.414 0.734784 396.309 1 396.309H1046.8C1047.06 396.309 1047.31 396.414 1047.5 396.602C1047.69 396.789 1047.8 397.044 1047.8 397.309C1047.8 397.574 1047.69 397.828 1047.5 398.016C1047.31 398.203 1047.06 398.309 1046.8 398.309Z" fill="#E6E6E6"/>
<path d="M362.795 433.309H269.795C269.53 433.309 269.276 433.203 269.088 433.016C268.901 432.828 268.795 432.574 268.795 432.309C268.795 432.044 268.901 431.789 269.088 431.602C269.276 431.414 269.53 431.309 269.795 431.309H362.795C363.061 431.309 363.315 431.414 363.503 431.602C363.69 431.789 363.795 432.044 363.795 432.309C363.795 432.574 363.69 432.828 363.503 433.016C363.315 433.203 363.061 433.309 362.795 433.309Z" fill="#E6E6E6"/>
<path d="M593.795 433.309H500.795C500.53 433.309 500.276 433.203 500.088 433.016C499.901 432.828 499.795 432.574 499.795 432.309C499.795 432.044 499.901 431.789 500.088 431.602C500.276 431.414 500.53 431.309 500.795 431.309H593.795C594.061 431.309 594.315 431.414 594.503 431.602C594.69 431.789 594.795 432.044 594.795 432.309C594.795 432.574 594.69 432.828 594.503 433.016C594.315 433.203 594.061 433.309 593.795 433.309Z" fill="#E6E6E6"/>
<path d="M824.795 433.309H731.795C731.53 433.309 731.276 433.203 731.088 433.016C730.901 432.828 730.795 432.574 730.795 432.309C730.795 432.044 730.901 431.789 731.088 431.602C731.276 431.414 731.53 431.309 731.795 431.309H824.795C825.061 431.309 825.315 431.414 825.503 431.602C825.69 431.789 825.795 432.044 825.795 432.309C825.795 432.574 825.69 432.828 825.503 433.016C825.315 433.203 825.061 433.309 824.795 433.309Z" fill="#E6E6E6"/>
<path d="M415.795 325.707C415.795 308.046 401.469 266.137 383.795 266.137C366.122 266.137 351.795 308.046 351.795 325.707C351.795 334.194 355.167 342.334 361.168 348.335C367.169 354.336 375.309 357.707 383.795 357.707C392.282 357.707 400.422 354.336 406.423 348.335C412.424 342.334 415.795 334.194 415.795 325.707Z" fill="#E6E6E6"/>
<path d="M407.795 325.707C407.795 308.046 393.469 266.137 375.795 266.137C358.122 266.137 343.795 308.046 343.795 325.707C343.795 334.194 347.167 342.334 353.168 348.335C359.169 354.336 367.309 357.707 375.795 357.707C384.282 357.707 392.422 354.336 398.423 348.335C404.424 342.334 407.795 334.194 407.795 325.707Z" fill="#F2F2F2"/>
<path d="M376.795 397.258C376.53 397.258 376.276 397.152 376.088 396.965C375.901 396.777 375.795 396.523 375.795 396.258V307.117C375.795 306.852 375.901 306.598 376.088 306.41C376.276 306.223 376.53 306.117 376.795 306.117C377.061 306.117 377.315 306.223 377.503 306.41C377.69 306.598 377.795 306.852 377.795 307.117V396.258C377.795 396.523 377.69 396.777 377.503 396.965C377.315 397.152 377.061 397.258 376.795 397.258Z" fill="#CCCCCC"/>
<path d="M376.795 321.73C376.597 321.73 376.404 321.672 376.24 321.562C376.075 321.452 375.947 321.296 375.872 321.113C375.796 320.93 375.776 320.729 375.815 320.535C375.853 320.342 375.948 320.163 376.088 320.023L389.166 306.945C389.353 306.758 389.608 306.652 389.873 306.652C390.138 306.652 390.392 306.758 390.58 306.945C390.767 307.133 390.873 307.387 390.873 307.652C390.873 307.918 390.767 308.172 390.58 308.359L377.502 321.438C377.41 321.531 377.299 321.604 377.178 321.655C377.057 321.705 376.927 321.731 376.795 321.73Z" fill="#CCCCCC"/>
<path d="M926.795 325.707C926.795 308.046 912.469 266.137 894.795 266.137C877.122 266.137 862.795 308.046 862.795 325.707C862.795 334.194 866.167 342.334 872.168 348.335C878.169 354.336 886.309 357.707 894.795 357.707C903.282 357.707 911.422 354.336 917.423 348.335C923.424 342.334 926.795 334.194 926.795 325.707Z" fill="#E6E6E6"/>
<path d="M918.795 325.707C918.795 308.046 904.469 266.137 886.795 266.137C869.122 266.137 854.795 308.046 854.795 325.707C854.795 334.194 858.167 342.334 864.168 348.335C870.169 354.336 878.309 357.707 886.795 357.707C895.282 357.707 903.422 354.336 909.423 348.335C915.424 342.334 918.795 334.194 918.795 325.707Z" fill="#F2F2F2"/>
<path d="M887.795 397.258C887.53 397.258 887.276 397.152 887.088 396.965C886.901 396.777 886.795 396.523 886.795 396.258V307.117C886.795 306.852 886.901 306.598 887.088 306.41C887.276 306.223 887.53 306.117 887.795 306.117C888.061 306.117 888.315 306.223 888.503 306.41C888.69 306.598 888.795 306.852 888.795 307.117V396.258C888.795 396.523 888.69 396.777 888.503 396.965C888.315 397.152 888.061 397.258 887.795 397.258Z" fill="#CCCCCC"/>
<path d="M887.795 321.73C887.597 321.73 887.404 321.672 887.24 321.562C887.075 321.452 886.947 321.296 886.872 321.113C886.796 320.93 886.776 320.729 886.815 320.535C886.853 320.342 886.948 320.163 887.088 320.023L900.166 306.945C900.353 306.758 900.608 306.652 900.873 306.652C901.138 306.652 901.392 306.758 901.58 306.945C901.767 307.133 901.873 307.387 901.873 307.652C901.873 307.918 901.767 308.172 901.58 308.359L888.502 321.438C888.41 321.531 888.299 321.604 888.178 321.655C888.057 321.705 887.927 321.731 887.795 321.73Z" fill="#CCCCCC"/>
<path d="M556.795 336.809H534.795C534.132 336.808 533.497 336.545 533.028 336.076C532.559 335.607 532.296 334.972 532.295 334.309V312.309C532.296 311.646 532.559 311.01 533.028 310.542C533.497 310.073 534.132 309.809 534.795 309.809H556.795C557.458 309.809 558.094 310.073 558.562 310.542C559.031 311.01 559.295 311.646 559.295 312.309V334.309C559.295 334.972 559.031 335.607 558.562 336.076C558.094 336.545 557.458 336.808 556.795 336.809Z" fill="#3F3D56"/>
<path d="M770.361 347.522C770.601 347.585 770.825 347.7 771.016 347.859C771.207 348.018 771.361 348.217 771.467 348.442C771.573 348.667 771.628 348.912 771.629 349.16C771.63 349.409 771.576 349.655 771.472 349.88L775.82 354.073L772.757 354.76L769.098 350.673C768.73 350.472 768.449 350.144 768.308 349.75C768.166 349.357 768.174 348.925 768.33 348.536C768.486 348.148 768.778 347.83 769.153 347.643C769.527 347.456 769.957 347.413 770.361 347.522Z" fill="#FFB8B8"/>
<path d="M776.475 358.553L771.112 353.521C771.037 353.451 770.978 353.368 770.937 353.275C770.896 353.182 770.873 353.082 770.871 352.981C770.87 352.879 770.888 352.778 770.926 352.684C770.963 352.59 771.019 352.504 771.091 352.432L772.186 351.322C772.316 351.191 772.49 351.111 772.674 351.098C772.859 351.086 773.042 351.14 773.189 351.253L777.684 354.688L780.489 347.886C780.599 347.618 780.764 347.375 780.972 347.173C781.18 346.971 781.428 346.813 781.699 346.711C781.971 346.608 782.26 346.562 782.55 346.575C782.84 346.589 783.124 346.662 783.385 346.79C783.796 346.988 784.131 347.315 784.341 347.721C784.55 348.126 784.622 348.589 784.546 349.039C784.037 352.133 780.954 356.223 779.162 358.385C778.917 358.68 778.587 358.891 778.217 358.99C777.847 359.09 777.456 359.072 777.096 358.939C776.866 358.853 776.655 358.722 776.475 358.553Z" fill="#6C63FF"/>
<path d="M773.465 353.671L769.516 347.944C769.466 347.87 769.446 347.779 769.462 347.691C769.479 347.602 769.529 347.524 769.603 347.473L769.761 347.364C769.798 347.339 769.839 347.321 769.883 347.312C769.926 347.302 769.971 347.302 770.014 347.31C770.058 347.318 770.1 347.334 770.137 347.358C770.174 347.383 770.206 347.414 770.232 347.45L774.181 353.178C774.206 353.215 774.224 353.256 774.233 353.299C774.242 353.343 774.243 353.388 774.235 353.431C774.227 353.475 774.21 353.517 774.186 353.554C774.162 353.591 774.131 353.623 774.094 353.649L773.936 353.758C773.862 353.809 773.771 353.828 773.683 353.812C773.594 353.796 773.516 353.745 773.465 353.671Z" fill="white"/>
<path d="M772.361 353.714L769.084 348.96C768.944 348.757 768.891 348.507 768.936 348.264C768.98 348.022 769.119 347.807 769.322 347.667L769.656 347.437L773.988 353.721L773.655 353.952C773.452 354.091 773.201 354.145 772.959 354.1C772.716 354.056 772.502 353.917 772.361 353.714Z" fill="#3F3D56"/>
<path d="M772.758 394.744L770.699 394.507L770.972 386.492L773.674 386.804L772.758 394.744Z" fill="#FFB8B8"/>
<path d="M773.053 396.801L766.415 396.034L766.424 395.95C766.463 395.611 766.569 395.283 766.735 394.984C766.901 394.686 767.124 394.423 767.392 394.211C767.659 393.999 767.966 393.841 768.295 393.747C768.623 393.654 768.967 393.626 769.306 393.665L773.361 394.133L773.053 396.801Z" fill="#2F2E41"/>
<path d="M796.697 393.222L794.717 393.834L791.416 386.488L794.338 385.585L796.697 393.222Z" fill="#FFB8B8"/>
<path d="M797.795 394.986L791.411 396.958L791.386 396.877C791.285 396.551 791.25 396.208 791.281 395.868C791.313 395.528 791.411 395.197 791.571 394.895C791.73 394.593 791.948 394.325 792.211 394.107C792.474 393.889 792.777 393.725 793.103 393.624L797.003 392.42L797.795 394.986Z" fill="#2F2E41"/>
<path d="M770.46 392.897C770.25 392.832 770.075 392.689 769.97 392.497C769.864 392.305 769.838 392.08 769.896 391.868L771.137 377.583C771.194 376.932 771.399 376.302 771.736 375.741L779.248 363.274L785.97 364.482L786.013 364.5C789.28 366.501 792.181 376.203 794.986 385.586C795.422 387.045 795.873 388.554 796.313 389.996C796.395 390.202 796.393 390.431 796.308 390.636C796.223 390.84 796.061 391.004 795.857 391.091L793.822 391.947C793.629 392.029 793.413 392.036 793.215 391.967C793.017 391.898 792.852 391.758 792.752 391.573L782.289 372.417C782.276 372.393 782.257 372.373 782.234 372.357C782.212 372.342 782.186 372.333 782.159 372.33C782.132 372.327 782.104 372.33 782.079 372.34C782.054 372.349 782.031 372.365 782.014 372.386L775.941 379.258L773.71 392.353L773.701 392.381C773.62 392.569 773.475 392.72 773.291 392.809C773.107 392.897 772.898 392.917 772.701 392.863L770.512 392.904L770.499 392.904L770.46 392.897Z" fill="#2F2E41"/>
<path d="M778.884 364.641L778.842 364.627L778.829 364.584C778.798 364.48 775.725 354.083 778.494 347.455L778.497 347.449C778.578 347.291 780.509 343.58 782.753 343.209L782.813 343.199L783.543 344.563C783.772 344.792 787.72 348.892 785.928 355.938C786.089 356.516 788.269 364.449 787.083 365.634C786.651 365.932 786.126 366.064 785.604 366.005C783.319 365.81 781.064 365.352 778.884 364.641Z" fill="#6C63FF"/>
<path d="M782.29 341.909C785.185 341.909 787.531 339.563 787.531 336.669C787.531 333.775 785.185 331.429 782.29 331.429C779.396 331.429 777.05 333.775 777.05 336.669C777.05 339.563 779.396 341.909 782.29 341.909Z" fill="#2F2E41"/>
<path d="M780.209 341.884C782.502 341.884 784.361 340.025 784.361 337.732C784.361 335.439 782.502 333.581 780.209 333.581C777.916 333.581 776.057 335.439 776.057 337.732C776.057 340.025 777.916 341.884 780.209 341.884Z" fill="#FFB8B8"/>
<path d="M782.881 341.765C782.502 341.899 782.037 342.018 781.739 341.739C781.615 341.579 781.543 341.384 781.531 341.182C781.519 340.979 781.568 340.778 781.673 340.604C781.888 340.262 782.062 339.895 782.192 339.512C782.23 339.225 782.194 338.932 782.086 338.662C781.978 338.393 781.802 338.156 781.575 337.975C781.125 337.631 780.615 337.375 780.071 337.218L777.165 336.185C776.41 336.007 775.739 335.572 775.268 334.956C775.025 334.442 774.983 333.856 775.151 333.313C775.319 332.77 775.683 332.309 776.173 332.022C776.667 331.773 777.21 331.638 777.763 331.627C778.315 331.616 778.864 331.73 779.367 331.959C779.921 332.217 780.489 332.445 781.069 332.64C782.232 332.947 783.556 332.671 784.578 333.328C785.01 333.655 785.352 334.085 785.575 334.579C785.797 335.073 785.892 335.615 785.851 336.155C785.764 337.241 785.474 338.301 784.996 339.281C784.775 339.885 784.454 340.447 784.048 340.946C783.849 341.19 783.595 341.382 783.306 341.506C783.017 341.631 782.703 341.684 782.389 341.661L782.881 341.765Z" fill="#2F2E41"/>
<path d="M786.685 337.514C788.553 337.514 790.066 336 790.066 334.133C790.066 332.266 788.553 330.752 786.685 330.752C784.818 330.752 783.305 332.266 783.305 334.133C783.305 336 784.818 337.514 786.685 337.514Z" fill="#2F2E41"/>
<path d="M781.107 339.035C781.107 338.974 781.124 338.914 781.156 338.861C781.187 338.808 781.232 338.765 781.286 338.737C781.341 338.708 781.402 338.694 781.463 338.697C781.524 338.7 781.583 338.72 781.634 338.754C781.685 338.789 781.726 338.836 781.752 338.892C781.778 338.947 781.788 339.009 781.782 339.07C781.775 339.131 781.753 339.189 781.716 339.238C781.679 339.287 781.629 339.325 781.572 339.348V340.092C781.572 340.108 781.569 340.125 781.563 340.141C781.557 340.156 781.547 340.17 781.536 340.182C781.524 340.194 781.51 340.203 781.494 340.21C781.479 340.216 781.462 340.22 781.445 340.22C781.429 340.22 781.412 340.216 781.397 340.21C781.381 340.203 781.367 340.194 781.355 340.182C781.344 340.17 781.334 340.156 781.328 340.141C781.322 340.125 781.319 340.108 781.319 340.092V339.348C781.256 339.323 781.203 339.28 781.165 339.224C781.128 339.168 781.107 339.103 781.107 339.035Z" fill="white"/>
<path d="M770.567 351.071C770.814 351.046 771.064 351.076 771.298 351.158C771.533 351.241 771.746 351.373 771.924 351.547C772.101 351.721 772.239 351.932 772.326 352.164C772.414 352.397 772.449 352.646 772.43 352.894L777.967 355.308L775.335 357.019L770.481 354.464C770.067 354.404 769.689 354.195 769.419 353.875C769.149 353.555 769.006 353.148 769.016 352.729C769.027 352.311 769.191 351.911 769.476 351.605C769.762 351.3 770.15 351.11 770.567 351.071Z" fill="#FFB8B8"/>
<path d="M780.142 359.279L773.361 356.432C773.267 356.392 773.182 356.335 773.111 356.262C773.04 356.189 772.985 356.103 772.947 356.009C772.91 355.914 772.892 355.813 772.895 355.712C772.897 355.61 772.92 355.51 772.962 355.418L773.602 353.996C773.678 353.828 773.813 353.693 773.981 353.616C774.15 353.54 774.34 353.527 774.517 353.581L779.928 355.234L780.186 347.882C780.196 347.592 780.266 347.307 780.39 347.045C780.515 346.783 780.692 346.549 780.911 346.358C781.129 346.167 781.385 346.023 781.661 345.935C781.938 345.846 782.23 345.816 782.518 345.845C782.973 345.888 783.401 346.077 783.739 346.384C784.076 346.691 784.305 347.1 784.391 347.548C784.992 350.625 783.528 355.533 782.602 358.185C782.475 358.546 782.239 358.86 781.927 359.082C781.615 359.304 781.242 359.423 780.859 359.424C780.613 359.424 780.369 359.374 780.142 359.279Z" fill="#6C63FF"/>
<path d="M84.7927 357.539H74.4067V354.386C77.6887 352.102 80.5965 352.301 84.4218 354.571L84.7927 357.539Z" fill="#6C63FF"/>
<path d="M72.0019 413.541H69.7279L69.3879 404.771H72.0019V413.541Z" fill="#FFB8B8"/>
<path d="M72.5816 415.745L65.2501 415.745V415.652C65.2501 415.277 65.3239 414.906 65.4673 414.56C65.6107 414.214 65.8209 413.899 66.0859 413.634C66.3509 413.369 66.6655 413.159 67.0117 413.016C67.3579 412.872 67.729 412.798 68.1038 412.798L72.5817 412.799L72.5816 415.745Z" fill="#2F2E41"/>
<path d="M84.809 413.541H87.082L87.422 404.771H84.808L84.809 413.541Z" fill="#FFB8B8"/>
<path d="M84.2288 412.799L88.7066 412.798C89.0813 412.798 89.4526 412.872 89.7988 413.016C90.145 413.159 90.4596 413.369 90.7246 413.634C90.9896 413.899 91.1997 414.214 91.3432 414.56C91.4866 414.906 91.5604 415.277 91.5604 415.652V415.745L84.2289 415.745L84.2288 412.799Z" fill="#2F2E41"/>
<path d="M84.8685 412.417C84.6788 412.416 84.4949 412.351 84.3468 412.233C84.1988 412.114 84.0954 411.949 84.0535 411.764L78.4179 387.182C78.4056 387.12 78.3716 387.064 78.3219 387.024C78.2722 386.984 78.2101 386.963 78.1464 386.965H78.145C78.0811 386.963 78.0188 386.985 77.9693 387.025C77.9197 387.066 77.886 387.122 77.8742 387.185L72.6989 411.601C72.6585 411.787 72.5556 411.955 72.4071 412.075C72.2586 412.195 72.0735 412.261 71.8824 412.262H69.4171C69.3034 412.262 69.1908 412.239 69.0864 412.194C68.9819 412.149 68.8878 412.083 68.8098 412C68.7318 411.917 68.6715 411.819 68.6327 411.712C68.5938 411.605 68.5773 411.492 68.584 411.378L70.4202 380.432L71.1591 380.214L71.173 380.214L85.687 380.341L88.7782 411.253C88.789 411.363 88.7777 411.474 88.7451 411.58C88.7124 411.686 88.6589 411.784 88.5879 411.869C88.5168 411.954 88.4295 412.024 88.3311 412.075C88.2327 412.126 88.1252 412.157 88.0148 412.165L84.9353 412.414C84.9129 412.416 84.8906 412.417 84.8685 412.417Z" fill="#2F2E41"/>
<path d="M78.8748 351.888C81.3905 351.888 83.4299 349.849 83.4299 347.333C83.4299 344.817 81.3905 342.778 78.8748 342.778C76.359 342.778 74.3196 344.817 74.3196 347.333C74.3196 349.849 76.359 351.888 78.8748 351.888Z" fill="#FFB8B8"/>
<path d="M76.0842 383.825C75.2851 383.835 74.4891 383.723 73.7237 383.493C73.043 383.288 72.4115 382.946 71.868 382.487C71.3246 382.029 70.8807 381.464 70.5637 380.827C70.4633 380.636 70.441 380.413 70.5016 380.205C71.004 378.49 73.4317 369.578 71.8827 362.493C71.6641 361.509 71.6459 360.49 71.8293 359.499C72.0127 358.507 72.3938 357.563 72.9501 356.722C73.4934 355.888 74.1991 355.172 75.0253 354.616C75.8514 354.06 76.781 353.677 77.7586 353.488C78.0155 353.438 78.2738 353.397 78.5263 353.365C79.6069 353.232 80.7036 353.34 81.7379 353.68C82.7721 354.02 83.7184 354.585 84.5089 355.334C85.323 356.097 85.9582 357.031 86.3691 358.069C86.78 359.106 86.9564 360.222 86.8858 361.335L85.6954 380.439C85.6872 380.582 85.6418 380.721 85.5639 380.841C85.4859 380.962 85.378 381.06 85.2506 381.126C83.8796 381.844 79.761 383.825 76.0842 383.825Z" fill="#3F3D56"/>
<path d="M84.0206 343.98C83.5474 342.791 82.6807 341.8 81.5651 341.173C80.4494 340.545 79.1524 340.32 77.8905 340.533L79.3268 341.694C77.5423 341.754 75.6639 341.626 74.3898 342.877C74.7955 342.866 75.3271 343.733 75.7327 343.722C75.3531 343.749 74.9876 343.877 74.6744 344.093C74.3611 344.309 74.1115 344.605 73.9517 344.95C73.6415 345.65 73.5689 346.431 73.7451 347.175C74.2047 348.271 74.7393 349.333 75.345 350.354C75.2921 348.542 78.8594 344.22 80.6013 344.671C79.7163 345 78.9483 345.583 78.3942 346.347C79.5794 345.749 80.9197 345.53 82.2336 345.719C82.5336 345.788 82.8431 345.805 83.1489 345.77C83.3363 345.733 83.5111 345.649 83.6565 345.525C83.802 345.401 83.9132 345.242 83.9797 345.063C84.0461 344.883 84.0655 344.69 84.0361 344.502C84.0066 344.313 83.9292 344.135 83.8113 343.984L84.0206 343.98Z" fill="#2F2E41"/>
<path d="M75.7704 382.678C75.6554 382.678 75.5416 382.654 75.4362 382.608L66.7935 378.835C66.6099 378.757 66.4609 378.614 66.3739 378.434C66.2869 378.255 66.2677 378.05 66.32 377.857L72.0415 356.243C72.1479 355.841 72.3334 355.464 72.5872 355.134C72.841 354.805 73.158 354.529 73.5197 354.323C73.8814 354.118 74.2804 353.986 74.6934 353.937C75.1065 353.888 75.5253 353.921 75.9252 354.035L78.213 354.688L76.6025 381.892C76.5942 382.026 76.5537 382.157 76.4844 382.272C76.4152 382.387 76.3191 382.484 76.2045 382.554C76.0741 382.635 75.9238 382.678 75.7704 382.678Z" fill="#6C63FF"/>
<path d="M91.7662 377.856L91.386 376.423L90.8352 374.338L90.5699 373.338L90.0192 371.259L86.0446 356.242C85.9386 355.84 85.7533 355.463 85.4996 355.133C85.2458 354.803 84.9288 354.528 84.567 354.322C84.2053 354.117 83.8061 353.985 83.393 353.936C82.9798 353.887 82.561 353.921 82.161 354.035L79.8743 354.688L81.0074 373.823L81.1243 375.82L81.1985 377.079V377.081L81.3171 379.067L81.4841 381.892C81.4978 382.104 81.5912 382.303 81.7457 382.449C81.9002 382.595 82.1043 382.677 82.3168 382.678C82.4317 382.678 82.5453 382.654 82.6507 382.608L91.2932 378.836C91.477 378.757 91.626 378.614 91.713 378.434C91.7999 378.255 91.8188 378.049 91.7662 377.856Z" fill="#6C63FF"/>
<path d="M90.57 373.339L81.124 375.82L81.007 373.823L90.019 371.259L90.57 373.339Z" fill="#CCCCCC"/>
<path d="M91.386 376.423L81.317 379.068L81.198 377.081V377.079L90.835 374.338L91.386 376.423Z" fill="#CCCCCC"/>
<path d="M76.963 374.253L76.846 376.213L67.582 373.454L68.125 371.402L76.963 374.253Z" fill="#CCCCCC"/>
<path d="M76.7699 377.504L67.3169 374.453L66.7729 376.51L76.6549 379.453L76.7699 377.504Z" fill="#CCCCCC"/>
<path d="M67.4813 379.554C67.7631 379.481 68.0254 379.346 68.2496 379.16C68.4739 378.974 68.6546 378.742 68.7792 378.478C68.9037 378.215 68.969 377.928 68.9705 377.636C68.9719 377.345 68.9095 377.057 68.7876 376.793L73.2317 362.841L70.0804 362.181L66.006 375.859C65.5751 376.094 65.2452 376.478 65.0787 376.939C64.9122 377.4 64.9207 377.907 65.1025 378.362C65.2844 378.818 65.627 379.19 66.0654 379.41C66.5038 379.63 67.0076 379.681 67.4813 379.554Z" fill="#FFB8B8"/>
<path d="M73.355 355.982C74.2599 356.074 74.7689 357.092 74.5439 358.359L73.4643 364.438C73.3833 364.894 73.0083 365.254 72.6966 365.176L69.0447 364.264C68.7637 364.193 68.6602 363.794 68.8195 363.395L71.0118 357.895C71.1601 357.375 71.4642 356.913 71.8832 356.571C72.3021 356.229 72.8158 356.023 73.355 355.982Z" fill="#3F3D56"/>
<path d="M78.8579 338.807C80.3996 338.807 81.8807 339.407 82.9876 340.481C84.0945 341.554 84.7402 343.015 84.7881 344.556H85.9056C86.0039 344.556 86.0983 344.595 86.1678 344.665C86.2374 344.735 86.2765 344.829 86.2765 344.927V346.411C86.2765 346.509 86.2374 346.604 86.1678 346.673C86.0983 346.743 86.0039 346.782 85.9056 346.782H73.294C73.1957 346.782 73.1013 346.743 73.0317 346.673C72.9622 346.604 72.9231 346.509 72.9231 346.411V344.742C72.9231 343.963 73.0766 343.191 73.3748 342.471C73.6731 341.751 74.1103 341.096 74.6614 340.545C75.2125 339.994 75.8667 339.557 76.5868 339.259C77.3068 338.961 78.0786 338.807 78.8579 338.807Z" fill="#6C63FF"/>
<path d="M79.567 375.493H76.9454C76.8613 375.493 76.7801 375.462 76.7178 375.405C76.6555 375.349 76.6165 375.271 76.6086 375.187L76.0839 369.808H80.4286L79.9038 375.187C79.8959 375.271 79.857 375.349 79.7947 375.405C79.7324 375.462 79.6512 375.493 79.567 375.493Z" fill="#E6E6E6"/>
<path d="M80.4216 370.485H76.0908C76.0011 370.485 75.9151 370.449 75.8517 370.386C75.7882 370.322 75.7525 370.236 75.7524 370.147V369.335C75.7525 369.245 75.7882 369.159 75.8517 369.096C75.9151 369.032 76.0011 368.997 76.0908 368.996H80.4216C80.5113 368.997 80.5973 369.032 80.6607 369.096C80.7242 369.159 80.7598 369.245 80.7599 369.335V370.147C80.7598 370.236 80.7242 370.322 80.6607 370.386C80.5973 370.449 80.5113 370.485 80.4216 370.485Z" fill="#CCCCCC"/>
<path d="M78.3125 372.608C78.4144 372.62 78.5153 372.64 78.6141 372.667L85.5961 366.68L85.188 364.483L88.423 363.434L89.5234 367.253C89.6123 367.561 89.5988 367.89 89.4848 368.19C89.3707 368.49 89.1625 368.745 88.8911 368.917L80.0487 374.513C80.055 374.908 79.9407 375.296 79.7212 375.625C79.5017 375.953 79.1872 376.208 78.8197 376.353C78.4522 376.499 78.0491 376.529 77.6639 376.44C77.2787 376.351 76.9297 376.147 76.6634 375.855C76.397 375.563 76.2259 375.197 76.1729 374.805C76.1198 374.413 76.1873 374.014 76.3663 373.662C76.5454 373.309 76.8275 373.02 77.1751 372.832C77.5228 372.643 77.9194 372.565 78.3125 372.608Z" fill="#FFB8B8"/>
<path d="M85.6143 356.484C86.5808 356.214 87.5467 356.949 87.8703 358.203L89.4233 364.217C89.5397 364.668 89.3136 365.147 88.9604 365.198L84.8233 365.793C84.505 365.839 84.2245 365.513 84.2128 365.083L84.0522 359.164C83.9907 358.609 84.1094 358.049 84.3906 357.566C84.6719 357.084 85.1009 356.704 85.6143 356.484Z" fill="#3F3D56"/>
<path d="M132.64 372.756H129.49C129.389 372.756 129.291 372.719 129.216 372.651C129.142 372.583 129.095 372.49 129.085 372.389L128.455 365.927H133.675L133.044 372.389C133.035 372.49 132.988 372.583 132.913 372.651C132.838 372.719 132.741 372.756 132.64 372.756Z" fill="#E6E6E6"/>
<path d="M133.666 366.74H128.463C128.355 366.74 128.252 366.697 128.176 366.621C128.1 366.544 128.057 366.441 128.057 366.333V365.358C128.057 365.25 128.1 365.147 128.176 365.07C128.252 364.994 128.355 364.951 128.463 364.951H133.666C133.774 364.951 133.877 364.994 133.954 365.07C134.03 365.147 134.073 365.25 134.073 365.358V366.333C134.073 366.441 134.03 366.544 133.954 366.621C133.877 366.697 133.774 366.74 133.666 366.74Z" fill="#CCCCCC"/>
<path d="M163.585 410.706C161.296 407.662 159.487 404.286 158.22 400.694C158.147 400.479 158.152 400.246 158.235 400.034C158.318 399.823 158.473 399.648 158.673 399.54L166.504 395.344C166.631 395.276 166.771 395.237 166.915 395.231C167.059 395.225 167.202 395.253 167.334 395.31C167.468 395.369 167.588 395.457 167.683 395.568C167.778 395.68 167.846 395.811 167.883 395.953C168.794 399.414 170.507 402.611 172.884 405.287C172.982 405.396 173.054 405.526 173.094 405.667C173.134 405.808 173.141 405.956 173.115 406.1C173.091 406.242 173.034 406.376 172.949 406.492C172.865 406.609 172.755 406.705 172.628 406.772L164.796 410.968C164.596 411.075 164.364 411.107 164.142 411.059C163.921 411.011 163.723 410.886 163.585 410.706Z" fill="#CCCCCC"/>
<path d="M164.119 410.305C164.161 410.357 164.22 410.393 164.286 410.407C164.352 410.421 164.421 410.411 164.481 410.379L172.312 406.183C172.35 406.163 172.383 406.135 172.408 406.1C172.433 406.065 172.45 406.025 172.457 405.983C172.465 405.939 172.463 405.893 172.451 405.849C172.438 405.805 172.416 405.765 172.385 405.732C169.938 402.977 168.174 399.685 167.236 396.123C167.225 396.079 167.204 396.038 167.175 396.003C167.146 395.968 167.109 395.941 167.067 395.923C167.028 395.906 166.985 395.897 166.942 395.899C166.899 395.901 166.857 395.913 166.82 395.933L158.989 400.129C158.929 400.161 158.883 400.213 158.858 400.276C158.833 400.338 158.83 400.408 158.851 400.472C160.095 403.999 161.872 407.315 164.119 410.305Z" fill="white"/>
<path d="M167.018 401.332L162.753 403.215C162.591 403.287 162.407 403.291 162.242 403.227C162.076 403.163 161.943 403.036 161.872 402.874L161.766 402.635C161.695 402.472 161.691 402.289 161.755 402.123C161.819 401.958 161.946 401.825 162.108 401.753L166.373 399.87C166.535 399.799 166.719 399.795 166.884 399.859C167.049 399.923 167.183 400.05 167.254 400.212L167.36 400.451C167.431 400.613 167.435 400.797 167.371 400.962C167.307 401.128 167.18 401.261 167.018 401.332Z" fill="#CCCCCC"/>
<path d="M168.578 404.229L164.313 406.112C164.151 406.183 163.967 406.188 163.801 406.123C163.636 406.059 163.503 405.932 163.431 405.77L163.326 405.531C163.254 405.369 163.25 405.185 163.314 405.02C163.378 404.855 163.505 404.722 163.667 404.65L167.933 402.767C168.095 402.696 168.279 402.692 168.444 402.756C168.609 402.82 168.742 402.947 168.814 403.109L168.92 403.348C168.991 403.51 168.995 403.694 168.931 403.859C168.867 404.024 168.74 404.157 168.578 404.229Z" fill="#CCCCCC"/>
<path d="M158.575 401.815C158.28 401.626 158.031 401.375 157.845 401.079C157.658 400.782 157.539 400.449 157.495 400.102C157.451 399.755 157.484 399.402 157.591 399.069C157.698 398.736 157.877 398.43 158.115 398.174L156.316 372.648L161.498 373.15L161.64 398.148C162.044 398.576 162.278 399.138 162.295 399.727C162.313 400.316 162.114 400.891 161.736 401.343C161.358 401.795 160.828 402.093 160.245 402.18C159.663 402.267 159.068 402.137 158.575 401.815Z" fill="#A0616A"/>
<path d="M157.489 381.225C157.368 381.138 157.268 381.024 157.196 380.893C157.124 380.762 157.083 380.616 157.075 380.467L156.695 373.587C156.658 372.906 156.874 372.234 157.302 371.702C157.73 371.171 158.34 370.816 159.014 370.708C159.688 370.599 160.378 370.744 160.952 371.114C161.526 371.484 161.942 372.053 162.12 372.712L163.788 378.863C163.857 379.12 163.822 379.394 163.69 379.624C163.558 379.855 163.339 380.024 163.083 380.093L158.339 381.38C158.195 381.419 158.043 381.426 157.896 381.399C157.749 381.372 157.61 381.313 157.489 381.225Z" fill="#3F3D56"/>
<path d="M148.658 433.198L145.927 433.197L144.627 422.661H148.659L148.658 433.198Z" fill="#A0616A"/>
<path d="M143.365 432.417H149.244V435.734H140.658V435.124C140.658 434.768 140.728 434.416 140.864 434.088C141 433.76 141.2 433.461 141.451 433.21C141.703 432.958 142.001 432.759 142.329 432.623C142.658 432.487 143.01 432.417 143.365 432.417Z" fill="#2F2E41"/>
<path d="M158.908 433.198L156.177 433.197L154.877 422.661H158.909L158.908 433.198Z" fill="#A0616A"/>
<path d="M153.615 432.417H159.494V435.734H150.908V435.124C150.908 434.768 150.978 434.416 151.114 434.088C151.25 433.76 151.45 433.461 151.701 433.21C151.952 432.958 152.251 432.759 152.579 432.623C152.908 432.487 153.26 432.417 153.615 432.417Z" fill="#2F2E41"/>
<path d="M148.529 427.889L145.522 427.746C145.266 427.734 145.024 427.624 144.847 427.439C144.669 427.254 144.569 427.008 144.567 426.751C143.774 414.514 142.676 401.393 144.357 396.323C144.356 396.179 144.386 396.036 144.446 395.904C144.505 395.773 144.592 395.655 144.701 395.56C144.81 395.466 144.938 395.395 145.077 395.354C145.215 395.314 145.361 395.303 145.504 395.324L157.535 397.07C157.773 397.104 157.99 397.222 158.148 397.403C158.306 397.584 158.393 397.815 158.394 398.055C159.93 404.057 159.999 414.941 159.941 426.25C159.942 426.382 159.917 426.514 159.867 426.636C159.817 426.759 159.743 426.87 159.65 426.964C159.557 427.058 159.446 427.132 159.324 427.183C159.202 427.234 159.071 427.26 158.938 427.26H155.696C155.457 427.261 155.225 427.176 155.044 427.021C154.862 426.865 154.742 426.65 154.706 426.413L152.705 413.698C152.676 413.512 152.581 413.342 152.436 413.221C152.292 413.1 152.109 413.035 151.921 413.039C151.732 413.042 151.552 413.114 151.412 413.24C151.272 413.366 151.183 413.539 151.161 413.726L149.573 427.007C149.543 427.25 149.425 427.474 149.242 427.637C149.059 427.8 148.822 427.89 148.577 427.891C148.561 427.891 148.545 427.89 148.529 427.889Z" fill="#2F2E41"/>
<path d="M150.646 398.057C148.89 397.025 146.944 396.358 144.924 396.097C144.792 396.084 144.663 396.044 144.546 395.98C144.429 395.916 144.326 395.829 144.244 395.724C144.16 395.618 144.098 395.497 144.063 395.366C144.027 395.236 144.018 395.1 144.037 394.966L146.919 373.564C147.085 372.312 147.569 371.123 148.324 370.11C149.079 369.098 150.081 368.296 151.234 367.78C152.35 367.267 153.579 367.048 154.803 367.144C156.028 367.24 157.207 367.648 158.23 368.328C158.328 368.394 158.425 368.461 158.52 368.53C159.698 369.392 160.594 370.584 161.095 371.955C161.596 373.326 161.68 374.815 161.336 376.233C159.568 383.465 158.961 395.321 158.857 397.624C158.849 397.82 158.783 398.01 158.667 398.169C158.552 398.327 158.391 398.448 158.207 398.516C157.119 398.912 155.972 399.116 154.814 399.12C153.357 399.129 151.922 398.763 150.646 398.057Z" fill="#3F3D56"/>
<path d="M153.058 364.874C156.08 364.874 158.53 362.424 158.53 359.401C158.53 356.379 156.08 353.928 153.058 353.928C150.035 353.928 147.585 356.379 147.585 359.401C147.585 362.424 150.035 364.874 153.058 364.874Z" fill="#A0616A"/>
<path d="M156.931 363.731C156.702 363.978 156.407 364.154 156.082 364.239C155.756 364.324 155.413 364.315 155.093 364.212C154.772 364.108 154.488 363.916 154.273 363.657C154.059 363.398 153.922 363.083 153.88 362.749C153.87 362.634 153.871 362.518 153.883 362.402C154.082 361.769 154.202 361.114 154.241 360.452C154.22 360.279 154.155 360.114 154.053 359.973C153.24 358.884 151.33 360.46 150.562 359.474C150.091 358.869 150.645 357.917 150.283 357.241C149.807 356.349 148.394 356.789 147.508 356.301C146.523 355.757 146.582 354.245 147.231 353.325C147.653 352.782 148.19 352.338 148.803 352.026C149.416 351.714 150.091 351.541 150.779 351.519C152.156 351.487 153.524 351.754 154.788 352.301C156.281 352.787 157.598 353.7 158.576 354.928C159.082 355.733 159.403 356.64 159.515 357.585C159.627 358.529 159.528 359.486 159.224 360.388C158.689 361.643 157.909 362.78 156.931 363.731Z" fill="#2F2E41"/>
<path d="M161.265 369.052C161.169 368.602 160.347 367.987 159.17 367.485C157.279 366.719 155.234 366.411 153.201 366.585C151.168 366.759 149.205 367.411 147.472 368.488C147.351 368.495 147.236 368.541 147.143 368.619C147.051 368.698 146.987 368.804 146.962 368.923L143.004 386.425L142.49 388.705L142.149 390.213L141.634 392.486L141.36 393.7C141.342 393.778 141.342 393.859 141.358 393.936C141.374 394.014 141.406 394.088 141.453 394.152C141.5 394.217 141.56 394.27 141.629 394.31C141.699 394.349 141.775 394.373 141.855 394.38L158.943 395.855C158.958 395.855 158.976 395.857 158.992 395.857C159.133 395.856 159.268 395.802 159.371 395.705C159.473 395.609 159.535 395.477 159.545 395.336L159.707 392.86L159.881 390.213L159.957 389.066L160.128 386.425L161.267 369.081V369.065L161.265 369.052Z" fill="#6C63FF"/>
<path d="M133.226 370.153C133.253 370.274 133.271 370.396 133.279 370.519L142.851 376.041L145.177 374.701L147.658 377.948L142.681 381.496L131.76 372.881C131.315 373.046 130.83 373.071 130.37 372.954C129.91 372.836 129.496 372.581 129.185 372.223C128.873 371.865 128.678 371.42 128.625 370.948C128.572 370.476 128.664 369.999 128.889 369.581C129.113 369.163 129.46 368.822 129.883 368.606C130.305 368.39 130.784 368.307 131.255 368.369C131.726 368.431 132.166 368.635 132.518 368.954C132.87 369.273 133.117 369.691 133.226 370.153Z" fill="#A0616A"/>
<path d="M143.193 375.571C143.177 375.423 143.194 375.272 143.244 375.132C143.294 374.991 143.375 374.863 143.481 374.757L148.353 369.884C148.835 369.402 149.48 369.115 150.161 369.079C150.843 369.043 151.514 369.261 152.045 369.691C152.575 370.12 152.928 370.731 153.035 371.405C153.142 372.079 152.995 372.769 152.624 373.342L149.154 378.688C149.009 378.911 148.782 379.067 148.522 379.122C148.262 379.178 147.991 379.128 147.767 378.983L143.644 376.307C143.519 376.226 143.413 376.118 143.335 375.991C143.257 375.863 143.208 375.72 143.193 375.571Z" fill="#3F3D56"/>
<path d="M160.128 386.425L159.957 389.066L142.489 388.705L143.004 386.425H160.128Z" fill="#CCCCCC"/>
<path d="M159.881 390.213L159.707 392.86L141.634 392.486L142.149 390.213H159.881Z" fill="#CCCCCC"/>
<path d="M153.165 348.768C151.313 348.768 149.533 349.489 148.203 350.779C146.874 352.068 146.098 353.824 146.04 355.676H144.698C144.579 355.676 144.466 355.723 144.382 355.806C144.299 355.89 144.252 356.003 144.252 356.121V357.904C144.252 358.022 144.299 358.135 144.382 358.219C144.466 358.303 144.579 358.349 144.698 358.349H159.85C159.968 358.349 160.081 358.303 160.165 358.219C160.248 358.135 160.295 358.022 160.295 357.904V355.898C160.295 354.962 160.111 354.035 159.752 353.17C159.394 352.305 158.869 351.519 158.207 350.856C157.545 350.194 156.759 349.669 155.894 349.311C155.028 348.952 154.101 348.768 153.165 348.768Z" fill="#6C63FF"/>
<path d="M193.295 421.309H191.767C191.757 421.124 189.705 416.309 189.705 416.309L188.465 413.309L187.645 411.309L186.405 408.309L184.985 404.859C184.949 404.703 184.861 404.564 184.736 404.465C184.61 404.366 184.455 404.311 184.295 404.311C184.135 404.311 183.98 404.366 183.855 404.465C183.73 404.564 183.642 404.703 183.605 404.859L182.185 408.309L180.945 411.309L180.125 413.309L178.885 416.309C178.885 416.309 176.833 421.124 176.824 421.309H175.295C174.897 421.309 174.516 421.467 174.235 421.748C173.953 422.03 173.795 422.411 173.795 422.809C173.795 423.207 173.953 423.588 174.235 423.87C174.516 424.151 174.897 424.309 175.295 424.309H193.295C193.693 424.309 194.075 424.151 194.356 423.87C194.637 423.588 194.795 423.207 194.795 422.809C194.795 422.411 194.637 422.03 194.356 421.748C194.075 421.467 193.693 421.309 193.295 421.309Z" fill="#FF6584"/>
<path d="M192.295 447.309H191.703C191.757 447.181 189.125 440.449 189.125 440.449L187.545 436.599L186.485 434.019L184.905 430.169L183.185 425.999C183.137 425.802 183.024 425.627 182.864 425.502C182.705 425.377 182.508 425.309 182.305 425.309C182.103 425.309 181.906 425.377 181.746 425.502C181.587 425.627 181.474 425.802 181.425 425.999L179.705 430.169L178.125 434.019L177.055 436.599L175.475 440.449C175.475 440.449 172.853 447.181 172.908 447.309H172.295C171.897 447.309 171.516 447.467 171.235 447.748C170.953 448.029 170.795 448.411 170.795 448.809C170.795 449.207 170.953 449.588 171.235 449.87C171.516 450.151 171.897 450.309 172.295 450.309H192.295C192.693 450.309 193.075 450.151 193.356 449.87C193.637 449.588 193.795 449.207 193.795 448.809C193.795 448.411 193.637 448.029 193.356 447.748C193.075 447.467 192.693 447.309 192.295 447.309Z" fill="#FF6584"/>
<path d="M187.645 411.309H180.945L182.185 408.309H186.405L187.645 411.309Z" fill="#F2F2F2"/>
<path d="M189.705 416.309H178.885L180.125 413.309H188.465L189.705 416.309Z" fill="#F2F2F2"/>
<path d="M186.485 434.019H178.125L179.705 430.169H184.905L186.485 434.019Z" fill="#F2F2F2"/>
<path d="M189.125 440.449H175.475L177.055 436.599H187.545L189.125 440.449Z" fill="#F2F2F2"/>
<path d="M412.98 364.055C413.135 363.902 413.254 363.718 413.329 363.514C413.404 363.31 413.434 363.092 413.416 362.876C413.398 362.659 413.333 362.45 413.225 362.261C413.117 362.073 412.969 361.91 412.792 361.785L412.042 356.839L408.96 357.809L410.648 362.221C410.458 362.533 410.388 362.905 410.453 363.264C410.518 363.624 410.712 363.948 411 364.174C411.287 364.4 411.648 364.513 412.013 364.491C412.378 364.469 412.722 364.314 412.98 364.055Z" fill="#FFB8B8"/>
<path d="M409.805 361.728L407.904 352.85C407.719 351.999 407.755 351.116 408.01 350.283C408.264 349.451 408.727 348.698 409.356 348.096C411.789 345.751 414.917 342.795 415.997 342.031C417.011 341.308 418.238 340.946 419.482 341.002L419.508 341.005L421.143 342.55L417.581 348.415L412.173 351.803L412.775 360.505L409.805 361.728Z" fill="#6C63FF"/>
<path d="M416.463 349.663H408.485C408.14 349.663 407.86 349.943 407.86 350.289C407.86 350.635 408.14 350.915 408.485 350.915H416.463C416.809 350.915 417.089 350.635 417.089 350.289C417.089 349.943 416.809 349.663 416.463 349.663Z" fill="#CCCCCC"/>
<path d="M416.463 363.272H408.485C408.14 363.272 407.86 363.552 407.86 363.898C407.86 364.243 408.14 364.524 408.485 364.524H416.463C416.809 364.524 417.089 364.243 417.089 363.898C417.089 363.552 416.809 363.272 416.463 363.272Z" fill="#CCCCCC"/>
<path d="M412.552 397.373C412.474 397.372 412.399 397.343 412.341 397.29C412.283 397.238 412.248 397.165 412.241 397.087L408.253 350.317C408.249 350.276 408.253 350.234 408.265 350.195C408.278 350.156 408.297 350.119 408.324 350.088C408.35 350.056 408.383 350.03 408.419 350.011C408.456 349.992 408.495 349.98 408.536 349.977C408.577 349.973 408.619 349.977 408.658 349.99C408.697 350.002 408.734 350.022 408.765 350.049C408.797 350.075 408.823 350.107 408.842 350.144C408.861 350.18 408.872 350.22 408.876 350.261L412.548 393.474L416.115 350.262C416.119 350.221 416.13 350.181 416.149 350.144C416.168 350.108 416.194 350.075 416.225 350.049C416.257 350.022 416.293 350.002 416.333 349.99C416.372 349.977 416.413 349.972 416.454 349.976C416.495 349.98 416.535 349.991 416.572 350.01C416.608 350.029 416.641 350.055 416.667 350.087C416.694 350.118 416.714 350.155 416.726 350.194C416.738 350.233 416.743 350.275 416.739 350.316L412.864 397.087C412.857 397.165 412.822 397.237 412.764 397.29C412.706 397.343 412.631 397.372 412.552 397.373Z" fill="#CCCCCC"/>
<path d="M421.505 339.13C423.772 339.13 425.61 337.293 425.61 335.026C425.61 332.759 423.772 330.922 421.505 330.922C419.238 330.922 417.401 332.759 417.401 335.026C417.401 337.293 419.238 339.13 421.505 339.13Z" fill="#FFB8B8"/>
<path d="M409.273 395.497L407.321 394.875L408.792 387.05L411.673 387.968L409.273 395.497Z" fill="#FFB8B8"/>
<path d="M409.165 397.228L402.881 395.225L402.933 395.062C403.133 394.438 403.572 393.918 404.154 393.617C404.737 393.316 405.415 393.258 406.04 393.457L409.968 394.709L409.165 397.228Z" fill="#2F2E41"/>
<path d="M423.475 395.456H421.426L420.451 387.554H423.475V395.456Z" fill="#FFB8B8"/>
<path d="M417.553 397.281H423.835V394.949H419.869C419.255 394.95 418.667 395.194 418.232 395.628C417.798 396.063 417.554 396.652 417.553 397.266V397.281Z" fill="#2F2E41"/>
<path d="M423.415 392.892L422.723 392.789C421.855 392.737 420.996 392.576 420.167 392.311C419.997 392.237 419.986 391.108 420.088 384.763C420.162 380.106 420.256 374.309 420.075 371.197C420.067 371.075 420.019 370.958 419.937 370.866C419.855 370.774 419.744 370.713 419.623 370.692C419.502 370.67 419.377 370.69 419.269 370.749C419.161 370.807 419.075 370.9 419.026 371.013C417.466 374.616 414.848 382.68 413.115 388.017C412.513 389.873 412.037 391.339 411.736 392.218C411.678 392.384 411.56 392.523 411.405 392.606C411.25 392.69 411.069 392.713 410.898 392.671C409.473 392.315 409.568 392.163 407.537 391.638C407.362 391.593 407.21 391.482 407.115 391.328C407.019 391.174 406.986 390.989 407.024 390.812C407.391 389.08 414.112 360.998 414.627 358.328C414.644 358.237 414.68 358.15 414.731 358.072C414.782 357.994 414.848 357.928 414.925 357.876C415.002 357.824 415.089 357.788 415.18 357.769C415.272 357.751 415.365 357.751 415.457 357.769C416.97 358.074 417.89 358.398 419.386 358.71C420.999 359.048 422.668 359.397 424.295 359.723C424.457 359.755 424.603 359.844 424.705 359.974C425.159 360.459 425.717 360.834 426.337 361.07C426.763 361.274 425.798 361.256 426.169 361.55C427.672 362.74 425.51 386.904 424.204 392.362C424.162 392.532 424.058 392.681 423.912 392.78C423.766 392.878 423.589 392.918 423.415 392.892Z" fill="#2F2E41"/>
<path d="M423.255 338.617C423.015 337.601 424.226 335.413 423.987 334.396C423.824 333.707 422.205 334.175 421.827 333.577C421.652 333.269 421.403 333.009 421.104 332.818C420.804 332.628 420.463 332.514 420.109 332.487C419.296 332.478 418.496 333.081 417.726 332.82C417.544 332.73 417.381 332.604 417.248 332.45C417.115 332.297 417.013 332.118 416.95 331.925C416.886 331.732 416.862 331.528 416.877 331.325C416.893 331.122 416.949 330.924 417.042 330.744C417.455 330.025 418.095 329.463 418.861 329.148C420.069 328.41 421.515 328.167 422.898 328.47C423.689 328.777 424.414 329.232 425.033 329.812C425.654 330.272 426.2 330.826 426.651 331.454C427.033 332.108 427.241 332.851 427.253 333.609C427.265 334.367 427.081 335.115 426.72 335.782C425.972 337.112 424.781 338.138 423.354 338.678" fill="#2F2E41"/>
<path d="M413.177 362.279C413.62 361.539 414.292 358.071 415.121 352.252C415.686 348.279 416.178 344.242 416.422 342.18C416.441 342.013 416.502 341.853 416.6 341.717C416.697 341.58 416.828 341.47 416.979 341.397C417.137 341.321 417.295 341.248 417.451 341.18C419.331 340.32 421.417 340.016 423.464 340.303C425.511 340.591 427.433 341.458 429.002 342.803L429.021 342.82L429.025 342.845C429.034 342.891 429.882 347.459 428.145 350.546C426.433 353.591 426.413 361.656 426.413 361.737V361.841L426.313 361.812C423.649 361.051 413.357 362.383 413.254 362.397L413.094 362.418L413.177 362.279Z" fill="#6C63FF"/>
<path d="M428.664 351.697H420.686C420.341 351.697 420.061 351.977 420.061 352.323C420.061 352.668 420.341 352.948 420.686 352.948H428.664C429.009 352.948 429.29 352.668 429.29 352.323C429.29 351.977 429.009 351.697 428.664 351.697Z" fill="#CCCCCC"/>
<path d="M428.664 365.306H420.686C420.341 365.306 420.061 365.586 420.061 365.931C420.061 366.277 420.341 366.557 420.686 366.557H428.664C429.009 366.557 429.29 366.277 429.29 365.931C429.29 365.586 429.009 365.306 428.664 365.306Z" fill="#CCCCCC"/>
<path d="M424.753 397.529C424.675 397.529 424.6 397.5 424.542 397.447C424.485 397.394 424.449 397.322 424.442 397.244L420.454 352.35C420.446 352.268 420.472 352.185 420.525 352.122C420.579 352.058 420.655 352.018 420.738 352.011C420.82 352.004 420.902 352.029 420.966 352.083C421.03 352.136 421.07 352.212 421.077 352.295L424.749 393.63L428.317 352.296C428.32 352.255 428.331 352.215 428.35 352.178C428.369 352.141 428.395 352.109 428.427 352.082C428.458 352.056 428.494 352.036 428.534 352.023C428.573 352.011 428.614 352.006 428.655 352.01C428.696 352.013 428.736 352.025 428.773 352.044C428.809 352.063 428.842 352.089 428.868 352.12C428.895 352.152 428.915 352.188 428.927 352.228C428.939 352.267 428.944 352.308 428.94 352.349L425.065 397.243C425.058 397.321 425.023 397.394 424.965 397.447C424.907 397.5 424.832 397.529 424.753 397.529Z" fill="#CCCCCC"/>
<path d="M422.177 365.504C422.131 365.292 422.131 365.072 422.179 364.86C422.226 364.648 422.32 364.449 422.452 364.277C422.585 364.105 422.754 363.964 422.947 363.865C423.14 363.765 423.352 363.709 423.569 363.7L426.886 359.956L428.946 362.445L425.131 365.232C425.122 365.597 424.979 365.946 424.729 366.213C424.479 366.48 424.139 366.646 423.775 366.68C423.411 366.713 423.047 366.612 422.753 366.395C422.458 366.179 422.254 365.861 422.177 365.504Z" fill="#FFB8B8"/>
<path d="M424.109 362.898L429.342 355.92L426.644 350.137L426.84 343.278L429.052 342.869L429.076 342.881C430.15 343.51 430.984 344.48 431.442 345.638C431.933 346.867 432.953 351.047 433.721 354.338C433.922 355.185 433.902 356.069 433.663 356.906C433.424 357.743 432.975 358.505 432.357 359.118L425.937 365.538L424.109 362.898Z" fill="#6C63FF"/>
<path d="M402.171 395.589L409.331 397.312C409.469 397.349 409.617 397.336 409.747 397.275C409.877 397.215 409.982 397.11 410.043 396.98L416.194 380.627C416.221 380.564 416.235 380.496 416.235 380.428C416.235 380.359 416.221 380.292 416.194 380.229C416.163 380.158 416.118 380.095 416.062 380.042C416.005 379.989 415.939 379.948 415.866 379.922L410.483 377.866C410.398 377.834 410.307 377.819 410.216 377.824C410.125 377.829 410.036 377.854 409.955 377.895C409.885 377.93 409.823 377.98 409.773 378.04C409.724 378.101 409.688 378.172 409.667 378.248L405.868 392.661L405.811 392.665C404.632 392.734 403.511 393.201 402.632 393.99C402.449 394.21 402.314 394.466 402.234 394.741C402.155 395.016 402.133 395.305 402.171 395.589Z" fill="#CCCCCC"/>
<path d="M407.356 386.422L407.323 386.733L413.851 387.424L413.884 387.113L407.356 386.422Z" fill="#B3B3B3"/>
<path d="M406.787 388.999L406.658 389.284L411.912 391.648L412.04 391.362L406.787 388.999Z" fill="#B3B3B3"/>
<path d="M414.571 384.922L408.379 382.871L408.508 382.586L414.699 384.636L414.571 384.922Z" fill="#B3B3B3"/>
<path d="M415.197 383.514L409.005 380.525L409.133 380.239L415.325 383.228L415.197 383.514Z" fill="#B3B3B3"/>
<path d="M406.241 391.448L406.038 391.686L410.502 395.5L410.705 395.262L406.241 391.448Z" fill="#B3B3B3"/>
<path d="M404.973 392.713L404.688 392.842L406.481 396.795L406.766 396.666L404.973 392.713Z" fill="#B3B3B3"/>
<path d="M579.472 365.365C579.206 365.303 578.958 365.184 578.743 365.016C578.529 364.848 578.354 364.635 578.231 364.392C578.108 364.149 578.04 363.882 578.031 363.61C578.022 363.338 578.073 363.067 578.18 362.816L571.312 347.299L575.241 346.31L580.757 361.874C581.166 362.082 581.484 362.432 581.651 362.859C581.818 363.286 581.823 363.76 581.665 364.19C581.506 364.62 581.196 364.978 580.791 365.194C580.387 365.411 579.918 365.471 579.472 365.365Z" fill="#A0616A"/>
<path d="M572.587 352.161C572.477 352.112 572.38 352.04 572.3 351.95C572.221 351.86 572.163 351.753 572.128 351.638L570.927 347.621C570.665 347.065 570.634 346.427 570.842 345.848C571.05 345.269 571.479 344.796 572.036 344.533C572.592 344.271 573.23 344.24 573.809 344.448C574.389 344.656 574.861 345.085 575.124 345.642L577.446 349.149C577.512 349.249 577.556 349.362 577.575 349.481C577.594 349.6 577.586 349.721 577.554 349.836C577.521 349.952 577.464 350.059 577.387 350.151C577.309 350.242 577.213 350.316 577.104 350.367L573.283 352.155C573.174 352.206 573.055 352.233 572.935 352.234C572.815 352.235 572.696 352.21 572.587 352.161Z" fill="#6C63FF"/>
<path d="M586.568 350.16L582.355 353.143C582.301 353.182 582.236 353.203 582.17 353.203C582.103 353.203 582.038 353.182 581.984 353.143L580.846 352.288C580.808 352.26 580.777 352.224 580.755 352.183C580.733 352.142 580.72 352.096 580.718 352.049C580.716 352.002 580.725 351.955 580.743 351.912C580.762 351.869 580.79 351.831 580.825 351.8L584.067 348.909C584.11 348.872 584.161 348.847 584.217 348.836C584.272 348.825 584.33 348.83 584.383 348.848L586.493 349.603C586.547 349.623 586.595 349.657 586.631 349.702C586.667 349.748 586.69 349.802 586.698 349.859C586.706 349.916 586.698 349.974 586.675 350.027C586.652 350.081 586.615 350.126 586.568 350.16Z" fill="#3F3D56"/>
<path d="M586.225 349.877C586.235 349.849 586.234 349.819 586.222 349.791C586.21 349.764 586.187 349.743 586.16 349.732L584.26 349.052C584.241 349.046 584.22 349.044 584.201 349.048C584.181 349.051 584.162 349.06 584.147 349.073L581.223 351.681L581.207 351.698C581.199 351.71 581.193 351.723 581.189 351.737C581.186 351.751 581.186 351.765 581.188 351.779C581.19 351.794 581.195 351.807 581.203 351.819C581.211 351.831 581.221 351.842 581.232 351.85L582.256 352.619C582.275 352.633 582.299 352.64 582.323 352.64C582.346 352.64 582.37 352.632 582.389 352.618L586.185 349.93C586.204 349.917 586.217 349.898 586.225 349.877Z" fill="white"/>
<path d="M571.214 394.628H573.34L574.352 386.427H571.214V394.628Z" fill="#A0616A"/>
<path d="M570.672 393.934L574.859 393.934C575.209 393.934 575.556 394.003 575.88 394.137C576.204 394.271 576.498 394.467 576.746 394.715C576.994 394.963 577.19 395.257 577.324 395.581C577.459 395.905 577.528 396.252 577.528 396.602V396.689L570.672 396.689L570.672 393.934Z" fill="#2F2E41"/>
<path d="M564.103 394.628H566.23L567.241 386.427H564.103V394.628Z" fill="#A0616A"/>
<path d="M563.561 393.934L567.748 393.934C568.099 393.934 568.446 394.003 568.77 394.137C569.093 394.271 569.388 394.467 569.635 394.715C569.883 394.963 570.08 395.257 570.214 395.581C570.348 395.905 570.417 396.252 570.417 396.602V396.689L563.561 396.689L563.561 393.934Z" fill="#2F2E41"/>
<path d="M563.652 392.122C563.506 391.955 563.425 391.742 563.422 391.52C562.915 386.306 564.294 358.895 567.481 356.554L567.5 356.535L576.827 354.925L577.001 355.098C577.014 355.34 578.71 379.367 574.027 391.629C573.97 391.775 573.87 391.901 573.74 391.99C573.61 392.078 573.457 392.125 573.3 392.125H571.438C571.33 392.125 571.224 392.103 571.125 392.06C571.027 392.017 570.938 391.954 570.865 391.875C570.792 391.796 570.736 391.702 570.701 391.601C570.665 391.499 570.652 391.391 570.66 391.284L572.167 368.323C572.173 368.257 572.153 368.192 572.112 368.14C572.071 368.089 572.011 368.055 571.946 368.045C571.881 368.035 571.814 368.051 571.76 368.088C571.706 368.126 571.668 368.183 571.654 368.247L567.408 391.551C567.372 391.715 567.284 391.863 567.157 391.973C567.03 392.084 566.871 392.15 566.704 392.163L564.258 392.344C564.239 392.346 564.22 392.346 564.201 392.346C563.995 392.346 563.798 392.266 563.652 392.122Z" fill="#2F2E41"/>
<path d="M575.925 340.869C578.277 340.869 580.184 338.962 580.184 336.61C580.184 334.257 578.277 332.35 575.925 332.35C573.572 332.35 571.665 334.257 571.665 336.61C571.665 338.962 573.572 340.869 575.925 340.869Z" fill="#A0616A"/>
<path d="M565.665 360.285C565.485 360.101 565.382 359.856 565.376 359.6L567.115 351.456C565.728 345.56 567.575 344.454 569.66 343.337L569.646 343.33L570.517 340.974C570.545 340.869 570.595 340.771 570.664 340.688C570.734 340.605 570.821 340.538 570.92 340.493C571.018 340.447 571.125 340.424 571.234 340.425C571.342 340.426 571.449 340.45 571.547 340.497L575.986 342.856C576.186 342.968 576.334 343.154 576.398 343.374C576.473 343.608 576.468 343.86 576.384 344.09L576.056 344.978C576.904 346.11 578.215 350.589 576.827 352.323L577.874 358.103C577.897 358.316 577.844 358.529 577.726 358.707C577.607 358.885 577.429 359.015 577.224 359.076L566.285 360.479C566.242 360.488 566.199 360.492 566.156 360.492C565.971 360.49 565.795 360.415 565.665 360.285Z" fill="#6C63FF"/>
<path d="M581.591 350.945C581.521 351.011 581.456 351.082 581.397 351.158L572.817 350.565L571.896 348.689L568.884 349.708L570.191 353.188C570.296 353.469 570.49 353.708 570.743 353.869C570.997 354.031 571.295 354.106 571.595 354.083L581.352 353.343C581.568 353.643 581.87 353.87 582.218 353.994C582.567 354.118 582.944 354.134 583.301 354.038C583.658 353.942 583.978 353.739 584.217 353.458C584.456 353.176 584.604 352.828 584.641 352.46C584.677 352.092 584.601 351.722 584.422 351.398C584.243 351.075 583.97 350.813 583.639 350.649C583.308 350.484 582.934 350.425 582.569 350.478C582.203 350.531 581.862 350.694 581.591 350.945Z" fill="#A0616A"/>
<path d="M572.497 350.595L568.757 351.84C568.651 351.875 568.538 351.887 568.426 351.875C568.315 351.863 568.207 351.827 568.111 351.77C568.015 351.712 567.932 351.635 567.868 351.543C567.804 351.45 567.761 351.345 567.742 351.235L567.06 347.365C566.882 346.819 566.927 346.225 567.186 345.713C567.445 345.201 567.897 344.812 568.442 344.633C568.987 344.453 569.581 344.497 570.094 344.755C570.607 345.012 570.996 345.463 571.177 346.008L572.947 349.502C572.997 349.602 573.026 349.712 573.03 349.824C573.035 349.936 573.015 350.048 572.972 350.152C572.929 350.255 572.865 350.348 572.783 350.425C572.701 350.502 572.603 350.559 572.497 350.595Z" fill="#6C63FF"/>
<path d="M573.532 333.246C575.448 333.246 577.001 331.693 577.001 329.777C577.001 327.862 575.448 326.309 573.532 326.309C571.616 326.309 570.063 327.862 570.063 329.777C570.063 331.693 571.616 333.246 573.532 333.246Z" fill="#2F2E41"/>
<path d="M579.957 337.136C580.293 337.203 580.641 337.174 580.961 337.052C581.124 336.96 581.263 336.83 581.367 336.674C581.47 336.517 581.536 336.339 581.557 336.153C582.203 331.859 578.552 332.212 578.12 332.026C577.848 331.866 577.592 331.679 577.357 331.469C576.749 331.131 576.055 330.979 575.362 331.03C574.542 330.954 573.715 331.055 572.938 331.326C572.26 331.644 571.698 332.162 571.326 332.811C570.959 333.458 570.69 334.155 570.527 334.881C570.272 335.702 570.225 336.574 570.392 337.418C570.569 338.048 570.939 338.606 571.449 339.016C571.96 339.425 572.586 339.664 573.239 339.7C573.134 339.195 573.199 338.669 573.423 338.205C573.647 337.74 574.018 337.362 574.478 337.129C575.21 336.769 576.043 336.67 576.84 336.848C577.356 336.952 577.88 337.018 578.406 337.043C578.922 337.062 579.542 337.092 579.957 337.136Z" fill="#2F2E41"/>
<path d="M913.32 395.474C913.323 390.924 915.133 386.561 918.352 383.345C921.571 380.129 925.935 378.322 930.485 378.322C935.035 378.322 939.4 380.129 942.618 383.345C945.837 386.561 947.647 390.924 947.651 395.474" fill="#F2F2F2"/>
<path d="M930.485 395.474C930.362 395.474 930.244 395.425 930.157 395.338C930.07 395.251 930.021 395.133 930.021 395.01V385.964C930.021 385.841 930.07 385.723 930.157 385.636C930.244 385.549 930.362 385.5 930.485 385.5C930.608 385.5 930.726 385.549 930.813 385.636C930.9 385.723 930.949 385.841 930.949 385.964V395.01C930.949 395.133 930.9 395.251 930.813 395.338C930.726 395.425 930.608 395.474 930.485 395.474Z" fill="#CCCCCC"/>
<path d="M930.485 392.366C930.374 392.366 930.267 392.326 930.183 392.254L924.616 387.476C924.569 387.436 924.53 387.388 924.502 387.333C924.474 387.279 924.457 387.219 924.452 387.158C924.448 387.097 924.455 387.036 924.474 386.977C924.493 386.919 924.523 386.865 924.563 386.819C924.603 386.772 924.651 386.734 924.706 386.707C924.761 386.679 924.821 386.663 924.882 386.658C924.943 386.654 925.004 386.662 925.062 386.681C925.12 386.7 925.174 386.731 925.22 386.772L930.787 391.55C930.859 391.611 930.911 391.694 930.934 391.786C930.958 391.877 930.953 391.974 930.92 392.063C930.887 392.152 930.828 392.229 930.75 392.283C930.672 392.337 930.58 392.366 930.485 392.366Z" fill="#CCCCCC"/>
<path d="M966.208 395.474C966.211 390.924 968.021 386.561 971.24 383.345C974.459 380.129 978.823 378.322 983.373 378.322C987.923 378.322 992.287 380.129 995.506 383.345C998.725 386.561 1000.53 390.924 1000.54 395.474" fill="#F2F2F2"/>
<path d="M983.373 395.474C983.25 395.474 983.132 395.425 983.045 395.338C982.958 395.251 982.909 395.133 982.909 395.01V385.964C982.909 385.841 982.958 385.723 983.045 385.636C983.132 385.549 983.25 385.5 983.373 385.5C983.496 385.5 983.614 385.549 983.701 385.636C983.788 385.723 983.837 385.841 983.837 385.964V395.01C983.837 395.133 983.788 395.251 983.701 395.338C983.614 395.425 983.496 395.474 983.373 395.474Z" fill="#CCCCCC"/>
<path d="M983.373 392.366C983.262 392.366 983.155 392.326 983.071 392.254L977.504 387.476C977.457 387.436 977.418 387.388 977.39 387.333C977.362 387.279 977.345 387.219 977.34 387.158C977.335 387.097 977.342 387.036 977.361 386.977C977.38 386.919 977.411 386.865 977.45 386.818C977.49 386.772 977.539 386.734 977.594 386.706C977.649 386.679 977.708 386.662 977.77 386.658C977.831 386.654 977.892 386.661 977.95 386.681C978.008 386.7 978.062 386.731 978.108 386.772L983.675 391.55C983.747 391.611 983.799 391.694 983.822 391.786C983.846 391.877 983.841 391.974 983.808 392.063C983.775 392.152 983.716 392.229 983.638 392.283C983.56 392.337 983.468 392.366 983.373 392.366Z" fill="#CCCCCC"/>
</g>
<defs>
<clipPath id="clip0_61_41">
<rect width="1047.8" height="450.309" fill="white"/>
</clipPath>
</defs>
</svg>
