<svg xmlns="http://www.w3.org/2000/svg" version="1.1" xmlns:xlink="http://www.w3.org/1999/xlink" xmlns:svgjs="http://svgjs.dev/svgjs" viewBox="0 0 800 800" width="800" height="800"><g stroke-width="3.5" stroke="hsla(0, 0%, 90%, 1.00)" fill="none"><line x1="133.33333333333334" y1="0" x2="0" y2="133.33333333333334"></line><line x1="266.6666666666667" y1="0" x2="133.33333333333334" y2="133.33333333333334"></line><line x1="400" y1="0" x2="266.6666666666667" y2="133.33333333333334"></line><line x1="533.3333333333334" y1="0" x2="400" y2="133.33333333333334"></line><line x1="666.6666666666667" y1="0" x2="533.3333333333334" y2="133.33333333333334"></line><line x1="800.0000000000001" y1="0" x2="666.6666666666667" y2="133.33333333333334"></line><line x1="933.3333333333335" y1="0" x2="800.0000000000001" y2="133.33333333333334"></line><line x1="133.33333333333334" y1="114.28571428571429" x2="0" y2="247.61904761904765"></line><line x1="266.6666666666667" y1="114.28571428571429" x2="133.33333333333334" y2="247.61904761904765"></line><line x1="400" y1="114.28571428571429" x2="266.6666666666667" y2="247.61904761904765"></line><line x1="533.3333333333334" y1="114.28571428571429" x2="400" y2="247.61904761904765"></line><line x1="666.6666666666667" y1="114.28571428571429" x2="533.3333333333334" y2="247.61904761904765"></line><line x1="800.0000000000001" y1="114.28571428571429" x2="666.6666666666667" y2="247.61904761904765"></line><line x1="933.3333333333335" y1="114.28571428571429" x2="800.0000000000001" y2="247.61904761904765"></line><line x1="133.33333333333334" y1="228.57142857142858" x2="0" y2="361.9047619047619"></line><line x1="266.6666666666667" y1="228.57142857142858" x2="133.33333333333334" y2="361.9047619047619"></line><line x1="400" y1="228.57142857142858" x2="266.6666666666667" y2="361.9047619047619"></line><line x1="533.3333333333334" y1="228.57142857142858" x2="400" y2="361.9047619047619"></line><line x1="666.6666666666667" y1="228.57142857142858" x2="533.3333333333334" y2="361.9047619047619"></line><line x1="800.0000000000001" y1="228.57142857142858" x2="666.6666666666667" y2="361.9047619047619"></line><line x1="933.3333333333335" y1="228.57142857142858" x2="800.0000000000001" y2="361.9047619047619"></line><line x1="133.33333333333334" y1="342.8571428571429" x2="0" y2="476.19047619047626"></line><line x1="266.6666666666667" y1="342.8571428571429" x2="133.33333333333334" y2="476.19047619047626"></line><line x1="400" y1="342.8571428571429" x2="266.6666666666667" y2="476.19047619047626"></line><line x1="533.3333333333334" y1="342.8571428571429" x2="400" y2="476.19047619047626"></line><line x1="666.6666666666667" y1="342.8571428571429" x2="533.3333333333334" y2="476.19047619047626"></line><line x1="800.0000000000001" y1="342.8571428571429" x2="666.6666666666667" y2="476.19047619047626"></line><line x1="933.3333333333335" y1="342.8571428571429" x2="800.0000000000001" y2="476.19047619047626"></line><line x1="133.33333333333334" y1="457.14285714285717" x2="0" y2="590.4761904761905"></line><line x1="266.6666666666667" y1="457.14285714285717" x2="133.33333333333334" y2="590.4761904761905"></line><line x1="400" y1="457.14285714285717" x2="266.6666666666667" y2="590.4761904761905"></line><line x1="533.3333333333334" y1="457.14285714285717" x2="400" y2="590.4761904761905"></line><line x1="666.6666666666667" y1="457.14285714285717" x2="533.3333333333334" y2="590.4761904761905"></line><line x1="800.0000000000001" y1="457.14285714285717" x2="666.6666666666667" y2="590.4761904761905"></line><line x1="933.3333333333335" y1="457.14285714285717" x2="800.0000000000001" y2="590.4761904761905"></line><line x1="133.33333333333334" y1="571.4285714285714" x2="0" y2="704.7619047619048"></line><line x1="266.6666666666667" y1="571.4285714285714" x2="133.33333333333334" y2="704.7619047619048"></line><line x1="400" y1="571.4285714285714" x2="266.6666666666667" y2="704.7619047619048"></line><line x1="533.3333333333334" y1="571.4285714285714" x2="400" y2="704.7619047619048"></line><line x1="666.6666666666667" y1="571.4285714285714" x2="533.3333333333334" y2="704.7619047619048"></line><line x1="800.0000000000001" y1="571.4285714285714" x2="666.6666666666667" y2="704.7619047619048"></line><line x1="933.3333333333335" y1="571.4285714285714" x2="800.0000000000001" y2="704.7619047619048"></line><line x1="133.33333333333334" y1="685.7142857142858" x2="0" y2="819.0476190476192"></line><line x1="266.6666666666667" y1="685.7142857142858" x2="133.33333333333334" y2="819.0476190476192"></line><line x1="400" y1="685.7142857142858" x2="266.6666666666667" y2="819.0476190476192"></line><line x1="533.3333333333334" y1="685.7142857142858" x2="400" y2="819.0476190476192"></line><line x1="666.6666666666667" y1="685.7142857142858" x2="533.3333333333334" y2="819.0476190476192"></line><line x1="800.0000000000001" y1="685.7142857142858" x2="666.6666666666667" y2="819.0476190476192"></line><line x1="933.3333333333335" y1="685.7142857142858" x2="800.0000000000001" y2="819.0476190476192"></line><line x1="133.33333333333334" y1="800.0000000000001" x2="0" y2="933.3333333333335"></line><line x1="266.6666666666667" y1="800.0000000000001" x2="133.33333333333334" y2="933.3333333333335"></line><line x1="400" y1="800.0000000000001" x2="266.6666666666667" y2="933.3333333333335"></line><line x1="533.3333333333334" y1="800.0000000000001" x2="400" y2="933.3333333333335"></line><line x1="666.6666666666667" y1="800.0000000000001" x2="533.3333333333334" y2="933.3333333333335"></line><line x1="800.0000000000001" y1="800.0000000000001" x2="666.6666666666667" y2="933.3333333333335"></line><line x1="933.3333333333335" y1="800.0000000000001" x2="800.0000000000001" y2="933.3333333333335"></line></g></svg>