<svg width="1048" height="256" viewBox="0 0 1048 256" fill="none" xmlns="http://www.w3.org/2000/svg">
<g clip-path="url(#clip0_27_2)">
<path d="M29.3198 253.474C29.3233 248.924 31.1333 244.561 34.3521 241.345C37.5708 238.128 41.9349 236.322 46.4852 236.322C51.0355 236.322 55.3995 238.128 58.6183 241.345C61.837 244.561 63.6471 248.924 63.6505 253.474" fill="#F2F2F2"/>
<path d="M46.4852 253.474C46.3621 253.474 46.2441 253.426 46.1572 253.339C46.0702 253.252 46.0213 253.134 46.0212 253.01V243.964C46.0212 243.841 46.0701 243.723 46.1571 243.636C46.2441 243.549 46.3621 243.5 46.4852 243.5C46.6082 243.5 46.7262 243.549 46.8132 243.636C46.9002 243.723 46.9491 243.841 46.9491 243.964V253.01C46.9491 253.134 46.9002 253.252 46.8132 253.339C46.7262 253.426 46.6082 253.474 46.4852 253.474Z" fill="#CCCCCC"/>
<path d="M46.485 250.365C46.3742 250.366 46.267 250.326 46.183 250.254L40.616 245.475C40.5691 245.436 40.5305 245.387 40.5025 245.333C40.4745 245.279 40.4575 245.219 40.4526 245.158C40.4476 245.097 40.4548 245.035 40.4738 244.977C40.4927 244.919 40.523 244.865 40.563 244.819C40.6029 244.772 40.6516 244.734 40.7063 244.706C40.761 244.679 40.8207 244.662 40.8818 244.658C40.9429 244.654 41.0043 244.661 41.0624 244.681C41.1205 244.7 41.1741 244.731 41.2203 244.771L46.7874 249.549C46.8594 249.611 46.9106 249.694 46.9344 249.785C46.9582 249.877 46.9532 249.974 46.9203 250.063C46.8874 250.152 46.828 250.228 46.7502 250.282C46.6723 250.337 46.5798 250.365 46.485 250.365Z" fill="#CCCCCC"/>
<path d="M82.2078 253.474C82.2112 248.924 84.0213 244.561 87.24 241.345C90.4588 238.128 94.8228 236.322 99.3731 236.322C103.923 236.322 108.287 238.128 111.506 241.345C114.725 244.561 116.535 248.924 116.538 253.474" fill="#F2F2F2"/>
<path d="M99.3731 253.474C99.2501 253.474 99.1321 253.426 99.0451 253.339C98.9581 253.252 98.9092 253.134 98.9092 253.01V243.964C98.9092 243.841 98.9581 243.723 99.0451 243.636C99.1321 243.549 99.2501 243.5 99.3731 243.5C99.4961 243.5 99.6142 243.549 99.7012 243.636C99.7882 243.723 99.837 243.841 99.837 243.964V253.01C99.837 253.134 99.7881 253.252 99.7011 253.339C99.6141 253.426 99.4961 253.474 99.3731 253.474Z" fill="#CCCCCC"/>
<path d="M99.3728 250.366C99.262 250.366 99.1548 250.326 99.0708 250.254L93.5037 245.476C93.4568 245.436 93.4182 245.388 93.3901 245.333C93.362 245.279 93.345 245.219 93.34 245.158C93.3351 245.097 93.3423 245.036 93.3612 244.977C93.3802 244.919 93.4105 244.865 93.4504 244.818C93.4904 244.772 93.5391 244.734 93.5939 244.706C93.6486 244.679 93.7083 244.662 93.7695 244.658C93.8306 244.654 93.892 244.661 93.9502 244.681C94.0083 244.7 94.0619 244.731 94.1081 244.772L99.6752 249.55C99.7471 249.611 99.7985 249.694 99.8222 249.786C99.846 249.877 99.841 249.974 99.8081 250.063C99.7752 250.152 99.7158 250.229 99.6379 250.283C99.5601 250.337 99.4676 250.366 99.3728 250.366Z" fill="#CCCCCC"/>
<path d="M521.783 225.679C522.049 225.679 522.303 225.573 522.491 225.386C522.678 225.198 522.783 224.944 522.783 224.679C522.783 224.413 522.678 224.159 522.491 223.972C522.303 223.784 522.049 223.679 521.783 223.679H512.283V219.679H521.783C522.049 219.679 522.303 219.573 522.491 219.386C522.678 219.198 522.783 218.944 522.783 218.679C522.783 218.413 522.678 218.159 522.491 217.972C522.303 217.784 522.049 217.679 521.783 217.679H440.783C440.518 217.679 440.264 217.784 440.076 217.972C439.889 218.159 439.783 218.413 439.783 218.679C439.783 218.944 439.889 219.198 440.076 219.386C440.264 219.573 440.518 219.679 440.783 219.679H450.283V223.679H440.783C440.518 223.679 440.264 223.784 440.076 223.972C439.889 224.159 439.783 224.413 439.783 224.679C439.783 224.944 439.889 225.198 440.076 225.386C440.264 225.573 440.518 225.679 440.783 225.679H450.283V229.679H440.783C440.518 229.679 440.264 229.784 440.076 229.972C439.889 230.159 439.783 230.413 439.783 230.679C439.783 230.944 439.889 231.198 440.076 231.386C440.264 231.573 440.518 231.679 440.783 231.679H450.283V235.679H441.783C441.253 235.679 440.744 235.889 440.369 236.265C439.994 236.64 439.783 237.148 439.783 237.679C439.783 238.209 439.994 238.718 440.369 239.093C440.744 239.468 441.253 239.679 441.783 239.679H449.875C449.816 239.839 449.785 240.008 449.783 240.179V254.179C449.783 254.577 449.942 254.958 450.223 255.239C450.504 255.521 450.886 255.679 451.283 255.679C451.681 255.679 452.063 255.521 452.344 255.239C452.625 254.958 452.783 254.577 452.783 254.179V240.179C452.782 240.008 452.751 239.839 452.692 239.679H509.875C509.816 239.839 509.785 240.008 509.783 240.179V254.179C509.783 254.577 509.942 254.958 510.223 255.239C510.504 255.521 510.886 255.679 511.283 255.679C511.681 255.679 512.063 255.521 512.344 255.239C512.625 254.958 512.783 254.577 512.783 254.179V240.179C512.782 240.008 512.751 239.839 512.692 239.679H520.783C521.314 239.679 521.823 239.468 522.198 239.093C522.573 238.718 522.783 238.209 522.783 237.679C522.783 237.148 522.573 236.64 522.198 236.265C521.823 235.889 521.314 235.679 520.783 235.679H512.283V231.679H521.783C522.049 231.679 522.303 231.573 522.491 231.386C522.678 231.198 522.783 230.944 522.783 230.679C522.783 230.413 522.678 230.159 522.491 229.972C522.303 229.784 522.049 229.679 521.783 229.679H512.283V225.679H521.783ZM452.283 219.679H510.283V223.679H452.283V219.679ZM510.283 235.679H452.283V231.679H510.283V235.679ZM510.283 229.679H452.283V225.679H510.283V229.679Z" fill="#3F3D56"/>
<path d="M216.795 183.708C216.795 166.046 202.468 124.137 184.795 124.137C167.122 124.137 152.795 166.046 152.795 183.708C152.795 192.194 156.167 200.334 162.168 206.335C168.169 212.336 176.308 215.708 184.795 215.708C193.282 215.708 201.422 212.336 207.423 206.335C213.424 200.334 216.795 192.194 216.795 183.708Z" fill="#E6E6E6"/>
<path d="M208.795 183.708C208.795 166.046 194.468 124.137 176.795 124.137C159.122 124.137 144.795 166.046 144.795 183.708C144.795 192.194 148.167 200.334 154.168 206.335C160.169 212.336 168.308 215.708 176.795 215.708C185.282 215.708 193.422 212.336 199.423 206.335C205.424 200.334 208.795 192.194 208.795 183.708Z" fill="#F2F2F2"/>
<path d="M177.795 255.258C177.53 255.258 177.276 255.152 177.088 254.965C176.901 254.777 176.795 254.523 176.795 254.258V165.117C176.795 164.852 176.901 164.598 177.088 164.41C177.276 164.223 177.53 164.117 177.795 164.117C178.061 164.117 178.315 164.223 178.502 164.41C178.69 164.598 178.795 164.852 178.795 165.117V254.258C178.795 254.523 178.69 254.777 178.502 254.965C178.315 255.152 178.061 255.258 177.795 255.258Z" fill="#CCCCCC"/>
<path d="M177.795 179.73C177.598 179.73 177.404 179.672 177.24 179.562C177.075 179.452 176.947 179.296 176.872 179.113C176.796 178.93 176.776 178.729 176.815 178.535C176.853 178.341 176.949 178.163 177.088 178.023L190.166 164.945C190.353 164.758 190.608 164.652 190.873 164.652C191.138 164.652 191.393 164.758 191.58 164.945C191.768 165.133 191.873 165.387 191.873 165.652C191.873 165.917 191.768 166.172 191.58 166.359L178.502 179.437C178.41 179.53 178.299 179.604 178.178 179.654C178.057 179.705 177.927 179.731 177.795 179.73Z" fill="#CCCCCC"/>
<path d="M545.795 255.258C545.53 255.258 545.276 255.152 545.088 254.965C544.901 254.777 544.795 254.523 544.795 254.258V165.117C544.795 164.852 544.901 164.598 545.088 164.41C545.276 164.223 545.53 164.117 545.795 164.117C546.061 164.117 546.315 164.223 546.502 164.41C546.69 164.598 546.795 164.852 546.795 165.117V254.258C546.795 254.523 546.69 254.777 546.502 254.965C546.315 255.152 546.061 255.258 545.795 255.258Z" fill="#3F3D56"/>
<path d="M652.795 183.708C652.795 166.046 638.468 124.137 620.795 124.137C603.122 124.137 588.795 166.046 588.795 183.708C588.795 192.194 592.167 200.334 598.168 206.335C604.169 212.336 612.308 215.708 620.795 215.708C629.282 215.708 637.422 212.336 643.423 206.335C649.424 200.334 652.795 192.194 652.795 183.708Z" fill="#E6E6E6"/>
<path d="M644.795 183.708C644.795 166.046 630.468 124.137 612.795 124.137C595.122 124.137 580.795 166.046 580.795 183.708C580.795 192.194 584.167 200.334 590.168 206.335C596.169 212.336 604.308 215.708 612.795 215.708C621.282 215.708 629.422 212.336 635.423 206.335C641.424 200.334 644.795 192.194 644.795 183.708Z" fill="#F2F2F2"/>
<path d="M613.795 255.258C613.53 255.258 613.276 255.152 613.088 254.965C612.901 254.777 612.795 254.523 612.795 254.258V165.117C612.795 164.852 612.901 164.598 613.088 164.41C613.276 164.223 613.53 164.117 613.795 164.117C614.061 164.117 614.315 164.223 614.502 164.41C614.69 164.598 614.795 164.852 614.795 165.117V254.258C614.795 254.523 614.69 254.777 614.502 254.965C614.315 255.152 614.061 255.258 613.795 255.258Z" fill="#CCCCCC"/>
<path d="M613.795 179.73C613.597 179.73 613.404 179.672 613.24 179.562C613.075 179.452 612.947 179.296 612.872 179.113C612.796 178.93 612.776 178.729 612.815 178.535C612.853 178.341 612.948 178.163 613.088 178.023L626.166 164.945C626.353 164.758 626.608 164.652 626.873 164.652C627.138 164.652 627.392 164.758 627.58 164.945C627.767 165.133 627.873 165.387 627.873 165.652C627.873 165.917 627.767 166.172 627.58 166.359L614.502 179.437C614.41 179.53 614.299 179.604 614.178 179.654C614.057 179.705 613.927 179.731 613.795 179.73Z" fill="#CCCCCC"/>
<path d="M283.795 46H267.795C266.602 45.9987 265.458 45.5241 264.615 44.6805C263.771 43.8369 263.297 42.6931 263.295 41.5V4.5C263.297 3.30693 263.771 2.16312 264.615 1.31949C265.458 0.475862 266.602 0.00132343 267.795 0H283.795C284.988 0.00132343 286.132 0.475862 286.976 1.31949C287.819 2.16312 288.294 3.30693 288.295 4.5V41.5C288.294 42.6931 287.819 43.8369 286.976 44.6805C286.132 45.5241 284.988 45.9987 283.795 46Z" fill="#E6E6E6"/>
<path d="M346.5 255H264.5C262.246 254.998 260.086 254.46 258.492 253.503C256.899 252.546 256.003 251.249 256 249.895V51.1049C256.003 49.7515 256.899 48.4539 258.492 47.4969C260.086 46.5399 262.246 46.0015 264.5 46H346.5C348.754 46.0015 350.914 46.5398 352.508 47.4969C354.101 48.4539 354.997 49.7514 355 51.1049V249.895C354.997 251.249 354.101 252.546 352.508 253.503C350.914 254.46 348.754 254.998 346.5 255Z" fill="#E6E6E6"/>
<path d="M297.5 255H215.5C213.246 254.998 211.086 254.46 209.492 253.503C207.899 252.546 207.003 251.249 207 249.895V51.1049C207.003 49.7515 207.899 48.4539 209.492 47.4969C211.086 46.5399 213.246 46.0015 215.5 46H297.5C299.754 46.0015 301.914 46.5399 303.508 47.4969C305.101 48.4539 305.997 49.7515 306 51.1049V249.895C305.997 251.249 305.101 252.546 303.508 253.503C301.914 254.46 299.754 254.998 297.5 255Z" fill="#F2F2F2"/>
<path d="M268.795 46H252.795C251.602 45.9987 250.458 45.5241 249.615 44.6805C248.771 43.8369 248.297 42.6931 248.295 41.5V4.5C248.297 3.30693 248.771 2.16312 249.615 1.31949C250.458 0.475862 251.602 0.00132343 252.795 0H268.795C269.988 0.00132343 271.132 0.475862 271.976 1.31949C272.819 2.16312 273.294 3.30693 273.295 4.5V41.5C273.294 42.6931 272.819 43.8369 271.976 44.6805C271.132 45.5241 269.988 45.9987 268.795 46Z" fill="#F2F2F2"/>
<path d="M247.795 87.8091H228.795C228.132 87.8083 227.497 87.5447 227.028 87.076C226.56 86.6073 226.296 85.9719 226.295 85.3091V56.3091C226.296 55.6463 226.56 55.0108 227.028 54.5421C227.497 54.0735 228.132 53.8098 228.795 53.8091H247.795C248.458 53.8098 249.094 54.0735 249.562 54.5421C250.031 55.0108 250.295 55.6463 250.295 56.3091V85.3091C250.295 85.9719 250.031 86.6073 249.562 87.076C249.094 87.5447 248.458 87.8083 247.795 87.8091Z" fill="white"/>
<path d="M284.795 87.8091H265.795C265.132 87.8083 264.497 87.5447 264.028 87.076C263.56 86.6073 263.296 85.9719 263.295 85.3091V56.3091C263.296 55.6463 263.56 55.0108 264.028 54.5421C264.497 54.0735 265.132 53.8098 265.795 53.8091H284.795C285.458 53.8098 286.094 54.0735 286.562 54.5421C287.031 55.0108 287.295 55.6463 287.295 56.3091V85.3091C287.295 85.9719 287.031 86.6073 286.562 87.076C286.094 87.5447 285.458 87.8083 284.795 87.8091Z" fill="white"/>
<path d="M247.795 140.809H228.795C228.132 140.808 227.497 140.545 227.028 140.076C226.56 139.607 226.296 138.972 226.295 138.309V109.309C226.296 108.646 226.56 108.011 227.028 107.542C227.497 107.073 228.132 106.81 228.795 106.809H247.795C248.458 106.81 249.094 107.073 249.562 107.542C250.031 108.011 250.295 108.646 250.295 109.309V138.309C250.295 138.972 250.031 139.607 249.562 140.076C249.094 140.545 248.458 140.808 247.795 140.809Z" fill="white"/>
<path d="M284.795 140.809H265.795C265.132 140.808 264.497 140.545 264.028 140.076C263.56 139.607 263.296 138.972 263.295 138.309V109.309C263.296 108.646 263.56 108.011 264.028 107.542C264.497 107.073 265.132 106.81 265.795 106.809H284.795C285.458 106.81 286.094 107.073 286.562 107.542C287.031 108.011 287.295 108.646 287.295 109.309V138.309C287.295 138.972 287.031 139.607 286.562 140.076C286.094 140.545 285.458 140.808 284.795 140.809Z" fill="white"/>
<path d="M247.795 193.809H228.795C228.132 193.808 227.497 193.545 227.028 193.076C226.56 192.607 226.296 191.972 226.295 191.309V162.309C226.296 161.646 226.56 161.011 227.028 160.542C227.497 160.073 228.132 159.81 228.795 159.809H247.795C248.458 159.81 249.094 160.073 249.562 160.542C250.031 161.011 250.295 161.646 250.295 162.309V191.309C250.295 191.972 250.031 192.607 249.562 193.076C249.094 193.545 248.458 193.808 247.795 193.809Z" fill="white"/>
<path d="M284.795 193.809H265.795C265.132 193.808 264.497 193.545 264.028 193.076C263.56 192.607 263.296 191.972 263.295 191.309V162.309C263.296 161.646 263.56 161.011 264.028 160.542C264.497 160.073 265.132 159.81 265.795 159.809H284.795C285.458 159.81 286.094 160.073 286.562 160.542C287.031 161.011 287.295 161.646 287.295 162.309V191.309C287.295 191.972 287.031 192.607 286.562 193.076C286.094 193.545 285.458 193.808 284.795 193.809Z" fill="white"/>
<path d="M696.795 84.8091H680.795C679.602 84.8077 678.458 84.3332 677.615 83.4896C676.771 82.6459 676.297 81.5021 676.295 80.3091V59.3091C676.297 58.116 676.771 56.9722 677.615 56.1286C678.458 55.285 679.602 54.8104 680.795 54.8091H696.795C697.988 54.8104 699.132 55.2849 699.976 56.1286C700.819 56.9722 701.294 58.116 701.295 59.3091V80.3091C701.294 81.5021 700.819 82.646 699.976 83.4896C699.132 84.3332 697.988 84.8077 696.795 84.8091Z" fill="#E6E6E6"/>
<path d="M831.795 255.809H749.795C747.542 255.807 745.381 254.91 743.788 253.317C742.194 251.723 741.298 249.563 741.295 247.309V88.3091C741.298 86.0555 742.194 83.895 743.788 82.3015C745.381 80.7079 747.542 79.8116 749.795 79.8091H831.795C834.049 79.8116 836.209 80.7079 837.803 82.3015C839.396 83.895 840.293 86.0555 840.295 88.3091V247.309C840.293 249.563 839.396 251.723 837.803 253.317C836.209 254.91 834.049 255.807 831.795 255.809Z" fill="#E6E6E6"/>
<path d="M782.795 255.809H640.795C638.542 255.807 636.381 254.91 634.788 253.317C633.194 251.723 632.298 249.563 632.295 247.309V88.3091C632.298 86.0555 633.194 83.895 634.788 82.3015C636.381 80.7079 638.542 79.8116 640.795 79.8091H782.795C785.049 79.8116 787.209 80.7079 788.803 82.3015C790.396 83.895 791.293 86.0555 791.295 88.3091V247.309C791.293 249.563 790.396 251.723 788.803 253.317C787.209 254.91 785.049 255.807 782.795 255.809Z" fill="#F2F2F2"/>
<path d="M681.795 84.8091H665.795C664.602 84.8077 663.458 84.3332 662.615 83.4896C661.771 82.6459 661.297 81.5021 661.295 80.3091V59.3091C661.297 58.116 661.771 56.9722 662.615 56.1286C663.458 55.285 664.602 54.8104 665.795 54.8091H681.795C682.988 54.8104 684.132 55.2849 684.976 56.1286C685.819 56.9722 686.294 58.116 686.295 59.3091V80.3091C686.294 81.5021 685.819 82.646 684.976 83.4896C684.132 84.3332 682.988 84.8077 681.795 84.8091Z" fill="#F2F2F2"/>
<path d="M702.795 158.309H683.795C683.132 158.308 682.497 158.045 682.028 157.576C681.56 157.107 681.296 156.472 681.295 155.809V126.809C681.296 126.146 681.56 125.511 682.028 125.042C682.497 124.574 683.132 124.31 683.795 124.309H702.795C703.458 124.31 704.094 124.574 704.562 125.042C705.031 125.511 705.295 126.146 705.295 126.809V155.809C705.295 156.472 705.031 157.107 704.562 157.576C704.094 158.045 703.458 158.308 702.795 158.309Z" fill="white"/>
<path d="M739.795 158.309H720.795C720.132 158.308 719.497 158.045 719.028 157.576C718.56 157.107 718.296 156.472 718.295 155.809V126.809C718.296 126.146 718.56 125.511 719.028 125.042C719.497 124.574 720.132 124.31 720.795 124.309H739.795C740.458 124.31 741.094 124.574 741.562 125.042C742.031 125.511 742.295 126.146 742.295 126.809V155.809C742.295 156.472 742.031 157.107 741.562 157.576C741.094 158.045 740.458 158.308 739.795 158.309Z" fill="white"/>
<path d="M702.795 211.309H683.795C683.132 211.308 682.497 211.045 682.028 210.576C681.56 210.107 681.296 209.472 681.295 208.809V179.809C681.296 179.146 681.56 178.511 682.028 178.042C682.497 177.574 683.132 177.31 683.795 177.309H702.795C703.458 177.31 704.094 177.574 704.562 178.042C705.031 178.511 705.295 179.146 705.295 179.809V208.809C705.295 209.472 705.031 210.107 704.562 210.576C704.094 211.045 703.458 211.308 702.795 211.309Z" fill="white"/>
<path d="M739.795 211.309H720.795C720.132 211.308 719.497 211.045 719.028 210.576C718.56 210.107 718.296 209.472 718.295 208.809V179.809C718.296 179.146 718.56 178.511 719.028 178.042C719.497 177.574 720.132 177.31 720.795 177.309H739.795C740.458 177.31 741.094 177.574 741.562 178.042C742.031 178.511 742.295 179.146 742.295 179.809V208.809C742.295 209.472 742.031 210.107 741.562 210.576C741.094 211.045 740.458 211.308 739.795 211.309Z" fill="white"/>
<path d="M1046.8 256.309H1C0.734784 256.309 0.480429 256.204 0.292892 256.016C0.105356 255.829 0 255.574 0 255.309C0 255.044 0.105356 254.79 0.292892 254.602C0.480429 254.414 0.734784 254.309 1 254.309H1046.8C1047.06 254.309 1047.31 254.414 1047.5 254.602C1047.69 254.79 1047.8 255.044 1047.8 255.309C1047.8 255.574 1047.69 255.829 1047.5 256.016C1047.31 256.204 1047.06 256.309 1046.8 256.309Z" fill="#E6E6E6"/>
<path d="M415.795 183.708C415.795 166.046 401.468 124.137 383.795 124.137C366.122 124.137 351.795 166.046 351.795 183.708C351.795 192.194 355.167 200.334 361.168 206.335C367.169 212.336 375.308 215.708 383.795 215.708C392.282 215.708 400.422 212.336 406.423 206.335C412.424 200.334 415.795 192.194 415.795 183.708Z" fill="#E6E6E6"/>
<path d="M407.795 183.708C407.795 166.046 393.468 124.137 375.795 124.137C358.122 124.137 343.795 166.046 343.795 183.708C343.795 192.194 347.167 200.334 353.168 206.335C359.169 212.336 367.308 215.708 375.795 215.708C384.282 215.708 392.422 212.336 398.423 206.335C404.424 200.334 407.795 192.194 407.795 183.708Z" fill="#F2F2F2"/>
<path d="M376.795 255.258C376.53 255.258 376.276 255.152 376.088 254.965C375.901 254.777 375.795 254.523 375.795 254.258V165.117C375.795 164.852 375.901 164.598 376.088 164.41C376.276 164.223 376.53 164.117 376.795 164.117C377.061 164.117 377.315 164.223 377.502 164.41C377.69 164.598 377.795 164.852 377.795 165.117V254.258C377.795 254.523 377.69 254.777 377.502 254.965C377.315 255.152 377.061 255.258 376.795 255.258Z" fill="#CCCCCC"/>
<path d="M376.795 179.73C376.598 179.73 376.404 179.672 376.24 179.562C376.075 179.452 375.947 179.296 375.872 179.113C375.796 178.93 375.776 178.729 375.815 178.535C375.853 178.341 375.949 178.163 376.088 178.023L389.166 164.945C389.353 164.758 389.608 164.652 389.873 164.652C390.138 164.652 390.393 164.758 390.58 164.945C390.768 165.133 390.873 165.387 390.873 165.652C390.873 165.917 390.768 166.172 390.58 166.359L377.502 179.437C377.41 179.53 377.299 179.604 377.178 179.654C377.057 179.705 376.927 179.731 376.795 179.73Z" fill="#CCCCCC"/>
<path d="M926.795 183.708C926.795 166.046 912.468 124.137 894.795 124.137C877.122 124.137 862.795 166.046 862.795 183.708C862.795 192.194 866.167 200.334 872.168 206.335C878.169 212.336 886.308 215.708 894.795 215.708C903.282 215.708 911.422 212.336 917.423 206.335C923.424 200.334 926.795 192.194 926.795 183.708Z" fill="#E6E6E6"/>
<path d="M918.795 183.708C918.795 166.046 904.468 124.137 886.795 124.137C869.122 124.137 854.795 166.046 854.795 183.708C854.795 192.194 858.167 200.334 864.168 206.335C870.169 212.336 878.308 215.708 886.795 215.708C895.282 215.708 903.422 212.336 909.423 206.335C915.424 200.334 918.795 192.194 918.795 183.708Z" fill="#F2F2F2"/>
<path d="M887.795 255.258C887.53 255.258 887.276 255.152 887.088 254.965C886.901 254.777 886.795 254.523 886.795 254.258V165.117C886.795 164.852 886.901 164.598 887.088 164.41C887.276 164.223 887.53 164.117 887.795 164.117C888.061 164.117 888.315 164.223 888.502 164.41C888.69 164.598 888.795 164.852 888.795 165.117V254.258C888.795 254.523 888.69 254.777 888.502 254.965C888.315 255.152 888.061 255.258 887.795 255.258Z" fill="#CCCCCC"/>
<path d="M887.795 179.73C887.598 179.73 887.404 179.672 887.24 179.562C887.075 179.452 886.947 179.296 886.872 179.113C886.796 178.93 886.776 178.729 886.815 178.535C886.853 178.341 886.948 178.163 887.088 178.023L900.166 164.945C900.353 164.758 900.608 164.652 900.873 164.652C901.138 164.652 901.392 164.758 901.58 164.945C901.767 165.133 901.873 165.387 901.873 165.652C901.873 165.917 901.767 166.172 901.58 166.359L888.502 179.437C888.41 179.53 888.299 179.604 888.178 179.654C888.057 179.705 887.927 179.731 887.795 179.73Z" fill="#CCCCCC"/>
<path d="M556.795 194.809H534.795C534.132 194.808 533.497 194.545 533.028 194.076C532.559 193.607 532.296 192.972 532.295 192.309V170.309C532.296 169.646 532.559 169.011 533.028 168.542C533.497 168.073 534.132 167.81 534.795 167.809H556.795C557.458 167.81 558.094 168.073 558.562 168.542C559.031 169.011 559.295 169.646 559.295 170.309V192.309C559.295 192.972 559.031 193.607 558.562 194.076C558.094 194.545 557.458 194.808 556.795 194.809Z" fill="#3F3D56"/>
<path d="M770.361 205.522C770.601 205.585 770.825 205.7 771.016 205.859C771.207 206.018 771.361 206.217 771.467 206.442C771.573 206.667 771.628 206.912 771.629 207.16C771.63 207.409 771.576 207.655 771.472 207.88L775.82 212.073L772.757 212.76L769.098 208.673C768.73 208.472 768.449 208.144 768.308 207.75C768.166 207.357 768.174 206.925 768.33 206.536C768.486 206.148 768.778 205.83 769.153 205.643C769.527 205.456 769.957 205.413 770.361 205.522Z" fill="#FFB8B8"/>
<path d="M776.475 216.553L771.112 211.521C771.037 211.451 770.978 211.368 770.937 211.275C770.896 211.182 770.873 211.082 770.871 210.98C770.87 210.879 770.888 210.778 770.926 210.684C770.963 210.589 771.019 210.504 771.091 210.431L772.186 209.322C772.316 209.191 772.49 209.111 772.674 209.098C772.859 209.085 773.042 209.14 773.189 209.252L777.684 212.688L780.489 205.886C780.599 205.618 780.764 205.375 780.972 205.173C781.18 204.97 781.428 204.813 781.699 204.71C781.971 204.607 782.26 204.561 782.55 204.575C782.84 204.589 783.124 204.662 783.385 204.789C783.796 204.988 784.131 205.315 784.341 205.72C784.55 206.126 784.622 206.589 784.546 207.039C784.037 210.132 780.954 214.222 779.162 216.385C778.917 216.679 778.587 216.891 778.217 216.99C777.847 217.089 777.456 217.072 777.096 216.939C776.866 216.853 776.655 216.722 776.475 216.553Z" fill="#6C63FF"/>
<path d="M773.465 211.671L769.516 205.944C769.466 205.87 769.446 205.779 769.462 205.691C769.479 205.602 769.529 205.524 769.603 205.473L769.761 205.364C769.798 205.339 769.839 205.321 769.883 205.312C769.926 205.302 769.971 205.302 770.014 205.31C770.058 205.318 770.1 205.334 770.137 205.358C770.174 205.383 770.206 205.414 770.232 205.45L774.181 211.178C774.206 211.215 774.224 211.256 774.233 211.299C774.242 211.343 774.243 211.388 774.235 211.431C774.227 211.475 774.21 211.517 774.186 211.554C774.162 211.591 774.131 211.623 774.094 211.649L773.936 211.758C773.862 211.809 773.771 211.828 773.683 211.812C773.594 211.796 773.516 211.745 773.465 211.671Z" fill="white"/>
<path d="M772.361 211.714L769.084 206.96C768.944 206.757 768.891 206.507 768.936 206.265C768.98 206.022 769.119 205.807 769.322 205.667L769.656 205.437L773.988 211.722L773.655 211.952C773.452 212.092 773.201 212.145 772.959 212.101C772.716 212.056 772.502 211.917 772.361 211.714Z" fill="#3F3D56"/>
<path d="M772.758 252.744L770.699 252.507L770.972 244.492L773.674 244.804L772.758 252.744Z" fill="#FFB8B8"/>
<path d="M773.053 254.8L766.415 254.034L766.424 253.95C766.463 253.611 766.569 253.283 766.735 252.984C766.901 252.686 767.124 252.423 767.392 252.211C767.659 251.998 767.966 251.841 768.295 251.747C768.623 251.654 768.967 251.625 769.306 251.665L773.361 252.133L773.053 254.8Z" fill="#2F2E41"/>
<path d="M796.697 251.222L794.717 251.834L791.416 244.488L794.338 243.585L796.697 251.222Z" fill="#FFB8B8"/>
<path d="M797.795 252.986L791.411 254.958L791.386 254.877C791.285 254.551 791.25 254.208 791.281 253.868C791.313 253.528 791.411 253.197 791.571 252.895C791.73 252.593 791.948 252.325 792.211 252.107C792.474 251.889 792.777 251.725 793.103 251.624L797.003 250.42L797.795 252.986Z" fill="#2F2E41"/>
<path d="M770.46 250.897C770.25 250.832 770.075 250.689 769.97 250.497C769.864 250.305 769.838 250.08 769.896 249.868L771.137 235.583C771.194 234.932 771.399 234.302 771.736 233.741L779.248 221.274L785.97 222.482L786.013 222.5C789.28 224.501 792.181 234.203 794.986 243.586C795.422 245.045 795.873 246.554 796.313 247.996C796.395 248.202 796.393 248.431 796.308 248.636C796.223 248.84 796.061 249.004 795.857 249.091L793.822 249.947C793.629 250.029 793.413 250.036 793.215 249.967C793.017 249.898 792.852 249.758 792.752 249.573L782.289 230.417C782.276 230.393 782.257 230.373 782.234 230.357C782.212 230.342 782.186 230.333 782.159 230.33C782.132 230.327 782.104 230.33 782.079 230.34C782.054 230.349 782.031 230.365 782.014 230.386L775.941 237.258L773.71 250.353L773.701 250.381C773.62 250.569 773.475 250.72 773.291 250.809C773.107 250.897 772.898 250.917 772.701 250.863L770.512 250.904L770.499 250.904L770.46 250.897Z" fill="#2F2E41"/>
<path d="M778.884 222.641L778.842 222.627L778.829 222.584C778.798 222.48 775.725 212.083 778.494 205.455L778.497 205.449C778.578 205.291 780.509 201.58 782.753 201.209L782.813 201.199L783.542 202.563C783.772 202.792 787.72 206.892 785.928 213.938C786.089 214.516 788.269 222.449 787.083 223.634C786.651 223.932 786.126 224.064 785.604 224.005C783.319 223.81 781.064 223.352 778.884 222.641Z" fill="#6C63FF"/>
<path d="M782.291 199.909C785.185 199.909 787.531 197.563 787.531 194.669C787.531 191.775 785.185 189.429 782.291 189.429C779.397 189.429 777.05 191.775 777.05 194.669C777.05 197.563 779.397 199.909 782.291 199.909Z" fill="#2F2E41"/>
<path d="M780.209 199.884C782.502 199.884 784.361 198.025 784.361 195.732C784.361 193.439 782.502 191.581 780.209 191.581C777.916 191.581 776.057 193.439 776.057 195.732C776.057 198.025 777.916 199.884 780.209 199.884Z" fill="#FFB8B8"/>
<path d="M782.881 199.765C782.502 199.899 782.037 200.018 781.739 199.739C781.615 199.578 781.543 199.384 781.531 199.182C781.519 198.979 781.568 198.777 781.673 198.603C781.888 198.261 782.062 197.895 782.192 197.512C782.23 197.224 782.194 196.932 782.086 196.662C781.978 196.392 781.802 196.155 781.575 195.974C781.125 195.631 780.615 195.374 780.071 195.218L777.165 194.184C776.41 194.006 775.739 193.572 775.268 192.955C775.025 192.442 774.983 191.856 775.151 191.313C775.319 190.77 775.683 190.309 776.173 190.021C776.667 189.772 777.21 189.638 777.763 189.627C778.315 189.616 778.864 189.729 779.367 189.959C779.921 190.217 780.489 190.444 781.069 190.64C782.232 190.947 783.556 190.671 784.578 191.327C785.01 191.655 785.352 192.085 785.575 192.579C785.797 193.073 785.892 193.614 785.851 194.154C785.764 195.241 785.474 196.301 784.996 197.281C784.775 197.884 784.454 198.447 784.048 198.946C783.849 199.19 783.595 199.382 783.306 199.506C783.017 199.631 782.703 199.684 782.389 199.661L782.881 199.765Z" fill="#2F2E41"/>
<path d="M786.686 195.514C788.553 195.514 790.066 194 790.066 192.133C790.066 190.266 788.553 188.752 786.686 188.752C784.818 188.752 783.305 190.266 783.305 192.133C783.305 194 784.818 195.514 786.686 195.514Z" fill="#2F2E41"/>
<path d="M781.107 197.035C781.107 196.974 781.124 196.914 781.155 196.861C781.187 196.808 781.232 196.765 781.286 196.737C781.341 196.708 781.401 196.694 781.463 196.697C781.524 196.7 781.583 196.72 781.634 196.754C781.685 196.789 781.726 196.836 781.752 196.892C781.778 196.947 781.788 197.009 781.782 197.07C781.775 197.131 781.752 197.189 781.716 197.238C781.679 197.287 781.629 197.325 781.572 197.348V198.092C781.572 198.108 781.569 198.125 781.563 198.141C781.557 198.156 781.547 198.17 781.535 198.182C781.524 198.194 781.51 198.203 781.494 198.21C781.479 198.216 781.462 198.22 781.445 198.22C781.429 198.22 781.412 198.216 781.397 198.21C781.381 198.203 781.367 198.194 781.355 198.182C781.344 198.17 781.334 198.156 781.328 198.141C781.322 198.125 781.318 198.108 781.319 198.092V197.348C781.256 197.323 781.203 197.28 781.165 197.224C781.128 197.168 781.107 197.103 781.107 197.035Z" fill="white"/>
<path d="M770.567 209.071C770.814 209.046 771.064 209.076 771.298 209.158C771.533 209.241 771.746 209.373 771.924 209.547C772.101 209.721 772.239 209.932 772.326 210.164C772.414 210.397 772.449 210.646 772.43 210.894L777.967 213.308L775.335 215.019L770.481 212.464C770.067 212.404 769.689 212.195 769.419 211.875C769.149 211.555 769.006 211.148 769.016 210.729C769.027 210.311 769.191 209.911 769.476 209.605C769.762 209.3 770.15 209.11 770.567 209.071Z" fill="#FFB8B8"/>
<path d="M780.142 217.279L773.361 214.432C773.267 214.392 773.182 214.335 773.111 214.262C773.04 214.189 772.985 214.103 772.947 214.009C772.91 213.914 772.892 213.813 772.895 213.712C772.897 213.61 772.92 213.51 772.962 213.418L773.602 211.996C773.678 211.828 773.813 211.693 773.981 211.616C774.15 211.54 774.34 211.527 774.517 211.581L779.928 213.234L780.186 205.882C780.196 205.592 780.266 205.307 780.39 205.045C780.515 204.783 780.692 204.549 780.911 204.358C781.129 204.167 781.385 204.023 781.661 203.935C781.938 203.846 782.23 203.816 782.518 203.845C782.973 203.888 783.401 204.077 783.739 204.384C784.076 204.691 784.305 205.1 784.391 205.548C784.992 208.625 783.528 213.533 782.602 216.185C782.475 216.546 782.239 216.86 781.927 217.082C781.615 217.304 781.242 217.423 780.859 217.424C780.613 217.424 780.369 217.374 780.142 217.279Z" fill="#6C63FF"/>
<path d="M84.7927 215.539H74.4067V212.386C77.6887 210.102 80.5965 210.301 84.4218 212.571L84.7927 215.539Z" fill="#6C63FF"/>
<path d="M78.8748 209.888C81.3905 209.888 83.4299 207.849 83.4299 205.333C83.4299 202.817 81.3905 200.778 78.8748 200.778C76.359 200.778 74.3196 202.817 74.3196 205.333C74.3196 207.849 76.359 209.888 78.8748 209.888Z" fill="#FFB8B8"/>
<path d="M76.0842 241.825C75.2851 241.835 74.4891 241.723 73.7237 241.493C73.043 241.288 72.4115 240.946 71.868 240.487C71.3246 240.029 70.8807 239.464 70.5637 238.827C70.4633 238.636 70.441 238.413 70.5016 238.205C71.004 236.49 73.4317 227.578 71.8827 220.493C71.6641 219.509 71.6459 218.49 71.8293 217.499C72.0127 216.507 72.3938 215.563 72.9501 214.722C73.4934 213.888 74.1991 213.172 75.0253 212.616C75.8514 212.06 76.781 211.677 77.7586 211.488C78.0155 211.438 78.2738 211.397 78.5263 211.365C79.6069 211.232 80.7036 211.34 81.7379 211.68C82.7721 212.02 83.7184 212.585 84.5089 213.334C85.323 214.097 85.9582 215.031 86.3691 216.069C86.78 217.106 86.9564 218.222 86.8858 219.335L85.6954 238.439C85.6872 238.582 85.6418 238.721 85.5639 238.841C85.4859 238.962 85.378 239.06 85.2506 239.126C83.8796 239.844 79.761 241.825 76.0842 241.825Z" fill="#3F3D56"/>
<path d="M84.0206 201.98C83.5474 200.791 82.6807 199.8 81.5651 199.173C80.4494 198.546 79.1524 198.32 77.8905 198.534L79.3268 199.694C77.5423 199.754 75.6639 199.626 74.3898 200.877C74.7955 200.866 75.3271 201.734 75.7327 201.722C75.3531 201.749 74.9876 201.877 74.6744 202.093C74.3611 202.309 74.1115 202.605 73.9517 202.951C73.6415 203.65 73.5689 204.431 73.7451 205.176C74.2047 206.271 74.7393 207.333 75.345 208.355C75.2921 206.543 78.8594 202.221 80.6013 202.672C79.7163 203 78.9483 203.583 78.3942 204.347C79.5794 203.749 80.9197 203.53 82.2336 203.719C82.5336 203.788 82.8431 203.805 83.1489 203.77C83.3363 203.733 83.5111 203.649 83.6565 203.525C83.802 203.401 83.9132 203.242 83.9797 203.063C84.0461 202.884 84.0655 202.691 84.0361 202.502C84.0066 202.313 83.9292 202.135 83.8113 201.985L84.0206 201.98Z" fill="#2F2E41"/>
<path d="M75.7704 240.678C75.6554 240.678 75.5416 240.654 75.4362 240.608L66.7935 236.835C66.6099 236.756 66.4609 236.614 66.3739 236.434C66.2869 236.254 66.2677 236.049 66.32 235.856L72.0415 214.243C72.1479 213.841 72.3334 213.464 72.5872 213.134C72.841 212.804 73.158 212.529 73.5197 212.323C73.8814 212.118 74.2804 211.986 74.6934 211.937C75.1065 211.887 75.5253 211.921 75.9252 212.035L78.213 212.688L76.6025 239.892C76.5942 240.026 76.5537 240.156 76.4844 240.272C76.4152 240.387 76.3191 240.484 76.2045 240.554C76.0741 240.635 75.9238 240.678 75.7704 240.678Z" fill="#6C63FF"/>
<path d="M91.7662 235.856L91.386 234.423L90.8352 232.338L90.5699 231.338L90.0192 229.259L86.0446 214.242C85.9386 213.84 85.7533 213.463 85.4996 213.133C85.2458 212.803 84.9288 212.528 84.567 212.322C84.2053 212.117 83.8061 211.985 83.393 211.936C82.9798 211.887 82.561 211.921 82.161 212.035L79.8743 212.688L81.0074 231.823L81.1243 233.82L81.1985 235.079V235.081L81.3171 237.067L81.4841 239.892C81.4978 240.104 81.5912 240.303 81.7457 240.449C81.9002 240.595 82.1043 240.677 82.3168 240.678C82.4317 240.678 82.5453 240.654 82.6507 240.608L91.2932 236.836C91.477 236.757 91.626 236.614 91.713 236.434C91.7999 236.255 91.8188 236.049 91.7662 235.856Z" fill="#6C63FF"/>
<path d="M90.57 231.339L81.124 233.82L81.007 231.823L90.019 229.259L90.57 231.339Z" fill="#CCCCCC"/>
<path d="M91.386 234.423L81.317 237.068L81.198 235.081V235.079L90.835 232.338L91.386 234.423Z" fill="#CCCCCC"/>
<path d="M76.963 232.253L76.846 234.213L67.582 231.454L68.125 229.402L76.963 232.253Z" fill="#CCCCCC"/>
<path d="M76.7699 235.504L67.3169 232.453L66.7729 234.51L76.6549 237.453L76.7699 235.504Z" fill="#CCCCCC"/>
<path d="M67.4813 237.554C67.7631 237.48 68.0254 237.346 68.2496 237.16C68.4739 236.974 68.6546 236.741 68.7792 236.478C68.9037 236.215 68.969 235.927 68.9705 235.636C68.9719 235.345 68.9095 235.057 68.7876 234.792L73.2317 220.841L70.0804 220.181L66.006 233.859C65.5751 234.093 65.2452 234.478 65.0787 234.939C64.9122 235.4 64.9207 235.906 65.1025 236.362C65.2844 236.817 65.627 237.19 66.0654 237.41C66.5038 237.63 67.0076 237.681 67.4813 237.554Z" fill="#FFB8B8"/>
<path d="M73.355 213.982C74.2599 214.074 74.7689 215.092 74.5439 216.358L73.4643 222.438C73.3833 222.893 73.0083 223.254 72.6966 223.176L69.0447 222.263C68.7637 222.193 68.6602 221.794 68.8195 221.394L71.0118 215.895C71.1601 215.375 71.4642 214.913 71.8832 214.571C72.3021 214.229 72.8158 214.023 73.355 213.982Z" fill="#3F3D56"/>
<path d="M78.8579 196.807C80.3996 196.807 81.8807 197.408 82.9876 198.481C84.0945 199.554 84.7402 201.016 84.7881 202.557H85.9056C86.0039 202.557 86.0983 202.596 86.1678 202.665C86.2374 202.735 86.2765 202.829 86.2765 202.927V204.411C86.2765 204.51 86.2374 204.604 86.1678 204.673C86.0983 204.743 86.0039 204.782 85.9056 204.782H73.294C73.1957 204.782 73.1013 204.743 73.0317 204.673C72.9622 204.604 72.9231 204.51 72.9231 204.411V202.742C72.9231 201.963 73.0766 201.191 73.3748 200.471C73.6731 199.751 74.1103 199.097 74.6614 198.545C75.2125 197.994 75.8667 197.557 76.5868 197.259C77.3068 196.961 78.0786 196.807 78.8579 196.807Z" fill="#6C63FF"/>
<path d="M79.567 233.493H76.9454C76.8613 233.493 76.7801 233.462 76.7178 233.405C76.6555 233.349 76.6165 233.271 76.6086 233.187L76.0839 227.809H80.4286L79.9038 233.187C79.8959 233.271 79.857 233.349 79.7947 233.405C79.7324 233.462 79.6512 233.493 79.567 233.493Z" fill="#E6E6E6"/>
<path d="M80.4216 228.485H76.0908C76.0011 228.485 75.9151 228.449 75.8517 228.386C75.7882 228.323 75.7525 228.237 75.7524 228.147V227.335C75.7525 227.245 75.7882 227.159 75.8517 227.096C75.9151 227.032 76.0011 226.997 76.0908 226.997H80.4216C80.5113 226.997 80.5973 227.032 80.6607 227.096C80.7242 227.159 80.7598 227.245 80.7599 227.335V228.147C80.7598 228.237 80.7242 228.323 80.6607 228.386C80.5973 228.449 80.5113 228.485 80.4216 228.485Z" fill="#CCCCCC"/>
<path d="M78.3125 230.608C78.4144 230.62 78.5153 230.64 78.6141 230.667L85.5961 224.68L85.188 222.483L88.423 221.434L89.5234 225.253C89.6123 225.561 89.5988 225.89 89.4848 226.19C89.3707 226.49 89.1625 226.745 88.8911 226.917L80.0487 232.513C80.055 232.908 79.9407 233.296 79.7212 233.625C79.5017 233.953 79.1872 234.208 78.8197 234.353C78.4522 234.499 78.0491 234.529 77.6639 234.44C77.2787 234.351 76.9297 234.147 76.6634 233.855C76.397 233.563 76.2259 233.197 76.1729 232.805C76.1198 232.413 76.1873 232.014 76.3663 231.662C76.5454 231.309 76.8275 231.02 77.1751 230.832C77.5228 230.643 77.9194 230.565 78.3125 230.608Z" fill="#FFB8B8"/>
<path d="M85.6143 214.484C86.5808 214.213 87.5467 214.949 87.8703 216.203L89.4233 222.217C89.5397 222.668 89.3136 223.147 88.9604 223.198L84.8233 223.793C84.505 223.839 84.2245 223.512 84.2128 223.082L84.0522 217.164C83.9907 216.609 84.1094 216.048 84.3906 215.566C84.6719 215.083 85.1009 214.704 85.6143 214.484Z" fill="#3F3D56"/>
<path d="M132.64 230.756H129.49C129.389 230.756 129.291 230.719 129.216 230.651C129.142 230.583 129.095 230.49 129.085 230.389L128.455 223.927H133.675L133.044 230.389C133.035 230.49 132.988 230.583 132.913 230.651C132.838 230.719 132.741 230.756 132.64 230.756Z" fill="#E6E6E6"/>
<path d="M133.666 224.74H128.463C128.355 224.74 128.252 224.697 128.176 224.621C128.1 224.544 128.057 224.441 128.057 224.333V223.358C128.057 223.25 128.1 223.147 128.176 223.07C128.252 222.994 128.355 222.951 128.463 222.951H133.666C133.774 222.951 133.877 222.994 133.954 223.07C134.03 223.147 134.073 223.25 134.073 223.358V224.333C134.073 224.441 134.03 224.544 133.954 224.621C133.877 224.697 133.774 224.74 133.666 224.74Z" fill="#CCCCCC"/>
<path d="M158.888 255.669C158.642 255.509 158.434 255.296 158.278 255.046C158.122 254.796 158.022 254.514 157.985 254.22C157.949 253.926 157.976 253.628 158.066 253.346C158.155 253.065 158.305 252.806 158.504 252.589L157 231L161.332 231.425L161.451 252.567C161.789 252.93 161.984 253.405 161.999 253.903C162.014 254.401 161.848 254.888 161.532 255.27C161.216 255.652 160.772 255.904 160.285 255.978C159.798 256.051 159.301 255.942 158.888 255.669Z" fill="#A0616A"/>
<path d="M157.489 239.225C157.368 239.138 157.268 239.024 157.196 238.893C157.124 238.762 157.083 238.616 157.075 238.467L156.695 231.587C156.658 230.905 156.874 230.234 157.302 229.702C157.73 229.171 158.34 228.816 159.014 228.708C159.688 228.599 160.378 228.744 160.952 229.114C161.526 229.484 161.942 230.053 162.12 230.712L163.788 236.863C163.857 237.12 163.822 237.393 163.69 237.624C163.558 237.855 163.339 238.023 163.083 238.093L158.339 239.379C158.195 239.419 158.043 239.425 157.896 239.399C157.749 239.372 157.61 239.312 157.489 239.225Z" fill="#3F3D56"/>
<path d="M150.802 254.969C148.997 253.97 146.998 253.324 144.922 253.07C144.786 253.058 144.653 253.02 144.533 252.958C144.413 252.896 144.307 252.811 144.223 252.709C144.136 252.607 144.073 252.489 144.036 252.363C144 252.237 143.991 252.105 144.01 251.975L146.972 231.241C147.143 230.028 147.639 228.876 148.416 227.895C149.192 226.914 150.221 226.137 151.406 225.637C152.552 225.14 153.815 224.928 155.073 225.021C156.332 225.114 157.544 225.509 158.594 226.169C158.696 226.232 158.795 226.297 158.893 226.364C160.103 227.199 161.023 228.354 161.538 229.682C162.053 231.01 162.14 232.453 161.787 233.827C159.97 240.833 159.346 252.319 159.239 254.55C159.231 254.74 159.163 254.924 159.044 255.078C158.925 255.232 158.761 255.349 158.571 255.415C157.454 255.798 156.274 255.996 155.085 256C153.587 256.008 152.112 255.653 150.802 254.969Z" fill="#3F3D56"/>
<path d="M153.058 222.874C156.08 222.874 158.53 220.424 158.53 217.401C158.53 214.378 156.08 211.928 153.058 211.928C150.035 211.928 147.585 214.378 147.585 217.401C147.585 220.424 150.035 222.874 153.058 222.874Z" fill="#A0616A"/>
<path d="M156.931 221.731C156.702 221.977 156.407 222.154 156.082 222.239C155.756 222.324 155.413 222.314 155.093 222.211C154.772 222.108 154.488 221.916 154.273 221.657C154.059 221.398 153.922 221.083 153.88 220.749C153.87 220.633 153.871 220.517 153.883 220.402C154.082 219.769 154.202 219.114 154.241 218.452C154.22 218.279 154.155 218.114 154.053 217.973C153.24 216.883 151.33 218.46 150.562 217.474C150.091 216.869 150.645 215.917 150.283 215.241C149.807 214.349 148.394 214.789 147.508 214.3C146.523 213.757 146.582 212.245 147.231 211.325C147.653 210.782 148.19 210.338 148.803 210.026C149.416 209.714 150.091 209.54 150.779 209.519C152.156 209.486 153.524 209.753 154.788 210.301C156.281 210.787 157.598 211.7 158.576 212.928C159.082 213.733 159.403 214.64 159.515 215.584C159.627 216.529 159.528 217.486 159.224 218.387C158.689 219.643 157.909 220.779 156.931 221.731Z" fill="#2F2E41"/>
<path d="M161.265 227.051C161.169 226.601 160.347 225.986 159.17 225.485C157.279 224.719 155.234 224.411 153.201 224.585C151.168 224.759 149.205 225.411 147.472 226.488C147.351 226.494 147.236 226.54 147.143 226.619C147.051 226.697 146.987 226.804 146.962 226.922L143.004 244.425L142.49 246.704L142.149 248.213L141.634 250.486L141.36 251.7C141.342 251.778 141.342 251.858 141.358 251.936C141.374 252.014 141.406 252.088 141.453 252.152C141.5 252.216 141.56 252.27 141.629 252.309C141.699 252.349 141.775 252.373 141.855 252.38L158.943 253.855C158.958 253.855 158.976 253.857 158.992 253.857C159.133 253.856 159.268 253.802 159.371 253.705C159.473 253.608 159.535 253.476 159.545 253.336L159.707 250.86L159.881 248.213L159.957 247.065L160.128 244.425L161.267 227.08V227.065L161.265 227.051Z" fill="#6C63FF"/>
<path d="M133.226 228.154C133.253 228.274 133.271 228.396 133.279 228.519L142.851 234.041L145.177 232.702L147.658 235.949L142.681 239.496L131.76 230.881C131.315 231.046 130.83 231.071 130.37 230.954C129.91 230.836 129.496 230.581 129.185 230.223C128.873 229.865 128.678 229.42 128.625 228.948C128.572 228.476 128.664 228 128.889 227.581C129.113 227.163 129.46 226.823 129.883 226.606C130.305 226.39 130.784 226.307 131.255 226.369C131.726 226.431 132.166 226.635 132.518 226.954C132.87 227.273 133.117 227.691 133.226 228.154Z" fill="#A0616A"/>
<path d="M143.193 233.571C143.177 233.423 143.194 233.272 143.244 233.132C143.294 232.991 143.375 232.863 143.481 232.757L148.353 227.884C148.835 227.402 149.48 227.115 150.161 227.079C150.843 227.043 151.514 227.261 152.045 227.691C152.575 228.12 152.928 228.731 153.035 229.405C153.142 230.079 152.995 230.769 152.624 231.342L149.154 236.688C149.009 236.911 148.782 237.067 148.522 237.122C148.262 237.178 147.991 237.128 147.767 236.983L143.644 234.307C143.519 234.226 143.413 234.118 143.335 233.991C143.257 233.863 143.208 233.72 143.193 233.571Z" fill="#3F3D56"/>
<path d="M160.128 244.425L159.957 247.066L142.489 246.705L143.004 244.425H160.128Z" fill="#CCCCCC"/>
<path d="M159.881 248.213L159.707 250.86L141.634 250.486L142.149 248.213H159.881Z" fill="#CCCCCC"/>
<path d="M153.165 206.768C151.313 206.768 149.533 207.489 148.203 208.779C146.874 210.068 146.098 211.824 146.04 213.676H144.698C144.579 213.676 144.466 213.723 144.382 213.806C144.299 213.89 144.252 214.003 144.252 214.121V215.904C144.252 216.022 144.299 216.135 144.382 216.219C144.466 216.303 144.579 216.349 144.698 216.349H159.85C159.968 216.349 160.081 216.303 160.165 216.219C160.248 216.135 160.295 216.022 160.295 215.904V213.898C160.295 212.962 160.111 212.035 159.752 211.17C159.394 210.305 158.869 209.519 158.207 208.856C157.545 208.194 156.759 207.669 155.894 207.311C155.028 206.952 154.101 206.768 153.165 206.768Z" fill="#6C63FF"/>
<path d="M412.98 222.055C413.134 221.902 413.254 221.718 413.329 221.514C413.404 221.31 413.434 221.092 413.416 220.876C413.398 220.66 413.333 220.45 413.225 220.261C413.117 220.073 412.969 219.91 412.792 219.785L412.042 214.839L408.96 215.809L410.648 220.221C410.458 220.534 410.388 220.905 410.453 221.265C410.518 221.624 410.712 221.948 411 222.174C411.287 222.4 411.647 222.513 412.012 222.491C412.377 222.469 412.722 222.314 412.98 222.055Z" fill="#FFB8B8"/>
<path d="M409.805 219.728L407.904 210.85C407.719 209.999 407.755 209.116 408.01 208.283C408.264 207.451 408.727 206.698 409.356 206.096C411.789 203.751 414.917 200.795 415.997 200.031C417.011 199.308 418.238 198.946 419.482 199.002L419.508 199.005L421.143 200.55L417.581 206.415L412.173 209.803L412.775 218.505L409.805 219.728Z" fill="#6C63FF"/>
<path d="M416.463 207.664H408.485C408.14 207.664 407.86 207.944 407.86 208.289C407.86 208.635 408.14 208.915 408.485 208.915H416.463C416.809 208.915 417.089 208.635 417.089 208.289C417.089 207.944 416.809 207.664 416.463 207.664Z" fill="#CCCCCC"/>
<path d="M416.463 221.272H408.485C408.14 221.272 407.86 221.553 407.86 221.898C407.86 222.244 408.14 222.524 408.485 222.524H416.463C416.809 222.524 417.089 222.244 417.089 221.898C417.089 221.553 416.809 221.272 416.463 221.272Z" fill="#CCCCCC"/>
<path d="M412.552 255.373C412.474 255.373 412.399 255.343 412.341 255.291C412.283 255.238 412.248 255.165 412.241 255.088L408.253 208.317C408.249 208.276 408.253 208.235 408.265 208.195C408.278 208.156 408.297 208.119 408.324 208.088C408.35 208.056 408.383 208.03 408.419 208.011C408.456 207.992 408.495 207.98 408.536 207.977C408.577 207.973 408.619 207.978 408.658 207.99C408.697 208.002 408.734 208.022 408.765 208.049C408.797 208.075 408.823 208.108 408.842 208.144C408.861 208.181 408.872 208.221 408.876 208.262L412.548 251.474L416.115 208.262C416.119 208.221 416.13 208.181 416.149 208.145C416.168 208.108 416.194 208.076 416.225 208.049C416.257 208.022 416.293 208.002 416.333 207.99C416.372 207.977 416.413 207.973 416.454 207.976C416.495 207.98 416.535 207.991 416.572 208.01C416.608 208.029 416.641 208.055 416.667 208.087C416.694 208.119 416.714 208.155 416.726 208.194C416.738 208.234 416.743 208.275 416.739 208.316L412.864 255.087C412.857 255.165 412.822 255.237 412.764 255.29C412.706 255.343 412.631 255.373 412.552 255.373Z" fill="#CCCCCC"/>
<path d="M421.505 197.13C423.772 197.13 425.61 195.293 425.61 193.026C425.61 190.759 423.772 188.921 421.505 188.921C419.238 188.921 417.401 190.759 417.401 193.026C417.401 195.293 419.238 197.13 421.505 197.13Z" fill="#FFB8B8"/>
<path d="M409.273 253.497L407.321 252.875L408.792 245.05L411.673 245.968L409.273 253.497Z" fill="#FFB8B8"/>
<path d="M409.164 255.228L402.881 253.225L402.933 253.062C403.132 252.438 403.572 251.918 404.154 251.617C404.737 251.316 405.415 251.258 406.04 251.457L409.967 252.709L409.164 255.228Z" fill="#2F2E41"/>
<path d="M423.475 253.456H421.426L420.451 245.554H423.475V253.456Z" fill="#FFB8B8"/>
<path d="M417.553 255.281H423.836V252.949H419.87C419.255 252.95 418.667 253.194 418.232 253.628C417.798 254.063 417.554 254.652 417.553 255.266V255.281Z" fill="#2F2E41"/>
<path d="M423.415 250.892L422.723 250.789C421.855 250.737 420.996 250.576 420.167 250.312C419.997 250.237 419.986 249.108 420.088 242.763C420.162 238.106 420.256 232.309 420.075 229.198C420.067 229.075 420.019 228.958 419.937 228.866C419.855 228.775 419.744 228.713 419.623 228.692C419.502 228.671 419.377 228.691 419.269 228.749C419.161 228.807 419.075 228.9 419.026 229.013C417.466 232.617 414.848 240.681 413.115 246.017C412.513 247.873 412.037 249.339 411.736 250.218C411.678 250.384 411.56 250.523 411.405 250.607C411.25 250.69 411.069 250.714 410.898 250.671C409.473 250.315 409.568 250.163 407.537 249.638C407.362 249.593 407.21 249.482 407.115 249.328C407.019 249.174 406.986 248.989 407.024 248.812C407.391 247.08 414.112 218.998 414.627 216.328C414.644 216.237 414.68 216.15 414.731 216.072C414.782 215.995 414.848 215.928 414.925 215.876C415.002 215.824 415.089 215.788 415.18 215.77C415.272 215.751 415.365 215.751 415.457 215.77C416.97 216.074 417.89 216.398 419.386 216.711C420.999 217.048 422.668 217.397 424.295 217.723C424.457 217.756 424.603 217.845 424.705 217.974C425.159 218.459 425.717 218.834 426.337 219.071C426.763 219.274 425.798 219.256 426.169 219.55C427.672 220.74 425.51 244.904 424.204 250.362C424.162 250.533 424.058 250.682 423.912 250.78C423.766 250.878 423.589 250.918 423.415 250.892Z" fill="#2F2E41"/>
<path d="M423.255 196.617C423.015 195.6 424.226 193.413 423.987 192.396C423.824 191.707 422.205 192.175 421.827 191.577C421.652 191.269 421.403 191.008 421.104 190.818C420.804 190.628 420.463 190.514 420.109 190.487C419.296 190.477 418.496 191.081 417.726 190.82C417.544 190.73 417.381 190.604 417.248 190.45C417.115 190.296 417.013 190.118 416.95 189.925C416.886 189.731 416.862 189.527 416.877 189.325C416.893 189.122 416.949 188.924 417.042 188.743C417.455 188.024 418.095 187.463 418.861 187.148C420.069 186.41 421.515 186.167 422.898 186.47C423.689 186.776 424.414 187.232 425.033 187.812C425.654 188.272 426.2 188.826 426.651 189.454C427.033 190.108 427.241 190.85 427.253 191.608C427.265 192.367 427.081 193.115 426.72 193.782C425.972 195.112 424.781 196.137 423.354 196.678" fill="#2F2E41"/>
<path d="M413.177 220.279C413.62 219.539 414.292 216.072 415.121 210.252C415.686 206.279 416.178 202.242 416.422 200.18C416.441 200.013 416.502 199.854 416.6 199.717C416.697 199.58 416.828 199.47 416.979 199.398C417.137 199.321 417.295 199.249 417.451 199.18C419.331 198.32 421.417 198.016 423.464 198.304C425.511 198.591 427.433 199.459 429.002 200.803L429.021 200.821L429.025 200.845C429.034 200.891 429.882 205.46 428.145 208.546C426.433 211.591 426.413 219.656 426.413 219.737V219.841L426.313 219.813C423.649 219.051 413.357 220.383 413.254 220.397L413.094 220.418L413.177 220.279Z" fill="#6C63FF"/>
<path d="M428.664 209.697H420.686C420.341 209.697 420.061 209.977 420.061 210.322C420.061 210.668 420.341 210.948 420.686 210.948H428.664C429.01 210.948 429.29 210.668 429.29 210.322C429.29 209.977 429.01 209.697 428.664 209.697Z" fill="#CCCCCC"/>
<path d="M428.664 223.306H420.686C420.341 223.306 420.061 223.586 420.061 223.931C420.061 224.277 420.341 224.557 420.686 224.557H428.664C429.01 224.557 429.29 224.277 429.29 223.931C429.29 223.586 429.01 223.306 428.664 223.306Z" fill="#CCCCCC"/>
<path d="M424.753 255.529C424.675 255.529 424.6 255.5 424.542 255.447C424.485 255.394 424.449 255.322 424.442 255.244L420.454 210.35C420.446 210.267 420.472 210.185 420.525 210.122C420.579 210.058 420.655 210.018 420.738 210.011C420.82 210.003 420.902 210.029 420.966 210.083C421.03 210.136 421.07 210.212 421.077 210.295L424.749 251.63L428.317 210.296C428.32 210.254 428.331 210.214 428.35 210.178C428.369 210.141 428.395 210.109 428.427 210.082C428.458 210.056 428.494 210.035 428.534 210.023C428.573 210.01 428.614 210.006 428.655 210.009C428.696 210.013 428.736 210.025 428.773 210.044C428.809 210.063 428.842 210.089 428.868 210.12C428.895 210.152 428.915 210.188 428.927 210.228C428.939 210.267 428.944 210.308 428.94 210.349L425.065 255.243C425.058 255.321 425.023 255.394 424.965 255.446C424.907 255.499 424.832 255.529 424.753 255.529Z" fill="#CCCCCC"/>
<path d="M422.177 223.504C422.131 223.292 422.131 223.072 422.179 222.86C422.226 222.648 422.32 222.449 422.452 222.277C422.585 222.105 422.754 221.965 422.947 221.865C423.14 221.765 423.352 221.709 423.569 221.701L426.886 217.956L428.946 220.445L425.131 223.232C425.122 223.597 424.979 223.947 424.729 224.214C424.479 224.481 424.139 224.647 423.775 224.68C423.411 224.714 423.047 224.612 422.753 224.396C422.458 224.179 422.254 223.862 422.177 223.504Z" fill="#FFB8B8"/>
<path d="M424.109 220.898L429.342 213.92L426.644 208.137L426.84 201.278L429.052 200.87L429.076 200.881C430.15 201.51 430.984 202.481 431.442 203.638C431.934 204.867 432.953 209.048 433.722 212.338C433.922 213.185 433.902 214.069 433.663 214.906C433.424 215.743 432.975 216.505 432.357 217.118L425.937 223.538L424.109 220.898Z" fill="#6C63FF"/>
<path d="M402.171 253.589L409.331 255.313C409.469 255.349 409.617 255.336 409.747 255.276C409.877 255.215 409.982 255.11 410.043 254.98L416.194 238.627C416.221 238.564 416.235 238.497 416.235 238.428C416.235 238.36 416.221 238.292 416.194 238.229C416.163 238.158 416.118 238.095 416.062 238.042C416.005 237.989 415.939 237.949 415.866 237.922L410.483 235.866C410.398 235.834 410.307 235.82 410.216 235.825C410.125 235.83 410.036 235.854 409.955 235.896C409.885 235.93 409.823 235.98 409.773 236.041C409.724 236.101 409.688 236.172 409.667 236.248L405.868 250.661L405.811 250.665C404.632 250.734 403.511 251.201 402.632 251.99C402.449 252.211 402.314 252.466 402.234 252.741C402.155 253.016 402.133 253.305 402.171 253.589Z" fill="#CCCCCC"/>
<path d="M407.356 244.422L407.323 244.733L413.851 245.424L413.884 245.113L407.356 244.422Z" fill="#B3B3B3"/>
<path d="M406.787 246.999L406.659 247.284L411.912 249.648L412.04 249.362L406.787 246.999Z" fill="#B3B3B3"/>
<path d="M414.571 242.922L408.379 240.871L408.508 240.586L414.699 242.636L414.571 242.922Z" fill="#B3B3B3"/>
<path d="M415.197 241.514L409.005 238.525L409.133 238.239L415.325 241.228L415.197 241.514Z" fill="#B3B3B3"/>
<path d="M406.241 249.449L406.038 249.687L410.502 253.5L410.705 253.262L406.241 249.449Z" fill="#B3B3B3"/>
<path d="M404.973 250.713L404.688 250.842L406.481 254.795L406.766 254.665L404.973 250.713Z" fill="#B3B3B3"/>
<path d="M579.472 223.365C579.206 223.303 578.958 223.184 578.743 223.016C578.529 222.848 578.354 222.635 578.231 222.392C578.108 222.149 578.04 221.882 578.031 221.61C578.022 221.337 578.073 221.067 578.18 220.816L571.312 205.299L575.241 204.31L580.757 219.874C581.166 220.082 581.484 220.432 581.651 220.859C581.818 221.286 581.823 221.76 581.665 222.19C581.506 222.62 581.196 222.978 580.791 223.194C580.387 223.411 579.918 223.471 579.472 223.365Z" fill="#A0616A"/>
<path d="M572.587 210.161C572.477 210.112 572.38 210.04 572.3 209.95C572.221 209.86 572.163 209.753 572.128 209.638L570.927 205.621C570.665 205.065 570.634 204.427 570.842 203.848C571.05 203.269 571.479 202.796 572.036 202.533C572.592 202.271 573.23 202.24 573.809 202.448C574.389 202.656 574.861 203.085 575.124 203.642L577.446 207.149C577.512 207.249 577.556 207.362 577.575 207.481C577.594 207.6 577.586 207.721 577.554 207.836C577.521 207.952 577.464 208.059 577.387 208.151C577.309 208.242 577.213 208.316 577.104 208.367L573.283 210.155C573.174 210.206 573.055 210.233 572.935 210.234C572.815 210.235 572.696 210.21 572.587 210.161Z" fill="#6C63FF"/>
<path d="M586.568 208.16L582.355 211.142C582.301 211.182 582.237 211.203 582.17 211.203C582.103 211.203 582.038 211.182 581.984 211.142L580.846 210.288C580.808 210.26 580.777 210.224 580.755 210.183C580.733 210.141 580.72 210.096 580.718 210.049C580.716 210.002 580.725 209.955 580.743 209.912C580.762 209.869 580.79 209.831 580.825 209.8L584.067 206.909C584.11 206.872 584.161 206.847 584.217 206.836C584.273 206.825 584.33 206.829 584.383 206.848L586.493 207.603C586.547 207.623 586.595 207.657 586.631 207.702C586.667 207.747 586.69 207.801 586.698 207.859C586.706 207.916 586.698 207.974 586.675 208.027C586.652 208.08 586.615 208.126 586.568 208.16Z" fill="#3F3D56"/>
<path d="M586.225 207.878C586.235 207.85 586.234 207.819 586.222 207.792C586.21 207.764 586.187 207.743 586.16 207.732L584.26 207.053C584.241 207.046 584.22 207.044 584.201 207.048C584.181 207.051 584.162 207.06 584.147 207.073L581.223 209.681L581.207 209.698C581.199 209.71 581.193 209.723 581.189 209.737C581.186 209.751 581.186 209.765 581.188 209.78C581.19 209.794 581.195 209.807 581.203 209.819C581.211 209.832 581.221 209.842 581.232 209.85L582.256 210.619C582.275 210.633 582.299 210.641 582.323 210.64C582.346 210.64 582.37 210.632 582.389 210.618L586.185 207.93C586.204 207.917 586.217 207.899 586.225 207.878Z" fill="white"/>
<path d="M571.214 252.628H573.34L574.352 244.427H571.214V252.628Z" fill="#A0616A"/>
<path d="M570.672 251.934L574.859 251.934C575.209 251.934 575.556 252.003 575.88 252.137C576.204 252.271 576.498 252.467 576.746 252.715C576.994 252.963 577.19 253.257 577.324 253.581C577.459 253.905 577.528 254.252 577.528 254.602V254.689L570.672 254.689L570.672 251.934Z" fill="#2F2E41"/>
<path d="M564.103 252.628H566.23L567.241 244.427H564.103V252.628Z" fill="#A0616A"/>
<path d="M563.561 251.934L567.748 251.934C568.099 251.934 568.446 252.003 568.77 252.137C569.093 252.271 569.388 252.467 569.635 252.715C569.883 252.963 570.08 253.257 570.214 253.581C570.348 253.905 570.417 254.252 570.417 254.602V254.689L563.561 254.689L563.561 251.934Z" fill="#2F2E41"/>
<path d="M563.652 250.122C563.507 249.955 563.425 249.742 563.422 249.52C562.915 244.306 564.294 216.895 567.481 214.554L567.501 214.535L576.827 212.925L577.001 213.098C577.014 213.34 578.71 237.367 574.027 249.629C573.97 249.776 573.87 249.901 573.74 249.99C573.611 250.078 573.457 250.125 573.3 250.125H571.438C571.33 250.125 571.224 250.103 571.125 250.06C571.027 250.017 570.938 249.954 570.865 249.875C570.792 249.796 570.736 249.702 570.701 249.601C570.666 249.499 570.652 249.391 570.66 249.284L572.168 226.323C572.173 226.257 572.153 226.192 572.112 226.141C572.071 226.089 572.012 226.055 571.946 226.045C571.881 226.036 571.815 226.051 571.76 226.089C571.706 226.126 571.668 226.183 571.654 226.247L567.409 249.551C567.372 249.715 567.284 249.863 567.157 249.974C567.03 250.084 566.871 250.15 566.704 250.163L564.259 250.345C564.239 250.346 564.22 250.347 564.201 250.347C563.995 250.347 563.798 250.266 563.652 250.122Z" fill="#2F2E41"/>
<path d="M575.925 198.869C578.277 198.869 580.184 196.962 580.184 194.61C580.184 192.257 578.277 190.35 575.925 190.35C573.572 190.35 571.665 192.257 571.665 194.61C571.665 196.962 573.572 198.869 575.925 198.869Z" fill="#A0616A"/>
<path d="M565.665 218.285C565.485 218.101 565.382 217.856 565.376 217.6L567.115 209.456C565.728 203.56 567.575 202.454 569.66 201.337L569.646 201.33L570.517 198.974C570.545 198.869 570.595 198.771 570.664 198.688C570.734 198.605 570.821 198.538 570.92 198.493C571.018 198.447 571.125 198.424 571.234 198.425C571.342 198.426 571.449 198.45 571.547 198.497L575.986 200.856C576.186 200.968 576.334 201.154 576.398 201.374C576.473 201.608 576.468 201.86 576.384 202.09L576.056 202.978C576.904 204.11 578.215 208.589 576.827 210.323L577.874 216.103C577.897 216.316 577.844 216.529 577.726 216.707C577.607 216.885 577.429 217.015 577.224 217.076L566.285 218.479C566.242 218.488 566.199 218.492 566.156 218.492C565.971 218.49 565.795 218.415 565.665 218.285Z" fill="#6C63FF"/>
<path d="M581.591 208.945C581.521 209.011 581.456 209.082 581.397 209.158L572.817 208.565L571.896 206.689L568.884 207.708L570.191 211.187C570.296 211.468 570.49 211.708 570.743 211.869C570.997 212.031 571.295 212.106 571.595 212.083L581.352 211.343C581.568 211.643 581.87 211.87 582.218 211.994C582.567 212.118 582.944 212.133 583.301 212.037C583.658 211.942 583.978 211.739 584.217 211.457C584.456 211.176 584.604 210.828 584.641 210.46C584.677 210.092 584.601 209.722 584.422 209.398C584.243 209.075 583.97 208.813 583.639 208.649C583.308 208.484 582.934 208.425 582.569 208.477C582.203 208.53 581.862 208.693 581.591 208.945Z" fill="#A0616A"/>
<path d="M572.497 208.595L568.757 209.84C568.651 209.875 568.538 209.887 568.426 209.875C568.315 209.863 568.207 209.827 568.111 209.77C568.015 209.712 567.932 209.635 567.868 209.542C567.804 209.45 567.761 209.345 567.742 209.235L567.06 205.365C566.882 204.819 566.927 204.225 567.186 203.713C567.445 203.201 567.897 202.812 568.442 202.632C568.987 202.453 569.581 202.497 570.094 202.754C570.607 203.012 570.996 203.463 571.177 204.007L572.947 207.502C572.997 207.602 573.026 207.712 573.03 207.824C573.035 207.936 573.015 208.048 572.972 208.151C572.929 208.255 572.865 208.348 572.783 208.425C572.701 208.501 572.603 208.559 572.497 208.595Z" fill="#6C63FF"/>
<path d="M573.532 191.246C575.448 191.246 577.001 189.693 577.001 187.778C577.001 185.862 575.448 184.309 573.532 184.309C571.616 184.309 570.063 185.862 570.063 187.778C570.063 189.693 571.616 191.246 573.532 191.246Z" fill="#2F2E41"/>
<path d="M579.957 195.136C580.293 195.203 580.641 195.174 580.961 195.052C581.124 194.96 581.263 194.83 581.367 194.674C581.47 194.517 581.536 194.339 581.557 194.153C582.203 189.859 578.552 190.212 578.12 190.026C577.848 189.866 577.592 189.679 577.357 189.469C576.749 189.131 576.055 188.979 575.362 189.03C574.542 188.954 573.715 189.055 572.938 189.326C572.26 189.644 571.698 190.162 571.326 190.811C570.959 191.458 570.69 192.155 570.527 192.881C570.272 193.702 570.225 194.574 570.392 195.418C570.569 196.048 570.939 196.606 571.449 197.016C571.96 197.425 572.586 197.664 573.239 197.7C573.134 197.195 573.199 196.669 573.423 196.205C573.647 195.74 574.018 195.362 574.478 195.129C575.21 194.769 576.043 194.67 576.84 194.848C577.356 194.952 577.88 195.018 578.406 195.043C578.922 195.062 579.542 195.092 579.957 195.136Z" fill="#2F2E41"/>
<path d="M913.32 253.474C913.323 248.924 915.133 244.561 918.352 241.345C921.571 238.128 925.935 236.322 930.485 236.322C935.035 236.322 939.4 238.128 942.618 241.345C945.837 244.561 947.647 248.924 947.651 253.474" fill="#F2F2F2"/>
<path d="M930.485 253.474C930.362 253.474 930.244 253.426 930.157 253.339C930.07 253.252 930.021 253.134 930.021 253.01V243.964C930.021 243.841 930.07 243.723 930.157 243.636C930.244 243.549 930.362 243.5 930.485 243.5C930.608 243.5 930.726 243.549 930.813 243.636C930.9 243.723 930.949 243.841 930.949 243.964V253.01C930.949 253.134 930.9 253.252 930.813 253.339C930.726 253.426 930.608 253.474 930.485 253.474Z" fill="#CCCCCC"/>
<path d="M930.485 250.365C930.374 250.366 930.267 250.326 930.183 250.254L924.616 245.475C924.569 245.436 924.53 245.387 924.502 245.333C924.474 245.279 924.457 245.219 924.452 245.158C924.448 245.097 924.455 245.035 924.474 244.977C924.493 244.919 924.523 244.865 924.563 244.819C924.603 244.772 924.651 244.734 924.706 244.706C924.761 244.679 924.821 244.662 924.882 244.658C924.943 244.654 925.004 244.661 925.062 244.681C925.12 244.7 925.174 244.731 925.22 244.771L930.787 249.549C930.859 249.611 930.911 249.694 930.934 249.785C930.958 249.877 930.953 249.974 930.92 250.063C930.887 250.152 930.828 250.228 930.75 250.282C930.672 250.337 930.58 250.365 930.485 250.365Z" fill="#CCCCCC"/>
<path d="M966.208 253.474C966.211 248.924 968.021 244.561 971.24 241.345C974.459 238.128 978.823 236.322 983.373 236.322C987.923 236.322 992.287 238.128 995.506 241.345C998.725 244.561 1000.53 248.924 1000.54 253.474" fill="#F2F2F2"/>
<path d="M983.373 253.474C983.25 253.474 983.132 253.426 983.045 253.339C982.958 253.252 982.909 253.134 982.909 253.01V243.964C982.909 243.841 982.958 243.723 983.045 243.636C983.132 243.549 983.25 243.5 983.373 243.5C983.496 243.5 983.614 243.549 983.701 243.636C983.788 243.723 983.837 243.841 983.837 243.964V253.01C983.837 253.134 983.788 253.252 983.701 253.339C983.614 253.426 983.496 253.474 983.373 253.474Z" fill="#CCCCCC"/>
<path d="M983.373 250.366C983.262 250.366 983.155 250.326 983.071 250.254L977.504 245.476C977.457 245.436 977.418 245.388 977.39 245.333C977.362 245.279 977.345 245.219 977.34 245.158C977.335 245.097 977.342 245.036 977.361 244.977C977.38 244.919 977.41 244.865 977.45 244.818C977.49 244.772 977.539 244.734 977.594 244.706C977.649 244.679 977.708 244.662 977.77 244.658C977.831 244.654 977.892 244.661 977.95 244.681C978.008 244.7 978.062 244.731 978.108 244.772L983.675 249.55C983.747 249.611 983.798 249.694 983.822 249.786C983.846 249.877 983.841 249.974 983.808 250.063C983.775 250.152 983.716 250.229 983.638 250.283C983.56 250.337 983.468 250.366 983.373 250.366Z" fill="#CCCCCC"/>
</g>
<defs>
<clipPath id="clip0_27_2">
<rect width="1048" height="256" fill="white"/>
</clipPath>
</defs>
</svg>
