<svg xmlns="http://www.w3.org/2000/svg" version="1.1" xmlns:xlink="http://www.w3.org/1999/xlink" xmlns:svgjs="http://svgjs.dev/svgjs" viewBox="0 0 800 800" width="800" height="800"><g stroke-width="3.5" stroke="hsla(0, 0%, 80%, 1.00)" fill="none"><rect width="133.33333333333334" height="114.28571428571429" x="0" y="0"></rect><rect width="133.33333333333334" height="114.28571428571429" x="133.33333333333334" y="0"></rect><rect width="133.33333333333334" height="114.28571428571429" x="266.6666666666667" y="0"></rect><rect width="133.33333333333334" height="114.28571428571429" x="400" y="0"></rect><rect width="133.33333333333334" height="114.28571428571429" x="533.3333333333334" y="0"></rect><rect width="133.33333333333334" height="114.28571428571429" x="666.6666666666667" y="0"></rect><rect width="133.33333333333334" height="114.28571428571429" x="800.0000000000001" y="0"></rect><rect width="133.33333333333334" height="114.28571428571429" x="0" y="114.28571428571429"></rect><rect width="133.33333333333334" height="114.28571428571429" x="133.33333333333334" y="114.28571428571429"></rect><rect width="133.33333333333334" height="114.28571428571429" x="266.6666666666667" y="114.28571428571429"></rect><rect width="133.33333333333334" height="114.28571428571429" x="400" y="114.28571428571429"></rect><rect width="133.33333333333334" height="114.28571428571429" x="533.3333333333334" y="114.28571428571429"></rect><rect width="133.33333333333334" height="114.28571428571429" x="666.6666666666667" y="114.28571428571429"></rect><rect width="133.33333333333334" height="114.28571428571429" x="800.0000000000001" y="114.28571428571429"></rect><rect width="133.33333333333334" height="114.28571428571429" x="0" y="228.57142857142858"></rect><rect width="133.33333333333334" height="114.28571428571429" x="133.33333333333334" y="228.57142857142858"></rect><rect width="133.33333333333334" height="114.28571428571429" x="266.6666666666667" y="228.57142857142858"></rect><rect width="133.33333333333334" height="114.28571428571429" x="400" y="228.57142857142858"></rect><rect width="133.33333333333334" height="114.28571428571429" x="533.3333333333334" y="228.57142857142858"></rect><rect width="133.33333333333334" height="114.28571428571429" x="666.6666666666667" y="228.57142857142858"></rect><rect width="133.33333333333334" height="114.28571428571429" x="800.0000000000001" y="228.57142857142858"></rect><rect width="133.33333333333334" height="114.28571428571429" x="0" y="342.8571428571429"></rect><rect width="133.33333333333334" height="114.28571428571429" x="133.33333333333334" y="342.8571428571429"></rect><rect width="133.33333333333334" height="114.28571428571429" x="266.6666666666667" y="342.8571428571429"></rect><rect width="133.33333333333334" height="114.28571428571429" x="400" y="342.8571428571429"></rect><rect width="133.33333333333334" height="114.28571428571429" x="533.3333333333334" y="342.8571428571429"></rect><rect width="133.33333333333334" height="114.28571428571429" x="666.6666666666667" y="342.8571428571429"></rect><rect width="133.33333333333334" height="114.28571428571429" x="800.0000000000001" y="342.8571428571429"></rect><rect width="133.33333333333334" height="114.28571428571429" x="0" y="457.14285714285717"></rect><rect width="133.33333333333334" height="114.28571428571429" x="133.33333333333334" y="457.14285714285717"></rect><rect width="133.33333333333334" height="114.28571428571429" x="266.6666666666667" y="457.14285714285717"></rect><rect width="133.33333333333334" height="114.28571428571429" x="400" y="457.14285714285717"></rect><rect width="133.33333333333334" height="114.28571428571429" x="533.3333333333334" y="457.14285714285717"></rect><rect width="133.33333333333334" height="114.28571428571429" x="666.6666666666667" y="457.14285714285717"></rect><rect width="133.33333333333334" height="114.28571428571429" x="800.0000000000001" y="457.14285714285717"></rect><rect width="133.33333333333334" height="114.28571428571429" x="0" y="571.4285714285714"></rect><rect width="133.33333333333334" height="114.28571428571429" x="133.33333333333334" y="571.4285714285714"></rect><rect width="133.33333333333334" height="114.28571428571429" x="266.6666666666667" y="571.4285714285714"></rect><rect width="133.33333333333334" height="114.28571428571429" x="400" y="571.4285714285714"></rect><rect width="133.33333333333334" height="114.28571428571429" x="533.3333333333334" y="571.4285714285714"></rect><rect width="133.33333333333334" height="114.28571428571429" x="666.6666666666667" y="571.4285714285714"></rect><rect width="133.33333333333334" height="114.28571428571429" x="800.0000000000001" y="571.4285714285714"></rect><rect width="133.33333333333334" height="114.28571428571429" x="0" y="685.7142857142858"></rect><rect width="133.33333333333334" height="114.28571428571429" x="133.33333333333334" y="685.7142857142858"></rect><rect width="133.33333333333334" height="114.28571428571429" x="266.6666666666667" y="685.7142857142858"></rect><rect width="133.33333333333334" height="114.28571428571429" x="400" y="685.7142857142858"></rect><rect width="133.33333333333334" height="114.28571428571429" x="533.3333333333334" y="685.7142857142858"></rect><rect width="133.33333333333334" height="114.28571428571429" x="666.6666666666667" y="685.7142857142858"></rect><rect width="133.33333333333334" height="114.28571428571429" x="800.0000000000001" y="685.7142857142858"></rect><rect width="133.33333333333334" height="114.28571428571429" x="0" y="800.0000000000001"></rect><rect width="133.33333333333334" height="114.28571428571429" x="133.33333333333334" y="800.0000000000001"></rect><rect width="133.33333333333334" height="114.28571428571429" x="266.6666666666667" y="800.0000000000001"></rect><rect width="133.33333333333334" height="114.28571428571429" x="400" y="800.0000000000001"></rect><rect width="133.33333333333334" height="114.28571428571429" x="533.3333333333334" y="800.0000000000001"></rect><rect width="133.33333333333334" height="114.28571428571429" x="666.6666666666667" y="800.0000000000001"></rect><rect width="133.33333333333334" height="114.28571428571429" x="800.0000000000001" y="800.0000000000001"></rect></g></svg>