<?xml version="1.0" encoding="UTF-8" ?>
<!DOCTYPE svg PUBLIC "-//W3C//DTD SVG 1.1//EN" "http://www.w3.org/Graphics/SVG/1.1/DTD/svg11.dtd">
<svg width="1798pt" height="1137pt" viewBox="0 0 1798 1137" version="1.1" xmlns="http://www.w3.org/2000/svg">
<g id="#ffffffff">
</g>
<g id="#1f71f2ff">
<path fill="#1f71f2" opacity="1.00" d=" M 683.63 0.00 L 697.17 0.00 C 715.90 3.47 734.90 7.81 751.47 17.61 C 762.88 24.51 771.70 34.72 780.24 44.77 C 793.19 60.59 802.58 79.17 808.19 98.80 C 813.79 118.77 817.88 139.15 824.31 158.88 C 831.35 179.58 841.21 199.34 853.66 217.32 C 862.60 229.32 873.57 240.07 886.72 247.38 C 902.43 256.84 920.85 260.64 938.95 261.79 C 984.97 261.79 1030.98 261.78 1077.00 261.79 C 1089.10 261.87 1101.23 261.33 1113.28 262.79 C 1129.18 264.67 1144.98 269.10 1158.91 277.13 C 1165.09 280.69 1170.61 285.34 1175.19 290.82 C 1184.27 300.66 1191.82 311.81 1198.89 323.15 C 1218.57 355.50 1234.69 389.83 1251.97 423.49 C 1242.31 423.70 1232.66 423.55 1223.01 423.61 C 1214.33 423.77 1205.68 422.82 1197.00 423.10 C 1142.99 423.09 1088.98 423.16 1034.98 423.07 C 1019.34 422.00 1003.66 422.54 988.00 422.42 C 976.59 422.26 965.11 423.02 953.79 421.24 C 938.31 419.57 923.17 414.89 909.47 407.50 C 892.30 398.61 877.94 384.83 867.10 368.92 C 856.77 353.54 847.58 337.44 838.90 321.08 C 820.37 286.75 803.49 251.47 782.68 218.42 C 774.69 205.17 764.45 193.04 751.42 184.53 C 736.54 174.42 718.80 169.79 701.33 166.52 C 679.39 163.08 657.18 161.65 634.99 161.12 C 619.03 160.00 603.01 160.90 587.02 160.49 C 610.20 121.60 633.73 82.91 657.16 44.17 C 665.86 29.37 675.24 14.98 683.63 0.00 Z" />
<path fill="#1f71f2" opacity="1.00" d=" M 548.02 392.74 C 552.34 392.82 556.64 392.14 560.96 392.19 C 587.64 392.22 614.32 392.19 641.00 392.20 C 655.31 392.37 669.65 391.77 683.94 392.70 C 707.03 393.40 730.56 396.49 751.75 406.17 C 765.10 412.25 777.47 420.78 787.17 431.84 C 800.38 445.90 808.42 463.65 817.84 480.25 C 835.33 511.76 852.65 543.35 870.12 574.87 C 881.11 594.20 890.95 614.23 903.08 632.90 C 911.70 645.35 921.68 657.18 934.17 665.92 C 952.76 679.47 975.49 685.73 998.02 688.68 C 1021.21 691.72 1044.65 691.68 1068.00 691.57 C 1178.67 691.57 1289.33 691.57 1400.00 691.57 C 1410.33 691.51 1420.67 691.88 1430.97 690.91 C 1445.35 691.04 1459.78 690.34 1474.14 691.45 C 1496.14 691.49 1518.86 694.92 1538.34 705.66 C 1553.84 713.88 1565.81 727.54 1574.23 742.74 C 1593.68 776.96 1613.07 811.21 1632.37 845.52 C 1638.87 856.68 1645.24 867.93 1651.39 879.30 C 1466.93 879.51 1282.46 879.32 1098.00 879.39 C 1053.72 878.40 1008.96 863.19 976.05 832.96 C 961.10 819.52 949.05 803.10 939.49 785.48 C 921.13 753.09 902.47 720.87 884.92 688.04 C 872.56 665.66 858.64 643.71 839.99 626.00 C 827.18 613.97 811.90 604.66 795.43 598.54 C 769.43 588.66 741.51 585.76 713.98 583.67 C 697.33 582.86 680.67 582.11 664.00 582.41 C 633.00 582.41 602.00 582.41 571.00 582.41 C 552.67 582.66 534.31 581.80 516.02 583.09 C 469.68 583.14 423.34 583.10 377.00 583.11 C 360.64 582.93 344.27 583.48 327.93 582.79 C 363.26 525.23 398.82 467.80 434.32 410.33 C 437.52 404.52 439.89 398.12 444.29 393.05 C 447.15 392.45 450.10 392.76 453.01 392.71 C 484.68 392.76 516.35 392.70 548.02 392.74 Z" />
</g>
<g id="#61eabcff">
<path fill="#61eabc" opacity="1.00" d=" M 558.85 205.83 C 561.26 202.17 562.81 197.80 566.14 194.84 C 579.06 194.16 592.05 194.77 605.00 194.56 C 629.81 194.75 654.70 193.75 679.41 196.49 C 695.53 198.17 711.54 201.91 726.25 208.84 C 744.39 217.58 759.42 232.17 769.53 249.52 C 778.82 265.09 786.85 281.37 795.78 297.15 C 806.54 317.39 817.80 337.35 828.55 357.60 C 837.22 372.86 844.65 388.88 854.62 403.38 C 871.70 428.66 896.78 449.23 926.39 457.70 C 942.72 462.81 959.98 463.90 977.00 463.71 C 989.65 463.60 1002.31 464.09 1014.94 463.15 C 1045.96 463.06 1076.98 463.14 1108.00 463.11 C 1132.32 462.91 1156.66 463.62 1180.97 462.53 C 1231.98 462.50 1282.99 462.52 1334.00 462.52 C 1356.52 462.06 1379.52 464.75 1400.44 473.50 C 1417.36 480.56 1432.21 492.04 1443.83 506.18 C 1454.25 518.47 1461.58 532.95 1468.68 547.32 C 1479.99 568.46 1490.67 589.94 1501.92 611.12 C 1507.47 622.41 1513.83 633.29 1519.14 644.70 C 1504.43 644.97 1489.71 644.65 1475.00 644.76 C 1464.32 644.44 1453.68 645.68 1443.00 645.36 C 1414.32 645.37 1385.63 645.32 1356.95 645.39 C 1336.66 646.64 1316.32 645.86 1296.00 646.07 C 1280.31 646.12 1264.62 645.97 1248.94 646.14 C 1239.64 646.82 1230.31 646.53 1221.00 646.58 C 1202.67 646.58 1184.34 646.58 1166.00 646.58 C 1154.66 646.68 1143.31 646.20 1132.00 647.20 C 1109.67 647.30 1087.33 647.21 1065.00 647.24 C 1051.68 647.31 1038.35 646.95 1025.05 647.80 C 1011.84 647.50 998.54 647.13 985.55 644.41 C 969.13 641.10 953.17 634.44 939.99 624.00 C 922.02 610.05 909.85 590.32 899.79 570.26 C 886.29 543.71 872.13 517.50 857.38 491.62 C 851.56 481.75 846.34 471.55 840.14 461.91 C 831.90 447.88 823.52 433.92 814.87 420.14 C 804.97 404.07 790.52 391.01 773.91 382.12 C 746.12 367.29 714.23 361.98 683.02 361.58 C 668.36 360.64 653.67 361.32 639.00 361.12 C 588.33 361.10 537.67 361.14 487.01 361.10 C 478.97 360.62 470.94 360.40 462.90 360.44 C 482.06 328.85 501.91 297.69 521.18 266.18 C 533.86 246.14 546.06 225.80 558.85 205.83 Z" />
</g>
<g id="#93ada8ff">
<path fill="#93ada8" opacity="1.00" d=" M 412.01 949.20 C 427.98 942.13 445.53 938.90 462.95 938.83 C 473.34 939.30 483.92 939.26 493.96 942.35 C 507.43 945.72 520.34 952.98 528.53 964.43 C 535.90 974.08 537.85 986.68 537.55 998.54 C 517.38 998.67 497.21 998.75 477.05 998.49 C 476.37 994.82 476.01 990.61 472.97 988.02 C 468.24 983.83 461.63 982.93 455.56 982.57 C 450.19 982.45 444.65 982.83 439.61 984.81 C 434.20 987.12 433.05 994.24 434.92 999.27 C 437.49 1004.58 443.58 1006.49 448.77 1008.24 C 461.51 1011.89 474.48 1014.65 487.28 1018.10 C 499.99 1021.85 512.69 1027.29 522.16 1036.85 C 529.65 1044.02 532.74 1054.85 532.24 1065.00 C 531.31 1075.85 529.05 1086.82 523.53 1096.34 C 518.27 1106.99 508.90 1114.81 499.16 1121.23 C 484.43 1131.30 466.29 1133.37 449.27 1137.00 L 416.70 1137.00 C 406.08 1134.33 395.26 1131.81 385.66 1126.32 C 374.11 1119.66 363.79 1109.79 359.06 1097.09 C 356.19 1089.56 356.06 1081.38 356.29 1073.44 C 376.58 1073.50 396.87 1073.44 417.16 1073.48 C 418.28 1078.44 419.40 1084.04 423.70 1087.31 C 432.74 1094.04 444.92 1094.97 455.51 1091.84 C 460.60 1090.33 466.67 1088.41 468.84 1083.02 C 470.18 1079.41 470.69 1074.36 467.18 1071.80 C 460.15 1066.21 451.20 1063.99 442.71 1061.65 C 428.98 1057.83 414.93 1054.91 401.80 1049.24 C 395.37 1046.43 388.82 1043.29 383.97 1038.07 C 380.89 1034.76 378.10 1031.17 375.75 1027.31 C 371.87 1020.95 371.56 1013.23 371.63 1005.99 C 371.65 992.43 376.51 978.76 385.80 968.78 C 392.94 960.39 401.89 953.60 412.01 949.20 Z" />
<path fill="#93ada8" opacity="1.00" d=" M 108.54 944.02 C 129.67 943.51 150.83 943.73 171.98 943.86 C 170.17 963.94 166.15 983.74 163.54 1003.72 C 160.92 1020.13 158.33 1036.54 156.07 1053.00 C 154.02 1066.34 151.65 1079.84 146.06 1092.23 C 139.95 1104.84 131.13 1116.67 118.64 1123.55 C 107.41 1130.87 94.33 1134.40 81.32 1137.00 L 57.62 1137.00 C 48.35 1135.96 39.16 1133.76 30.43 1130.49 C 19.60 1125.54 9.36 1117.61 4.56 1106.40 C 2.54 1101.88 1.22 1097.08 0.00 1092.30 L 0.00 1070.59 C 1.19 1063.71 2.74 1056.90 3.89 1050.02 C 22.72 1049.55 41.56 1049.65 60.39 1049.90 C 59.15 1059.59 57.48 1069.42 58.74 1079.21 C 59.38 1083.12 60.49 1087.76 64.42 1089.64 C 70.71 1092.31 78.83 1090.59 83.05 1085.05 C 89.62 1077.34 89.91 1066.77 91.47 1057.26 C 94.29 1041.09 96.14 1024.76 98.89 1008.58 C 102.35 987.10 105.40 965.55 108.54 944.02 Z" />
<path fill="#93ada8" opacity="1.00" d=" M 244.01 943.86 C 265.38 943.70 286.76 943.61 308.14 943.93 C 312.12 960.98 315.17 978.23 319.25 995.26 C 328.91 1040.81 339.16 1086.23 348.64 1131.82 C 337.44 1132.51 326.21 1132.03 315.00 1132.18 C 305.18 1132.03 295.33 1132.58 285.54 1131.62 C 284.13 1123.55 283.24 1115.40 281.50 1107.40 C 265.00 1107.02 248.50 1107.24 232.00 1107.17 C 227.82 1107.21 223.60 1106.96 219.45 1107.56 C 217.72 1109.31 216.89 1111.68 215.87 1113.87 C 213.37 1119.92 210.66 1125.87 207.82 1131.77 C 197.23 1132.52 186.60 1132.04 176.00 1132.17 C 166.22 1132.03 156.41 1132.57 146.65 1131.67 C 150.17 1123.16 154.97 1115.28 158.96 1107.00 C 164.87 1095.26 171.21 1083.74 177.05 1071.96 C 182.82 1061.88 187.36 1051.16 193.04 1041.03 C 201.65 1024.60 210.21 1008.14 218.76 991.68 C 227.77 976.06 235.02 959.49 244.01 943.86 M 258.27 1019.05 C 252.38 1031.43 247.68 1044.33 241.66 1056.64 C 240.27 1059.84 238.27 1063.64 239.94 1067.12 C 247.60 1067.89 255.32 1067.19 263.00 1067.43 C 267.15 1067.31 271.48 1067.94 275.50 1066.70 C 276.23 1059.67 273.73 1052.80 273.15 1045.83 C 270.56 1031.41 269.55 1016.72 266.15 1002.46 C 263.48 1007.96 260.92 1013.53 258.27 1019.05 Z" />
<path fill="#93ada8" opacity="1.00" d=" M 624.33 944.28 C 627.48 943.47 630.78 943.76 634.01 943.73 C 652.23 943.93 670.46 943.44 688.67 943.97 C 698.67 990.96 709.08 1037.84 719.09 1084.83 C 722.33 1100.45 726.39 1115.92 728.91 1131.69 C 718.30 1132.65 707.63 1131.97 697.00 1132.18 C 686.65 1132.03 676.28 1132.53 665.94 1131.76 C 664.62 1123.75 663.51 1115.71 662.12 1107.72 C 653.79 1106.75 645.36 1107.40 637.00 1107.17 C 624.47 1107.19 611.95 1107.07 599.43 1107.42 C 595.79 1115.50 591.96 1123.50 588.61 1131.71 C 578.43 1132.60 568.20 1132.00 558.00 1132.17 C 547.81 1132.01 537.59 1132.58 527.42 1131.74 C 529.52 1124.83 533.44 1118.70 536.40 1112.16 C 545.19 1095.91 553.55 1079.44 562.17 1063.11 C 571.54 1045.70 579.83 1027.73 589.51 1010.49 C 593.03 1003.08 597.32 996.06 600.75 988.61 C 607.38 976.18 613.80 963.64 620.17 951.07 C 621.39 948.71 622.46 946.20 624.33 944.28 M 641.14 1014.33 C 636.67 1024.45 631.91 1034.43 627.67 1044.65 C 624.64 1052.15 620.20 1059.19 618.92 1067.30 C 631.40 1067.52 643.90 1067.49 656.38 1067.31 C 655.06 1050.61 651.44 1034.19 649.45 1017.56 C 648.99 1013.39 648.22 1009.20 646.15 1005.51 C 644.21 1008.28 642.52 1011.23 641.14 1014.33 Z" />
<path fill="#93ada8" opacity="1.00" d=" M 796.30 944.10 C 806.18 943.39 816.10 943.89 826.00 943.75 C 860.00 943.75 894.00 943.75 928.00 943.75 C 942.98 943.96 957.99 943.31 972.96 944.08 C 971.46 960.71 968.00 977.09 965.90 993.65 C 947.07 994.28 928.22 993.16 909.42 994.29 C 903.48 1031.85 898.01 1069.50 892.17 1107.08 C 890.59 1115.10 890.26 1123.35 888.25 1131.28 C 885.01 1132.61 881.40 1132.11 878.00 1132.22 C 860.40 1131.93 842.78 1132.57 825.19 1131.90 C 828.04 1107.99 832.63 1084.32 835.59 1060.43 C 839.44 1038.42 842.08 1016.23 845.80 994.21 C 826.91 993.27 807.98 994.16 789.08 993.72 C 790.82 977.09 794.12 960.67 796.30 944.10 Z" />
<path fill="#93ada8" opacity="1.00" d=" M 989.41 944.15 C 999.92 943.33 1010.47 943.93 1021.00 943.75 C 1031.65 943.92 1042.32 943.37 1052.95 944.06 C 1052.24 954.03 1050.14 963.83 1048.73 973.71 C 1040.70 1026.38 1033.04 1079.10 1024.71 1131.73 C 1014.49 1132.63 1004.23 1131.98 994.00 1132.18 C 983.05 1132.01 972.08 1132.54 961.16 1131.73 C 964.59 1106.78 968.77 1081.94 972.22 1056.99 C 973.56 1046.77 975.85 1036.70 976.87 1026.45 C 981.25 999.05 985.35 971.60 989.41 944.15 Z" />
<path fill="#93ada8" opacity="1.00" d=" M 1070.09 944.14 C 1083.37 943.29 1096.70 943.96 1110.00 943.75 C 1132.00 943.98 1154.03 943.18 1176.01 944.39 C 1185.67 944.22 1195.25 945.72 1204.73 947.44 C 1215.02 949.91 1225.77 953.95 1232.35 962.71 C 1237.57 968.86 1239.56 977.09 1239.53 985.01 C 1239.93 994.26 1238.50 1003.59 1235.22 1012.25 C 1231.70 1021.47 1225.24 1029.48 1217.23 1035.20 C 1212.80 1038.40 1207.74 1040.53 1203.00 1043.19 C 1209.47 1048.69 1218.37 1051.48 1222.86 1059.15 C 1226.91 1066.76 1226.34 1075.73 1225.57 1084.05 C 1224.60 1095.07 1222.26 1105.96 1221.60 1117.02 C 1220.66 1122.68 1227.44 1125.91 1226.31 1131.60 C 1215.90 1132.73 1205.43 1131.95 1195.00 1132.18 C 1183.78 1132.03 1172.55 1132.46 1161.34 1131.95 C 1160.76 1119.91 1161.68 1107.91 1163.28 1095.99 C 1163.65 1088.56 1165.30 1080.43 1161.50 1073.59 C 1159.02 1070.00 1154.43 1068.79 1150.39 1067.96 C 1139.99 1066.47 1129.44 1066.16 1118.97 1066.63 C 1115.26 1066.50 1114.36 1070.65 1113.82 1073.51 C 1111.33 1092.97 1108.11 1112.34 1105.05 1131.72 C 1095.06 1132.61 1085.02 1132.00 1075.00 1132.17 C 1064.06 1132.12 1053.12 1132.36 1042.19 1131.82 C 1042.16 1120.71 1045.42 1110.01 1046.74 1099.05 C 1049.01 1086.57 1049.79 1073.87 1052.31 1061.44 C 1058.38 1022.36 1064.17 983.24 1070.09 944.14 M 1127.03 988.30 C 1125.19 1000.40 1122.56 1012.44 1122.03 1024.70 C 1134.03 1024.51 1146.08 1025.34 1158.05 1024.13 C 1166.32 1023.15 1175.91 1018.91 1177.99 1010.04 C 1179.03 1004.67 1179.37 998.03 1175.16 993.88 C 1171.20 990.59 1166.17 988.52 1161.01 988.33 C 1149.71 987.55 1138.33 987.39 1127.03 988.30 Z" />
<path fill="#93ada8" opacity="1.00" d=" M 1263.46 944.14 C 1273.62 943.40 1283.82 943.90 1294.00 943.75 C 1342.28 943.82 1390.58 943.63 1438.86 943.84 C 1438.70 953.43 1436.48 962.79 1435.34 972.27 C 1434.30 979.45 1432.94 986.57 1431.76 993.72 C 1413.10 994.08 1394.43 993.40 1375.78 994.10 C 1373.18 1006.70 1372.12 1019.56 1369.91 1032.23 C 1366.90 1054.50 1362.44 1076.56 1359.74 1098.88 C 1358.10 1109.83 1356.39 1120.77 1354.70 1131.71 C 1343.49 1132.69 1332.23 1131.95 1321.00 1132.17 C 1311.52 1132.08 1302.02 1132.47 1292.56 1131.75 C 1293.01 1122.74 1295.11 1113.93 1296.15 1105.00 C 1300.37 1078.45 1304.20 1051.85 1308.28 1025.28 C 1309.78 1014.93 1311.72 1004.64 1312.77 994.23 C 1293.94 993.29 1275.07 994.14 1256.23 993.71 C 1258.32 977.14 1261.09 960.67 1263.46 944.14 Z" />
<path fill="#93ada8" opacity="1.00" d=" M 1479.58 944.54 C 1482.26 943.56 1485.18 943.78 1488.00 943.72 C 1506.69 943.83 1525.38 943.65 1544.07 943.81 C 1545.99 954.05 1548.43 964.18 1550.64 974.36 C 1559.43 1017.20 1569.48 1059.77 1578.34 1102.60 C 1580.23 1112.33 1583.24 1121.85 1584.17 1131.76 C 1563.22 1132.13 1542.23 1132.62 1521.28 1131.69 C 1520.30 1123.53 1518.55 1115.49 1517.59 1107.34 C 1497.45 1107.21 1477.29 1106.94 1457.17 1107.38 C 1454.41 1107.00 1453.72 1109.87 1452.78 1111.81 C 1450.01 1118.54 1447.03 1125.18 1443.80 1131.71 C 1433.22 1132.62 1422.60 1132.00 1412.00 1132.17 C 1402.25 1132.03 1392.48 1132.56 1382.76 1131.70 C 1385.96 1123.60 1390.22 1115.98 1394.29 1108.31 C 1399.20 1100.15 1402.62 1091.23 1407.08 1082.83 C 1421.10 1057.71 1433.49 1031.72 1447.33 1006.51 C 1456.53 987.23 1467.23 968.72 1476.47 949.46 C 1477.38 947.75 1478.29 946.00 1479.58 944.54 M 1498.23 1010.24 C 1493.90 1020.84 1488.90 1031.15 1484.50 1041.72 C 1481.20 1050.12 1477.07 1058.15 1473.60 1066.48 C 1480.95 1068.17 1488.53 1067.21 1496.00 1067.43 C 1501.21 1067.29 1506.55 1067.99 1511.66 1066.67 C 1512.03 1062.06 1510.87 1057.55 1510.12 1053.06 C 1507.42 1036.27 1505.34 1019.37 1502.27 1002.65 C 1500.75 1005.09 1499.33 1007.59 1498.23 1010.24 Z" />
<path fill="#93ada8" opacity="1.00" d=" M 1699.93 944.06 C 1708.94 943.51 1717.97 943.81 1727.00 943.76 C 1750.66 943.69 1774.33 943.87 1798.00 943.67 L 1798.00 951.24 C 1794.56 961.79 1794.30 972.97 1792.50 983.85 C 1785.77 984.33 1779.02 984.24 1772.29 984.26 C 1768.50 1009.84 1764.73 1035.44 1760.89 1061.02 C 1759.92 1071.45 1757.48 1081.71 1757.03 1092.19 C 1763.34 1092.32 1769.65 1092.28 1775.97 1092.29 C 1774.84 1105.53 1772.25 1118.60 1770.53 1131.78 C 1762.70 1132.42 1754.84 1132.14 1747.00 1132.17 C 1722.11 1132.17 1697.22 1132.18 1672.33 1132.16 C 1674.04 1118.84 1675.93 1105.54 1678.17 1092.29 C 1684.98 1092.28 1691.81 1092.52 1698.60 1091.85 C 1701.12 1078.19 1702.93 1064.42 1704.75 1050.67 C 1708.10 1028.56 1711.78 1006.48 1714.29 984.26 C 1707.56 984.27 1700.83 984.30 1694.13 983.71 C 1695.95 970.47 1697.78 957.24 1699.93 944.06 Z" />
</g>
</svg>
