<svg width="39" height="46" viewBox="0 0 39 46" fill="none" xmlns="http://www.w3.org/2000/svg">
<g clip-path="url(#clip0_49_139)">
<path fill-rule="evenodd" clip-rule="evenodd" d="M39 6.73655C34.8657 2.57437 29.1543 0 22.8457 0C10.2283 0 0 10.2975 0 23C0 35.7026 10.2283 46 22.8457 46C29.1543 46 34.8657 43.4257 38.9999 39.2635L30.0253 30.2283C28.1879 32.0781 25.6495 33.2222 22.8457 33.2222C17.238 33.2222 12.692 28.6456 12.692 23C12.692 17.3544 17.238 12.7778 22.8457 12.7778C25.6495 12.7778 28.1879 13.9219 30.0254 15.7718L39 6.73655Z" fill="#5FAEC4"/>
<path fill-rule="evenodd" clip-rule="evenodd" d="M30.1975 30.3293L23.0967 22.9996L30.1975 15.6699C32.0147 17.5457 33.1387 20.1372 33.1387 22.9996C33.1387 25.862 32.0147 28.4534 30.1975 30.3293Z" fill="white"/>
</g>
<defs>
<clipPath id="clip0_49_139">
<rect width="39" height="46" fill="white"/>
</clipPath>
</defs>
</svg>
