<svg width="250" height="110" viewBox="0 0 250 110" fill="none" xmlns="http://www.w3.org/2000/svg">
<path d="M42.7854 94.5837L25.0519 79.8703C24.7336 79.6063 24.5496 79.215 24.5496 78.8021V33.5691C24.5496 33.0224 24.8713 32.5263 25.3711 32.3019L40.2708 25.616C41.1821 25.207 42.2158 25.8601 42.2348 26.8566L43.0458 69.3263C43.0542 69.7698 43.3174 70.169 43.722 70.3527C44.1016 70.5247 44.3585 70.8876 44.3945 71.3019L46.2383 92.6201C46.2819 93.1268 46.0447 93.6171 45.6194 93.898L44.4449 94.674C43.9323 95.0126 43.258 94.9758 42.7854 94.5837Z" fill="#86B6F6"/>
<path d="M43.5535 92.6852L43.1487 70.6201C43.1401 70.1488 43.3717 69.7051 43.7638 69.4418L72.8255 49.9311C73.3179 49.6006 73.9658 49.6175 74.44 49.973L90.6858 62.1513C91.4572 62.7293 91.4198 63.8957 90.6134 64.4237L45.7102 93.8215C44.7937 94.4216 43.5737 93.7787 43.5535 92.6852Z" fill="#0B60B0"/>
<path d="M28.1802 11.0159L47.8395 2.03534C48.3362 1.80843 48.92 1.8922 49.3325 2.24958L96.7438 43.3255C97.1626 43.6886 97.3258 44.2648 97.1589 44.7928L91.1489 63.8001C90.8501 64.7445 89.6858 65.083 88.9253 64.4466L27.865 13.3438C27.0813 12.6878 27.2501 11.4409 28.1802 11.0159Z" fill="#0670FA"/>
<path d="M105.322 57.4968C105.322 55.5515 105.716 53.8494 106.505 52.3905C107.295 50.9084 108.374 49.762 109.744 48.9515C111.136 48.141 112.692 47.7357 114.409 47.7357C115.895 47.7357 117.276 48.0831 118.553 48.7778C119.829 49.4494 120.804 50.341 121.478 51.4526V41.3789H124.681V67.0841H121.478V63.5063C120.851 64.641 119.922 65.5789 118.692 66.3199C117.462 67.0378 116.023 67.3968 114.374 67.3968C112.68 67.3968 111.136 66.9799 109.744 66.1463C108.374 65.3126 107.295 64.1431 106.505 62.6378C105.716 61.1326 105.322 59.4189 105.322 57.4968ZM121.478 57.5315C121.478 56.0957 121.187 54.8452 120.607 53.7799C120.027 52.7147 119.238 51.9042 118.239 51.3484C117.264 50.7694 116.185 50.4799 115.001 50.4799C113.817 50.4799 112.738 50.7578 111.763 51.3136C110.788 51.8694 110.01 52.6799 109.43 53.7452C108.85 54.8105 108.56 56.061 108.56 57.4968C108.56 58.9557 108.85 60.2294 109.43 61.3178C110.01 62.3831 110.788 63.2052 111.763 63.7841C112.738 64.3399 113.817 64.6178 115.001 64.6178C116.185 64.6178 117.264 64.3399 118.239 63.7841C119.238 63.2052 120.027 62.3831 120.607 61.3178C121.187 60.2294 121.478 58.9673 121.478 57.5315ZM131.672 44.9568C131.069 44.9568 130.558 44.7484 130.14 44.3315C129.722 43.9147 129.513 43.4052 129.513 42.8031C129.513 42.201 129.722 41.6915 130.14 41.2747C130.558 40.8578 131.069 40.6494 131.672 40.6494C132.252 40.6494 132.74 40.8578 133.134 41.2747C133.552 41.6915 133.761 42.201 133.761 42.8031C133.761 43.4052 133.552 43.9147 133.134 44.3315C132.74 44.7484 132.252 44.9568 131.672 44.9568ZM133.204 48.0484V67.0841H130.036V48.0484H133.204ZM146.473 47.7357C148.121 47.7357 149.561 48.0947 150.791 48.8126C152.044 49.5305 152.973 50.4336 153.576 51.522V48.0484H156.78V67.501C156.78 69.2378 156.408 70.7778 155.666 72.121C154.923 73.4873 153.855 74.5526 152.462 75.3168C151.093 76.081 149.491 76.4631 147.657 76.4631C145.15 76.4631 143.061 75.8726 141.39 74.6915C139.718 73.5105 138.732 71.901 138.43 69.8631H141.564C141.912 71.021 142.632 71.9473 143.723 72.642C144.814 73.3599 146.125 73.7189 147.657 73.7189C149.398 73.7189 150.814 73.1747 151.905 72.0863C153.019 70.9978 153.576 69.4694 153.576 67.501V63.5063C152.95 64.6178 152.021 65.5442 150.791 66.2852C149.561 67.0263 148.121 67.3968 146.473 67.3968C144.779 67.3968 143.235 66.9799 141.842 66.1463C140.473 65.3126 139.393 64.1431 138.604 62.6378C137.815 61.1326 137.42 59.4189 137.42 57.4968C137.42 55.5515 137.815 53.8494 138.604 52.3905C139.393 50.9084 140.473 49.762 141.842 48.9515C143.235 48.141 144.779 47.7357 146.473 47.7357ZM153.576 57.5315C153.576 56.0957 153.286 54.8452 152.706 53.7799C152.126 52.7147 151.336 51.9042 150.338 51.3484C149.363 50.7694 148.284 50.4799 147.1 50.4799C145.916 50.4799 144.837 50.7578 143.862 51.3136C142.887 51.8694 142.109 52.6799 141.529 53.7452C140.949 54.8105 140.659 56.061 140.659 57.4968C140.659 58.9557 140.949 60.2294 141.529 61.3178C142.109 62.3831 142.887 63.2052 143.862 63.7841C144.837 64.3399 145.916 64.6178 147.1 64.6178C148.284 64.6178 149.363 64.3399 150.338 63.7841C151.336 63.2052 152.126 62.3831 152.706 61.3178C153.286 60.2294 153.576 58.9673 153.576 57.5315ZM163.771 44.9568C163.167 44.9568 162.656 44.7484 162.239 44.3315C161.821 43.9147 161.612 43.4052 161.612 42.8031C161.612 42.201 161.821 41.6915 162.239 41.2747C162.656 40.8578 163.167 40.6494 163.771 40.6494C164.351 40.6494 164.838 40.8578 165.233 41.2747C165.651 41.6915 165.86 42.201 165.86 42.8031C165.86 43.4052 165.651 43.9147 165.233 44.3315C164.838 44.7484 164.351 44.9568 163.771 44.9568ZM165.303 48.0484V67.0841H162.134V48.0484H165.303ZM181.009 62.0473V67.0841H177.98C175.821 67.0841 174.138 66.5631 172.931 65.521C171.724 64.4557 171.121 62.7305 171.121 60.3452V52.6336H168.753V47.701H171.121V42.9768H177.075V47.701H180.975V52.6336H177.075V60.4147C177.075 60.9936 177.214 61.4105 177.493 61.6652C177.771 61.9199 178.235 62.0473 178.885 62.0473H181.009ZM183.142 57.3578C183.142 55.3663 183.513 53.6178 184.256 52.1126C185.022 50.6073 186.055 49.4494 187.355 48.6389C188.655 47.8284 190.106 47.4231 191.707 47.4231C193.077 47.4231 194.272 47.701 195.294 48.2568C196.338 48.8126 197.139 49.542 197.696 50.4452V47.701H203.65V67.0841H197.696V64.3399C197.116 65.2431 196.303 65.9726 195.259 66.5284C194.238 67.0842 193.042 67.362 191.673 67.362C190.094 67.362 188.655 66.9568 187.355 66.1463C186.055 65.3126 185.022 64.1431 184.256 62.6378C183.513 61.1094 183.142 59.3494 183.142 57.3578ZM197.696 57.3926C197.696 55.9105 197.278 54.741 196.443 53.8841C195.63 53.0273 194.632 52.5989 193.448 52.5989C192.264 52.5989 191.255 53.0273 190.419 53.8841C189.607 54.7178 189.2 55.8757 189.2 57.3578C189.2 58.8399 189.607 60.021 190.419 60.901C191.255 61.7578 192.264 62.1863 193.448 62.1863C194.632 62.1863 195.63 61.7578 196.443 60.901C197.278 60.0442 197.696 58.8747 197.696 57.3926ZM213.912 41.3789V67.0841H207.958V41.3789H213.912Z" fill="#77B0FF"/>
<path d="M221.221 45.6861C220.176 45.6861 219.318 45.385 218.644 44.7829C217.994 44.1577 217.669 43.3934 217.669 42.4903C217.669 41.564 217.994 40.7998 218.644 40.1977C219.318 39.5724 220.176 39.2598 221.221 39.2598C222.242 39.2598 223.078 39.5724 223.728 40.1977C224.401 40.7998 224.738 41.564 224.738 42.4903C224.738 43.3934 224.401 44.1577 223.728 44.7829C223.078 45.385 222.242 45.6861 221.221 45.6861ZM224.181 47.7008V67.084H218.227V47.7008H224.181ZM240.334 47.4924C242.609 47.4924 244.42 48.2334 245.766 49.7156C247.136 51.1745 247.82 53.1892 247.82 55.7598V67.084H241.901V56.5587C241.901 55.2619 241.565 54.2545 240.891 53.5366C240.218 52.8187 239.313 52.4598 238.175 52.4598C237.038 52.4598 236.133 52.8187 235.46 53.5366C234.786 54.2545 234.45 55.2619 234.45 56.5587V67.084H228.496V47.7008H234.45V50.2713C235.053 49.4145 235.866 48.7429 236.887 48.2566C237.909 47.7471 239.058 47.4924 240.334 47.4924Z" fill="#0C60D5"/>
</svg>
