<svg width="163" height="103" viewBox="0 0 163 103" fill="none" xmlns="http://www.w3.org/2000/svg">
<g clip-path="url(#clip0_49_103)">
<path d="M61.9753 0H63.2028C64.9008 0.314345 66.6233 0.707502 68.1255 1.59528C69.1599 2.22034 69.9594 3.14526 70.7336 4.05568C71.9076 5.4888 72.7589 7.17195 73.2675 8.95022C73.7752 10.7593 74.146 12.6055 74.7289 14.3928C75.3671 16.268 76.261 18.0581 77.3896 19.6869C78.2001 20.7739 79.1946 21.7478 80.3867 22.41C81.8109 23.267 83.4808 23.6112 85.1217 23.7154C89.2937 23.7154 93.4648 23.7145 97.6368 23.7154C98.7338 23.7226 99.8334 23.6737 100.926 23.806C102.367 23.9763 103.8 24.3776 105.062 25.105C105.623 25.4275 106.123 25.8487 106.538 26.3452C107.362 27.2366 108.046 28.2466 108.687 29.2739C110.471 32.2045 111.932 35.3144 113.499 38.3637C112.623 38.3827 111.748 38.3691 110.874 38.3745C110.087 38.389 109.302 38.303 108.516 38.3283C103.619 38.3274 98.7229 38.3338 93.8274 38.3256C92.4096 38.2287 90.9881 38.2776 89.5684 38.2667C88.534 38.2522 87.4933 38.3211 86.467 38.1598C85.0637 38.0085 83.6912 37.5846 82.4492 36.9151C80.8926 36.1098 79.5908 34.8615 78.6081 33.4202C77.6716 32.0269 76.8384 30.5684 76.0515 29.0864C74.3717 25.9765 72.8414 22.7805 70.9548 19.7865C70.2305 18.5862 69.3022 17.4874 68.1209 16.7164C66.772 15.8006 65.1637 15.3812 63.58 15.0849C61.591 14.7733 59.5775 14.6438 57.5658 14.5957C56.1189 14.4943 54.6666 14.5758 53.217 14.5387C55.3185 11.0157 57.4516 7.51076 59.5757 4.00133C60.3644 2.66061 61.2147 1.35703 61.9753 0Z" fill="#1F71F2"/>
<path d="M49.6815 35.5776C50.0732 35.5848 50.463 35.5232 50.8546 35.5278C53.2734 35.5305 55.6921 35.5278 58.1108 35.5287C59.4081 35.5441 60.7081 35.4897 62.0035 35.574C64.0968 35.6374 66.2299 35.9173 68.151 36.7942C69.3612 37.345 70.4826 38.1177 71.362 39.1196C72.5596 40.3933 73.2884 42.0013 74.1424 43.5051C75.728 46.3595 77.2982 49.2212 78.8819 52.0766C79.8782 53.8277 80.7703 55.6422 81.87 57.3335C82.6514 58.4613 83.5562 59.533 84.6885 60.3248C86.3738 61.5522 88.4344 62.1193 90.4769 62.3866C92.5792 62.662 94.7042 62.6583 96.821 62.6484C106.854 62.6484 116.886 62.6484 126.919 62.6484C127.855 62.6429 128.793 62.6765 129.727 62.5886C131.03 62.6004 132.338 62.537 133.64 62.6375C135.635 62.6411 137.694 62.9518 139.46 63.9248C140.865 64.6694 141.951 65.9069 142.714 67.2838C144.477 70.3838 146.235 73.4865 147.985 76.5946C148.574 77.6056 149.151 78.6247 149.709 79.6547C132.987 79.6737 116.263 79.6565 99.5407 79.6629C95.5264 79.5732 91.4687 78.1953 88.4852 75.4568C87.1298 74.2393 86.0374 72.7518 85.1708 71.1556C83.5063 68.2214 81.8147 65.3026 80.2236 62.3286C79.1031 60.3012 77.8412 58.3128 76.1505 56.7084C74.9892 55.6186 73.6039 54.7753 72.1108 54.2209C69.7538 53.3258 67.2226 53.0631 64.7269 52.8738C63.2174 52.8004 61.7071 52.7325 60.1959 52.7596C57.3855 52.7596 54.5752 52.7596 51.7648 52.7596C50.1031 52.7823 48.4387 52.7044 46.7805 52.8213C42.5795 52.8258 38.3785 52.8222 34.1775 52.8231C32.6944 52.8068 31.2103 52.8566 29.729 52.7941C32.9319 47.5798 36.1556 42.3772 39.3739 37.171C39.664 36.6447 39.8789 36.065 40.2778 35.6057C40.537 35.5513 40.8045 35.5794 41.0683 35.5749C43.9394 35.5794 46.8105 35.574 49.6815 35.5776Z" fill="#1F71F2"/>
<path d="M50.6633 18.6458C50.8818 18.3142 51.0223 17.9184 51.3242 17.6502C52.4955 17.5886 53.6731 17.6439 54.8471 17.6248C57.0963 17.6421 59.3527 17.5515 61.5928 17.7997C63.0542 17.9519 64.5056 18.2907 65.8392 18.9185C67.4837 19.7102 68.8463 21.0319 69.7628 22.6036C70.605 24.0141 71.333 25.4889 72.1425 26.9184C73.118 28.7519 74.1388 30.5601 75.1133 32.3945C75.8993 33.7769 76.5729 35.2282 77.4767 36.5417C79.0251 38.8318 81.2988 40.6952 83.9831 41.4625C85.4635 41.9254 87.0283 42.0242 88.5712 42.0069C89.718 41.997 90.8658 42.0414 92.0107 41.9562C94.8229 41.9481 97.6351 41.9553 100.447 41.9526C102.652 41.9345 104.859 41.9988 107.062 41.9001C111.687 41.8973 116.311 41.8991 120.936 41.8991C122.977 41.8575 125.062 42.1012 126.959 42.8938C128.493 43.5334 129.839 44.5733 130.892 45.8543C131.837 46.9676 132.501 48.2793 133.145 49.5811C134.17 51.4962 135.139 53.442 136.159 55.3607C136.662 56.3835 137.238 57.3691 137.72 58.4027C136.386 58.4272 135.052 58.3982 133.718 58.4081C132.75 58.3791 131.785 58.4915 130.817 58.4625C128.217 58.4634 125.616 58.4589 123.016 58.4652C121.177 58.5784 119.333 58.5078 117.491 58.5268C116.068 58.5313 114.646 58.5177 113.224 58.5331C112.381 58.5947 111.535 58.5685 110.691 58.573C109.03 58.573 107.368 58.573 105.705 58.573C104.677 58.5821 103.648 58.5386 102.623 58.6292C100.599 58.6382 98.5734 58.6301 96.549 58.6328C95.3415 58.6391 94.133 58.6065 92.9273 58.6835C91.7297 58.6563 90.524 58.6228 89.3464 58.3764C87.8578 58.0766 86.4109 57.4733 85.2161 56.5275C83.587 55.2638 82.4837 53.4765 81.5717 51.6592C80.3478 49.2541 79.0641 46.8797 77.7269 44.5353C77.1993 43.6412 76.7261 42.7172 76.164 41.8439C75.417 40.5729 74.6573 39.3083 73.8731 38.06C72.9756 36.6042 71.6657 35.4211 70.1599 34.6158C67.6405 33.2723 64.7495 32.7913 61.9201 32.7551C60.5911 32.6699 59.2593 32.7315 57.9294 32.7134C53.3359 32.7116 48.7432 32.7152 44.1506 32.7116C43.4217 32.6681 42.6937 32.6482 41.9648 32.6518C43.7018 29.7901 45.5013 26.9673 47.2483 24.1128C48.3978 22.2974 49.5038 20.4549 50.6633 18.6458Z" fill="#61EABC"/>
<path d="M37.3512 85.9873C38.799 85.3468 40.39 85.0542 41.9692 85.0479C42.9112 85.0904 43.8703 85.0868 44.7805 85.3667C46.0016 85.672 47.172 86.3297 47.9145 87.3669C48.5826 88.2411 48.7594 89.3825 48.7322 90.4569C46.9037 90.4687 45.0751 90.476 43.2475 90.4524C43.1858 90.1199 43.1532 89.7386 42.8776 89.5039C42.4488 89.1244 41.8496 89.0428 41.2993 89.0102C40.8125 88.9994 40.3102 89.0338 39.8533 89.2131C39.3629 89.4224 39.2586 90.0674 39.4281 90.5231C39.6611 91.0041 40.2132 91.1771 40.6837 91.3357C41.8387 91.6663 43.0145 91.9163 44.1749 92.2289C45.3272 92.5686 46.4785 93.0614 47.337 93.9274C48.016 94.5769 48.2961 95.558 48.2508 96.4775C48.1665 97.4604 47.9616 98.4542 47.4612 99.3166C46.9843 100.281 46.1349 100.99 45.2519 101.571C43.9165 102.484 42.272 102.671 40.7291 103H37.7764C36.8136 102.758 35.8327 102.53 34.9624 102.032C33.9153 101.429 32.9798 100.535 32.551 99.3845C32.2908 98.7024 32.279 97.9613 32.2998 97.2421C34.1393 97.2475 35.9787 97.2421 37.8181 97.2457C37.9196 97.695 38.0212 98.2023 38.411 98.4986C39.2305 99.1082 40.3347 99.1925 41.2948 98.9089C41.7562 98.7721 42.3065 98.5982 42.5032 98.1099C42.6247 97.7829 42.6709 97.3254 42.3527 97.0935C41.7154 96.5871 40.904 96.386 40.1344 96.174C38.8896 95.828 37.6159 95.5635 36.4256 95.0498C35.8427 94.7953 35.2489 94.5108 34.8092 94.0379C34.53 93.7381 34.2771 93.4129 34.064 93.0632C33.7123 92.487 33.6842 91.7877 33.6905 91.1318C33.6923 89.9034 34.1329 88.6651 34.9751 87.761C35.6224 87.001 36.4338 86.3859 37.3512 85.9873Z" fill="#93ADA8"/>
<path d="M9.83983 85.5183C11.7554 85.4721 13.6737 85.492 15.5911 85.5038C15.427 87.3228 15.0625 89.1165 14.8259 90.9265C14.5884 92.413 14.3536 93.8996 14.1487 95.3907C13.9629 96.5992 13.748 97.8221 13.2413 98.9445C12.6873 100.087 11.8878 101.159 10.7555 101.782C9.73739 102.445 8.55161 102.765 7.37217 103H5.22362C4.38323 102.906 3.5501 102.707 2.75867 102.41C1.77686 101.962 0.848543 101.244 0.413393 100.228C0.230267 99.8187 0.110601 99.3839 0 98.9509V96.9842C0.107881 96.3609 0.248398 95.744 0.352653 95.1208C2.05971 95.0782 3.76768 95.0872 5.47473 95.1099C5.36232 95.9877 5.21092 96.8782 5.32515 97.7651C5.38317 98.1193 5.4838 98.5396 5.84008 98.7099C6.41031 98.9518 7.14644 98.796 7.52901 98.2941C8.12462 97.5957 8.15091 96.6381 8.29233 95.7766C8.54798 94.3118 8.7157 92.8325 8.965 91.3667C9.27867 89.4209 9.55517 87.4687 9.83983 85.5183Z" fill="#93ADA8"/>
<path d="M22.121 85.5034C24.0583 85.4889 25.9965 85.4807 27.9348 85.5097C28.2956 87.0543 28.5721 88.6169 28.942 90.1597C29.8177 94.286 30.7469 98.4006 31.6063 102.531C30.591 102.593 29.5729 102.55 28.5567 102.563C27.6664 102.55 26.7735 102.599 25.8859 102.512C25.7581 101.781 25.6774 101.043 25.5197 100.318C24.0239 100.284 22.528 100.304 21.0322 100.298C20.6532 100.301 20.2707 100.278 19.8945 100.333C19.7376 100.491 19.6624 100.706 19.5699 100.904C19.3433 101.453 19.0976 101.992 18.8401 102.526C17.8801 102.594 16.9164 102.55 15.9554 102.562C15.0688 102.55 14.1795 102.598 13.2947 102.517C13.6138 101.746 14.0489 101.032 14.4107 100.282C14.9464 99.2186 15.5212 98.175 16.0506 97.1079C16.5737 96.1947 16.9853 95.2236 17.5002 94.3059C18.2808 92.8176 19.0568 91.3265 19.8319 89.8354C20.6487 88.4204 21.306 86.9193 22.121 85.5034ZM23.4137 92.3148C22.8798 93.4363 22.4537 94.6049 21.9079 95.72C21.7819 96.0099 21.6006 96.3542 21.752 96.6694C22.4464 96.7392 23.1463 96.6758 23.8425 96.6975C24.2188 96.6866 24.6113 96.7437 24.9757 96.6314C25.0419 95.9945 24.8153 95.3722 24.7627 94.7408C24.5279 93.4345 24.4363 92.1037 24.1281 90.8119C23.8861 91.3102 23.654 91.8147 23.4137 92.3148Z" fill="#93ADA8"/>
<path d="M56.5995 85.5415C56.885 85.4681 57.1842 85.4944 57.477 85.4917C59.1288 85.5098 60.7814 85.4654 62.4323 85.5134C63.3389 89.7702 64.2826 94.017 65.1901 98.2738C65.4838 99.6888 65.8518 101.09 66.0803 102.519C65.1184 102.606 64.1511 102.544 63.1875 102.563C62.2492 102.55 61.3091 102.595 60.3717 102.525C60.252 101.8 60.1514 101.071 60.0254 100.347C59.2702 100.26 58.506 100.318 57.7481 100.298C56.6122 100.299 55.4771 100.289 54.3421 100.32C54.0121 101.052 53.6649 101.777 53.3612 102.521C52.4383 102.601 51.5109 102.547 50.5862 102.562C49.6624 102.548 48.7359 102.599 47.814 102.523C48.0043 101.897 48.3597 101.342 48.6281 100.75C49.4249 99.2776 50.1828 97.7855 50.9643 96.3062C51.8137 94.7291 52.5653 93.1012 53.4428 91.5394C53.7619 90.8682 54.1508 90.2322 54.4618 89.5573C55.0628 88.4313 55.6449 87.2953 56.2223 86.1566C56.3329 85.9428 56.4299 85.7154 56.5995 85.5415ZM58.1234 91.8873C57.7182 92.804 57.2866 93.7081 56.9023 94.634C56.6276 95.3134 56.2251 95.9511 56.109 96.6858C57.2404 96.7057 58.3736 96.703 59.505 96.6867C59.3853 95.1739 59.0572 93.6864 58.8768 92.1799C58.8351 91.8021 58.7652 91.4226 58.5776 91.0883C58.4017 91.3392 58.2485 91.6065 58.1234 91.8873Z" fill="#93ADA8"/>
<path d="M72.1897 85.5253C73.0854 85.4609 73.9847 85.5062 74.8822 85.4936C77.9645 85.4936 81.0468 85.4936 84.1291 85.4936C85.4872 85.5126 86.8479 85.4537 88.205 85.5235C88.0691 87.03 87.7554 88.5138 87.565 90.014C85.8579 90.071 84.1491 89.9696 82.4447 90.0719C81.9062 93.4745 81.4103 96.8852 80.8809 100.29C80.7377 101.016 80.7078 101.763 80.5255 102.482C80.2318 102.602 79.9045 102.557 79.5963 102.567C78.0008 102.541 76.4034 102.599 74.8088 102.538C75.0671 100.372 75.4832 98.2277 75.7516 96.0635C76.1006 94.0697 76.3399 92.0595 76.6772 90.0647C74.9647 89.9795 73.2486 90.0602 71.5352 90.0203C71.6929 88.5138 71.9921 87.0263 72.1897 85.5253Z" fill="#93ADA8"/>
<path d="M89.6963 85.5299C90.6491 85.4556 91.6055 85.51 92.5601 85.4936C93.5256 85.509 94.4929 85.4592 95.4566 85.5217C95.3922 86.4249 95.2019 87.3127 95.074 88.2077C94.3461 92.979 93.6516 97.7549 92.8965 102.523C91.97 102.604 91.0398 102.545 90.1124 102.563C89.1197 102.548 88.1252 102.596 87.1353 102.523C87.4462 100.262 87.8251 98.0122 88.1379 95.752C88.2594 94.8262 88.467 93.9139 88.5595 92.9854C88.9565 90.5032 89.3282 88.0166 89.6963 85.5299Z" fill="#93ADA8"/>
<path d="M97.0103 85.5285C98.2142 85.4515 99.4227 85.5122 100.628 85.4932C102.623 85.514 104.62 85.4416 106.613 85.5512C107.488 85.5358 108.357 85.6717 109.216 85.8275C110.149 86.0512 111.124 86.4172 111.72 87.2108C112.193 87.7679 112.374 88.5135 112.371 89.2309C112.407 90.0689 112.278 90.9141 111.98 91.6986C111.661 92.5338 111.076 93.2594 110.349 93.7776C109.948 94.0675 109.489 94.2604 109.059 94.5014C109.646 94.9996 110.453 95.2524 110.86 95.9472C111.227 96.6366 111.175 97.4492 111.106 98.2029C111.018 99.2012 110.805 100.188 110.746 101.19C110.66 101.702 111.275 101.995 111.173 102.51C110.229 102.613 109.28 102.542 108.334 102.563C107.317 102.549 106.299 102.588 105.283 102.542C105.23 101.451 105.314 100.364 105.459 99.2845C105.492 98.6114 105.642 97.875 105.297 97.2553C105.072 96.9301 104.656 96.8205 104.29 96.7453C103.347 96.6103 102.391 96.5822 101.442 96.6248C101.105 96.613 101.024 96.989 100.975 97.2481C100.749 99.0109 100.457 100.766 100.18 102.521C99.274 102.602 98.3638 102.547 97.4554 102.562C96.4636 102.558 95.4718 102.579 94.481 102.53C94.4783 101.524 94.7738 100.555 94.8935 99.5617C95.0993 98.4312 95.17 97.2807 95.3984 96.1547C95.9487 92.6144 96.4736 89.0706 97.0103 85.5285ZM102.172 89.529C102.005 90.6251 101.767 91.7158 101.719 92.8264C102.807 92.8092 103.899 92.8844 104.984 92.7748C105.734 92.686 106.604 92.3019 106.792 91.4984C106.886 91.0119 106.917 90.4104 106.536 90.0345C106.177 89.7364 105.721 89.5489 105.253 89.5317C104.228 89.461 103.197 89.4465 102.172 89.529Z" fill="#93ADA8"/>
<path d="M114.541 85.5291C115.462 85.462 116.386 85.5073 117.309 85.4937C121.686 85.5001 126.065 85.4829 130.442 85.5019C130.427 86.3707 130.226 87.2186 130.123 88.0774C130.028 88.7278 129.905 89.3728 129.798 90.0205C128.107 90.0531 126.414 89.9915 124.723 90.0549C124.488 91.1963 124.391 92.3613 124.191 93.5091C123.918 95.5265 123.514 97.5249 123.269 99.5469C123.12 100.539 122.965 101.53 122.812 102.521C121.796 102.61 120.775 102.543 119.757 102.563C118.898 102.554 118.036 102.59 117.179 102.525C117.22 101.708 117.41 100.91 117.504 100.101C117.887 97.6961 118.234 95.2865 118.604 92.8795C118.74 91.9419 118.916 91.0097 119.011 90.0667C117.304 89.9815 115.593 90.0585 113.885 90.0196C114.075 88.5185 114.326 87.0265 114.541 85.5291Z" fill="#93ADA8"/>
<path d="M134.133 85.5655C134.376 85.4767 134.641 85.4966 134.897 85.4912C136.591 85.5012 138.285 85.4849 139.98 85.4994C140.154 86.427 140.375 87.3447 140.575 88.2669C141.372 92.1477 142.283 96.0041 143.087 99.884C143.258 100.765 143.531 101.628 143.615 102.526C141.716 102.559 139.813 102.604 137.914 102.519C137.825 101.78 137.666 101.052 137.579 100.313C135.753 100.302 133.926 100.277 132.102 100.317C131.851 100.283 131.789 100.543 131.704 100.718C131.453 101.328 131.182 101.93 130.89 102.521C129.93 102.604 128.968 102.547 128.007 102.563C127.123 102.55 126.237 102.598 125.356 102.52C125.646 101.786 126.032 101.096 126.401 100.401C126.846 99.6621 127.156 98.854 127.561 98.0931C128.832 95.8175 129.955 93.4631 131.21 91.1793C132.044 89.4328 133.014 87.7559 133.851 86.0112C133.934 85.8563 134.016 85.6978 134.133 85.5655ZM135.824 91.5172C135.431 92.4775 134.978 93.4114 134.579 94.369C134.28 95.1299 133.906 95.8573 133.591 96.612C134.257 96.765 134.945 96.6781 135.622 96.698C136.094 96.6853 136.578 96.7487 137.042 96.6292C137.075 96.2116 136.97 95.803 136.902 95.3962C136.657 93.8753 136.469 92.3443 136.19 90.8296C136.052 91.0507 135.924 91.2771 135.824 91.5172Z" fill="#93ADA8"/>
<path d="M154.109 85.5217C154.926 85.4718 155.745 85.499 156.563 85.4945C158.708 85.4881 160.854 85.5044 163 85.4863V86.1721C162.688 87.1278 162.665 88.1406 162.501 89.1262C161.891 89.1697 161.279 89.1615 160.669 89.1633C160.326 91.4806 159.984 93.7997 159.636 96.117C159.548 97.0618 159.327 97.9913 159.286 98.9406C159.858 98.9524 160.43 98.9488 161.003 98.9497C160.9 100.149 160.666 101.333 160.51 102.527C159.8 102.585 159.087 102.56 158.376 102.562C156.12 102.562 153.864 102.563 151.607 102.562C151.762 101.355 151.934 100.15 152.137 98.9497C152.754 98.9488 153.373 98.9705 153.989 98.9098C154.217 97.6724 154.381 96.425 154.546 95.1794C154.85 93.1765 155.184 91.1762 155.411 89.1633C154.801 89.1643 154.191 89.167 153.583 89.1135C153.748 87.9141 153.914 86.7156 154.109 85.5217Z" fill="#93ADA8"/>
</g>
<defs>
<clipPath id="clip0_49_103">
<rect width="163" height="103" fill="white"/>
</clipPath>
</defs>
</svg>
